<?xml version="1.0" encoding="UTF-8" standalone="no"?><svg xmlns="http://www.w3.org/2000/svg" xmlns:xlink="http://www.w3.org/1999/xlink" contentStyleType="text/css" height="207.2917px" preserveAspectRatio="none" style="width:472px;height:207px;background:#00000000;" version="1.1" viewBox="0 0 472 207" width="472.9167px" zoomAndPan="magnify"><defs><linearGradient id="g4skxq02m6ywg0" x1="50%" x2="50%" y1="0%" y2="100%"><stop offset="0%" stop-color="#33B2E2"/><stop offset="100%" stop-color="#009FDB"/></linearGradient></defs><g><!--MD5=[9d44916250b776386006c440668bcfbb]
class Agent--><g id="elem_Agent"><rect codeLine="3" fill="url(#g4skxq02m6ywg0)" height="117.098" id="Agent" rx="10.4167" ry="10.4167" style="stroke:#33B2E2;stroke-width:1.0416666666666667;" width="82.2917" x="17.7083" y="47.9167"/><rect fill="url(#g4skxq02m6ywg0)" height="40.4215" rx="10.4167" ry="10.4167" style="stroke:url(#g4skxq02m6ywg0);stroke-width:1.0416666666666667;" width="82.2917" x="17.7083" y="47.9167"/><rect fill="url(#g4skxq02m6ywg0)" height="10.4167" style="stroke:url(#g4skxq02m6ywg0);stroke-width:1.0416666666666667;" width="82.2917" x="17.7083" y="77.9215"/><rect codeLine="3" fill="none" height="117.098" id="Agent" rx="10.4167" ry="10.4167" style="stroke:#33B2E2;stroke-width:1.0416666666666667;" width="82.2917" x="17.7083" y="47.9167"/><ellipse cx="32.2917" cy="68.1274" fill="none" rx="10.4167" ry="10.4167" style="stroke:#007FAF;stroke-width:1.0416666666666667;"/><path d="M33.8379,69.283 L34.1309,69.9992 L33.8379,69.9992 C33.5286,69.9992 33.431,70.0155 33.3171,70.0968 C33.138,70.1945 33.0241,70.4224 33.0241,70.634 C33.0241,70.8293 33.1217,71.0083 33.2845,71.1222 C33.3984,71.2199 33.5449,71.2524 33.8379,71.2524 L35.5794,71.2524 C35.8398,71.2524 36.0026,71.2199 36.1003,71.1711 C36.2956,71.0571 36.4095,70.8455 36.4095,70.634 C36.4095,70.4224 36.3118,70.2433 36.1491,70.1294 C36.0189,70.0317 35.9049,69.9992 35.5632,69.9992 L33.0729,63.9608 L30.3711,63.9608 C30.0293,63.9608 29.9479,63.9771 29.834,64.0584 C29.6387,64.1724 29.541,64.384 29.541,64.5955 C29.541,64.7909 29.6387,64.9699 29.8014,65.1001 C29.9154,65.1978 30.0456,65.214 30.3711,65.214 L31.1523,65.214 L29.2155,69.9992 C28.9063,69.9992 28.7923,70.0155 28.6784,70.0968 C28.4993,70.1945 28.3854,70.4224 28.3854,70.634 C28.3854,71.0409 28.6621,71.2524 29.2155,71.2524 L30.8757,71.2524 C31.1361,71.2524 31.2988,71.2199 31.3965,71.1711 C31.5755,71.0571 31.6895,70.8455 31.6895,70.634 C31.6895,70.4224 31.5918,70.2433 31.429,70.1131 C31.3151,70.0317 31.2012,69.9992 30.8757,69.9992 L30.5827,69.9992 L30.8757,69.283 L33.8379,69.283 Z M33.3333,68.0298 L31.3639,68.0298 L32.3568,65.6209 L33.3333,68.0298 Z " fill="#FFFFFF"/><text fill="#D2D2D2" font-family="&quot;Verdana&quot;" font-size="11.4583" font-style="italic" lengthAdjust="spacing" textLength="34.375" x="54.1667" y="72.0942">Agent</text><line style="stroke:#33B2E2;stroke-width:1.0416666666666667;" x1="18.75" x2="98.9583" y1="88.3382" y2="88.3382"/><ellipse cx="29.1667" cy="109.0698" fill="none" rx="3.125" ry="3.125" style="stroke:#007FAF;stroke-width:1.0416666666666667;"/><text fill="#D2D2D2" font-family="&quot;Verdana&quot;" font-size="11.4583" lengthAdjust="spacing" textLength="10.4167" x="45.8333" y="111.4741">id</text><ellipse cx="29.1667" cy="139.0747" fill="none" rx="3.125" ry="3.125" style="stroke:#007FAF;stroke-width:1.0416666666666667;"/><text fill="#D2D2D2" font-family="&quot;Verdana&quot;" font-size="11.4583" lengthAdjust="spacing" textLength="34.375" x="45.8333" y="141.479">external_id</text><line style="stroke:#33B2E2;stroke-width:1.0416666666666667;" x1="18.75" x2="98.9583" y1="156.6813" y2="156.6813"/></g><!--MD5=[c881b25adf3665c6568c9693d41a70f3]
class Activity--><g id="elem_Activity"><rect codeLine="8" fill="url(#g4skxq02m6ywg0)" height="177.1077" id="Activity" rx="10.4167" ry="10.4167" style="stroke:#33B2E2;stroke-width:1.0416666666666667;" width="127.0833" x="333.8542" y="17.7083"/><rect fill="url(#g4skxq02m6ywg0)" height="40.4215" rx="10.4167" ry="10.4167" style="stroke:url(#g4skxq02m6ywg0);stroke-width:1.0416666666666667;" width="127.0833" x="333.8542" y="17.7083"/><rect fill="url(#g4skxq02m6ywg0)" height="10.4167" style="stroke:url(#g4skxq02m6ywg0);stroke-width:1.0416666666666667;" width="127.0833" x="333.8542" y="47.7132"/><rect codeLine="8" fill="none" height="177.1077" id="Activity" rx="10.4167" ry="10.4167" style="stroke:#33B2E2;stroke-width:1.0416666666666667;" width="127.0833" x="333.8542" y="17.7083"/><ellipse cx="364.375" cy="37.9191" fill="none" rx="10.4167" ry="10.4167" style="stroke:#007FAF;stroke-width:1.0416666666666667;"/><path d="M365.9212,39.0747 L366.2142,39.7909 L365.9212,39.7909 C365.612,39.7909 365.5143,39.8071 365.4004,39.8885 C365.2214,39.9862 365.1074,40.214 365.1074,40.4256 C365.1074,40.6209 365.2051,40.8 365.3678,40.9139 C365.4818,41.0116 365.6283,41.0441 365.9212,41.0441 L367.6628,41.0441 C367.9232,41.0441 368.0859,41.0116 368.1836,40.9627 C368.3789,40.8488 368.4928,40.6372 368.4928,40.4256 C368.4928,40.214 368.3952,40.035 368.2324,39.9211 C368.1022,39.8234 367.9883,39.7909 367.6465,39.7909 L365.1563,33.7524 L362.4544,33.7524 C362.1126,33.7524 362.0313,33.7687 361.9173,33.8501 C361.722,33.964 361.6243,34.1756 361.6243,34.3872 C361.6243,34.5825 361.722,34.7616 361.8848,34.8918 C361.9987,34.9894 362.1289,35.0057 362.4544,35.0057 L363.2357,35.0057 L361.2988,39.7909 C360.9896,39.7909 360.8757,39.8071 360.7617,39.8885 C360.5827,39.9862 360.4688,40.214 360.4688,40.4256 C360.4688,40.8325 360.7454,41.0441 361.2988,41.0441 L362.959,41.0441 C363.2194,41.0441 363.3822,41.0116 363.4798,40.9627 C363.6589,40.8488 363.7728,40.6372 363.7728,40.4256 C363.7728,40.214 363.6751,40.035 363.5124,39.9048 C363.3984,39.8234 363.2845,39.7909 362.959,39.7909 L362.666,39.7909 L362.959,39.0747 L365.9212,39.0747 Z M365.4167,37.8215 L363.4473,37.8215 L364.4401,35.4126 L365.4167,37.8215 Z " fill="#FFFFFF"/><text fill="#D2D2D2" font-family="&quot;Verdana&quot;" font-size="11.4583" font-style="italic" lengthAdjust="spacing" textLength="43.75" x="389.7917" y="41.8859">Activity</text><line style="stroke:#33B2E2;stroke-width:1.0416666666666667;" x1="334.8958" x2="459.8958" y1="58.1299" y2="58.1299"/><ellipse cx="345.3125" cy="78.8615" fill="none" rx="3.125" ry="3.125" style="stroke:#007FAF;stroke-width:1.0416666666666667;"/><text fill="#D2D2D2" font-family="&quot;Verdana&quot;" font-size="11.4583" lengthAdjust="spacing" textLength="10.4167" x="361.9792" y="81.2658">id</text><ellipse cx="345.3125" cy="108.8664" fill="none" rx="3.125" ry="3.125" style="stroke:#007FAF;stroke-width:1.0416666666666667;"/><text fill="#D2D2D2" font-family="&quot;Verdana&quot;" font-size="11.4583" lengthAdjust="spacing" textLength="34.375" x="361.9792" y="111.2707">external_id</text><ellipse cx="345.3125" cy="138.8713" fill="none" rx="3.125" ry="3.125" style="stroke:#007FAF;stroke-width:1.0416666666666667;"/><text fill="#D2D2D2" font-family="&quot;Verdana&quot;" font-size="11.4583" lengthAdjust="spacing" textLength="84.375" x="361.9792" y="141.2755">startedAtTime</text><ellipse cx="345.3125" cy="168.8761" fill="none" rx="3.125" ry="3.125" style="stroke:#007FAF;stroke-width:1.0416666666666667;"/><text fill="#D2D2D2" font-family="&quot;Verdana&quot;" font-size="11.4583" lengthAdjust="spacing" textLength="81.25" x="361.9792" y="171.2804">endedAtTime</text><line style="stroke:#33B2E2;stroke-width:1.0416666666666667;" x1="334.8958" x2="459.8958" y1="186.4827" y2="186.4827"/></g><!--MD5=[259910b4a48a7fc2d2e54f6bf9fb7911]
class wasAssociatedWith--><g id="elem_wasAssociatedWith"><rect codeLine="16" fill="url(#g4skxq02m6ywg0)" height="87.0931" id="wasAssociatedWith" rx="10.4167" ry="10.4167" style="stroke:#33B2E2;stroke-width:1.0416666666666667;" width="160.4167" x="136.9792" y="62.5"/><rect fill="url(#g4skxq02m6ywg0)" height="40.4215" rx="10.4167" ry="10.4167" style="stroke:url(#g4skxq02m6ywg0);stroke-width:1.0416666666666667;" width="160.4167" x="136.9792" y="62.5"/><rect fill="url(#g4skxq02m6ywg0)" height="10.4167" style="stroke:url(#g4skxq02m6ywg0);stroke-width:1.0416666666666667;" width="160.4167" x="136.9792" y="92.5049"/><rect codeLine="16" fill="none" height="87.0931" id="wasAssociatedWith" rx="10.4167" ry="10.4167" style="stroke:#33B2E2;stroke-width:1.0416666666666667;" width="160.4167" x="136.9792" y="62.5"/><ellipse cx="151.5625" cy="82.7108" fill="none" rx="10.4167" ry="10.4167" style="stroke:#007FAF;stroke-width:1.0416666666666667;"/><path d="M153.1087,83.8664 L153.4017,84.5825 L153.1087,84.5825 C152.7995,84.5825 152.7018,84.5988 152.5879,84.6802 C152.4089,84.7778 152.2949,85.0057 152.2949,85.2173 C152.2949,85.4126 152.3926,85.5916 152.5553,85.7056 C152.6693,85.8032 152.8158,85.8358 153.1087,85.8358 L154.8503,85.8358 C155.1107,85.8358 155.2734,85.8032 155.3711,85.7544 C155.5664,85.6405 155.6803,85.4289 155.6803,85.2173 C155.6803,85.0057 155.5827,84.8267 155.4199,84.7127 C155.2897,84.6151 155.1758,84.5825 154.834,84.5825 L152.3438,78.5441 L149.6419,78.5441 C149.3001,78.5441 149.2188,78.5604 149.1048,78.6418 C148.9095,78.7557 148.8118,78.9673 148.8118,79.1789 C148.8118,79.3742 148.9095,79.5532 149.0723,79.6834 C149.1862,79.7811 149.3164,79.7974 149.6419,79.7974 L150.4232,79.7974 L148.4863,84.5825 C148.1771,84.5825 148.0632,84.5988 147.9492,84.6802 C147.7702,84.7778 147.6563,85.0057 147.6563,85.2173 C147.6563,85.6242 147.9329,85.8358 148.4863,85.8358 L150.1465,85.8358 C150.4069,85.8358 150.5697,85.8032 150.6673,85.7544 C150.8464,85.6405 150.9603,85.4289 150.9603,85.2173 C150.9603,85.0057 150.8626,84.8267 150.6999,84.6965 C150.5859,84.6151 150.472,84.5825 150.1465,84.5825 L149.8535,84.5825 L150.1465,83.8664 L153.1087,83.8664 Z M152.6042,82.6131 L150.6348,82.6131 L151.6276,80.2043 L152.6042,82.6131 Z " fill="#FFFFFF"/><text fill="#D2D2D2" font-family="&quot;Verdana&quot;" font-size="11.4583" font-style="italic" lengthAdjust="spacing" textLength="112.5" x="173.4375" y="86.6776">wasAssociatedWith</text><line style="stroke:#33B2E2;stroke-width:1.0416666666666667;" x1="138.0208" x2="296.3542" y1="102.9215" y2="102.9215"/><ellipse cx="148.4375" cy="123.6532" fill="none" rx="3.125" ry="3.125" style="stroke:#007FAF;stroke-width:1.0416666666666667;"/><text fill="#D2D2D2" font-family="&quot;Verdana&quot;" font-size="11.4583" lengthAdjust="spacing" textLength="22.9167" x="165.1042" y="126.0574">role</text><line style="stroke:#33B2E2;stroke-width:1.0416666666666667;" x1="138.0208" x2="296.3542" y1="141.2598" y2="141.2598"/></g><!--MD5=[2d79b49591ed9f3a373df373eef93dde]
link Agent to wasAssociatedWith--><g id="link_Agent_wasAssociatedWith"><path codeLine="20" d="M100.2929,106.25 C110.662,106.25 121.031,106.25 131.4,106.25 " fill="none" id="Agent-to-wasAssociatedWith" style="stroke:#009FDB;stroke-width:3.125;"/><polygon fill="#009FDB" points="136.8229,106.25,127.4479,102.0833,131.6146,106.25,127.4479,110.4167,136.8229,106.25" style="stroke:#009FDB;stroke-width:3.125;"/></g><!--MD5=[e690ba3db0f73f24541c0732078fa613]
link wasAssociatedWith to Activity--><g id="link_wasAssociatedWith_Activity"><path codeLine="21" d="M297.4365,106.25 C307.7438,106.25 318.0521,106.25 328.3594,106.25 " fill="none" id="wasAssociatedWith-to-Activity" style="stroke:#009FDB;stroke-width:3.125;"/><polygon fill="#009FDB" points="333.75,106.25,324.375,102.0833,328.5417,106.25,324.375,110.4167,333.75,106.25" style="stroke:#009FDB;stroke-width:3.125;"/></g><!--MD5=[9a31c16847d55be5f04f387612966025]
@startuml
!theme bluegray

abstract Agent {
+ id
+ external_id
}

abstract Activity {
+ id
+ external_id
+ startedAtTime
+ endedAtTime
}


abstract wasAssociatedWith{
+ role
}

Agent -> wasAssociatedWith
wasAssociatedWith -> Activity
@enduml

@startuml



skinparam backgroundColor transparent
skinparam useBetaStyle false








<style>
  root {
    BackgroundColor transparent
    FontColor #fff
    HyperLinkColor $ORANGE
    LineColor #007faf
    LineThickness 1
    Margin 10
    Padding 6
    Shadowing 0.0
  }
  node {
   Padding 15
   roundcorner 20
   BackgroundColor #009fdb-#007faf
  }
  caption {
    LineThickness 0
  }
  footer {
    LineThickness 0
  }
  groupHeader {
    BackgroundColor #f2f2f2
    FontColor #0568ae
    FontStyle bold
  }
  header {
    LineThickness 0
  }
  referenceHeader {
    BackgroundColor transparent
    FontColor #5a5a5a
    FontStyle bold
  }
  separator {
    BackgroundColor #5a5a5a
    FontColor transparent
    FontStyle bold
  }
  title {
	FontSize 20
	BorderRoundCorner            8
	BorderThickness 	         1
	BackgroundColor  #f5f5f5-#f2f2f2
	FontColor #009fdb
	BorderColor #f2f2f2
  }
  nwdiagDiagram {
	network {

	FontColor #fff
	BorderColor #33b2e2
	BackgroundColor #33b2e2-#009fdb

		LineColor #009fdb
		LineThickness 1.0
		FontColor #007faf
	}
	server {

	FontColor #fff
	BorderColor #33b2e2
	BackgroundColor #33b2e2-#009fdb

	}
	arrow {
		FontColor #007faf
		LineColor #007faf
	}
	group {
		BackGroundColor #d2d2d2
		LineColor $LIGHT_DARK
		LineThickness 2.0
		Margin 5
		Padding 5
	}
  }
  ganttDiagram {
	task {

	FontColor #fff
	BorderColor #33b2e2
	BackgroundColor #33b2e2-#009fdb

		LineColor #009fdb
		Margin 10
		Padding 6
	}
	note {
		FontColor #fff
		LineColor #04538b
		BackGroundColor #0568ae
	}
	separator {
		LineColor #f2f2f2
		BackGroundColor #f2f2f2-#c2c2c2
		FontColor #5a5a5a
	}
	milestone {
		FontColor #0568ae
		FontSize 16
		FontStyle italic
		BackGroundColor #f2f2f2
		LineColor #c2c2c2
	}
	timeline {
		BackgroundColor #f2f2f2
		FontColor #5a5a5a
	}
	closed {
		BackgroundColor #bb5d00
		FontColor #fff
	}
  }
</style>
skinparam defaultFontName        "Verdana"
skinparam defaultFontSize        12
skinparam dpi                    100
skinparam shadowing              false
skinparam roundcorner            20
skinparam ParticipantPadding     30
skinparam BoxPadding             40
skinparam Padding                8
skinparam ArrowColor             #959595
skinparam stereotype {
    CBackgroundColor #f5f5f5
    CBorderColor #c2c2c2
    ABackgroundColor #c4ca33
    ABorderColor #919700
    IBackgroundColor #d95555
    IBorderColor #a62222
    EBackgroundColor #ee9033
    EBorderColor #bb5d00
    NBackgroundColor #3786be
    NBorderColor #04538b
}
skinparam title {
	FontColor	                 #009fdb
	BorderColor	                 #c2c2c2
	FontSize	    	         20
	BorderRoundCorner            8
	BorderThickness 	         1
	BackgroundColor              #f5f5f5-#f2f2f2
}


skinparam legend {
	BackgroundColor #f2f2f2
	BorderColor #c2c2c2
	FontColor #5a5a5a
}

skinparam swimlane {
	BorderColor #0568ae
	BorderThickness 2
	TitleBackgroundColor  #f5f5f5-#f2f2f2
	TitleFontColor #009fdb
}


skinparam activity {
	FontColor #fff
	BorderColor #009fdb
	BackgroundColor #33b2e2-#009fdb
	BarColor #b5bd00
	StartColor #0568ae
	EndColor #0568ae
	DiamondBackgroundColor #f5f5f5-#c2c2c2
  	DiamondBorderColor #c2c2c2
	DiamondFontColor #5a5a5a
}


skinparam participant {

	FontColor #fff
	BorderColor #33b2e2
	BackgroundColor #33b2e2-#009fdb

	ParticipantBorderThickness 2
}


skinparam actor {

	FontColor #fff
	BorderColor #33b2e2
	BackgroundColor #33b2e2-#009fdb

	FontColor #009fdb
}


skinparam arrow {
	Thickness 3
	Color #009fdb
	FontColor #5a5a5a
}


skinparam sequence {
	BorderColor #009fdb
	TitleFontColor #009fdb
	BackgroundColor transparent
	StartColor #009fdb
	EndColor #009fdb
	BoxBackgroundColor #d2d2d2
	BoxBorderColor #959595
	BoxFontColor #5a5a5a
	DelayFontColor #5a5a5a
	LifeLineBorderColor #c2c2c2
	LifeLineBorderThickness 2
	LifeLineBackgroundColor #f5f5f5
	GroupBorderColor #959595
	GroupFontColor #5a5a5a
	GroupHeaderFontColor #0568ae
	DividerBackgroundColor #fff-#d2d2d2
    DividerBorderColor #959595
    DividerBorderThickness 2
    DividerFontColor #5a5a5a
	ReferenceBackgroundColor transparent
	ReferenceBorderColor #959595
	ReferenceFontColor #5a5a5a
	ReferenceHeaderFontColor #0568ae
	StereotypeFontColor #fff
}


skinparam partition {
	BorderColor #009fdb
	FontColor #009fdb
	BackgroundColor transparent
}


skinparam collections {

	FontColor #fff
	BorderColor #33b2e2
	BackgroundColor #33b2e2-#009fdb

}


skinparam control {

	FontColor #fff
	BorderColor #33b2e2
	BackgroundColor #33b2e2-#009fdb

	FontColor #009fdb
}


skinparam entity {

	FontColor #fff
	BorderColor #33b2e2
	BackgroundColor #33b2e2-#009fdb

	FontColor #009fdb
}


skinparam boundary {

	FontColor #fff
	BorderColor #33b2e2
	BackgroundColor #33b2e2-#009fdb

	FontColor #009fdb
}


skinparam agent {
	BackgroundColor #orange
	BorderColor #999999
	FontColor #333333
}


skinparam note {
	BorderThickness 1
	BackgroundColor #3786be-#0568ae
	BorderColor #0568ae
	FontColor #fff
}


skinparam artifact {
	BackgroundColor #fff-#d2d2d2
	BorderColor #c2c2c2
	FontColor #5a5a5a
}


skinparam component {

	FontColor #fff
	BorderColor #33b2e2
	BackgroundColor #33b2e2-#009fdb

}


skinparam interface {
	BackgroundColor  #d95555
	BorderColor  #cf2a2a
	FontColor #5a5a5a
}


skinparam storage {
	BackgroundColor #ee9033-#ea7400
  	BorderColor #ea7400
	FontColor #fff
}


skinparam node {
	BackgroundColor #f5f5f5-#f2f2f2
	BorderColor #c2c2c2
	FontColor #009fdb
}


skinparam cloud {
	BackgroundColor #F2FCFE-#eeeeee
	BorderColor #F2FCFE
	FontColor #009fdb
}


skinparam database {

	FontColor #fff
	BorderColor #33b2e2
	BackgroundColor #33b2e2-#009fdb

	BorderColor #007faf
}


skinparam class {

	FontColor #fff
	BorderColor #33b2e2
	BackgroundColor #33b2e2-#009fdb

	HeaderBackgroundColor #33b2e2-#009fdb
	StereotypeFontColor #5a5a5a
	BorderThickness 1
	AttributeFontColor #d2d2d2
	AttributeFontSize 11
}


skinparam object {

	FontColor #fff
	BorderColor #33b2e2
	BackgroundColor #33b2e2-#009fdb

	StereotypeFontColor #5a5a5a
	BorderThickness 1
	AttributeFontColor #d2d2d2
	AttributeFontSize 11
}


skinparam usecase {

	FontColor #fff
	BorderColor #33b2e2
	BackgroundColor #33b2e2-#009fdb

	BorderThickness 2
	StereotypeFontColor #009fdb
}


skinparam rectangle {
		FontColor #5a5a5a
	BorderColor #c2c2c2
	BackgroundColor #fff-#fefefe
	BorderThickness 2
	StereotypeFontColor #009fdb
}


skinparam package {
	FontColor #009fdb
	BorderColor #33b2e2
	BackgroundColor transparent
	BorderThickness 2
}


skinparam folder {
	BackgroundColor #fff-#f5f5f5
  	BorderColor #ea7400
	FontColor #ea7400
	BorderThickness 2
}


skinparam frame {
	BackgroundColor #fff-#f5f5f5
  	BorderColor #0568ae
	FontColor #0568ae
	BorderThickness 2
}


skinparam state {

	FontColor #fff
	BorderColor #33b2e2
	BackgroundColor #33b2e2-#009fdb

	BorderColor #007faf
	StartColor #0568ae
	EndColor #0568ae
	AttributeFontColor #d2d2d2
	AttributeFontSize 11
}


skinparam queue {

	FontColor #fff
	BorderColor #33b2e2
	BackgroundColor #33b2e2-#009fdb

}


skinparam card {
	BackgroundColor #3786be-#0568ae
	BorderColor #0568ae
	FontColor #fff
}


skinparam file {
	BackgroundColor #f5f5f5-#f2f2f2
	BorderColor #0568ae
	FontColor #5a5a5a

}


skinparam stack {

	FontColor #fff
	BorderColor #33b2e2
	BackgroundColor #33b2e2-#009fdb

}

abstract Agent {
+ id
+ external_id
}

abstract Activity {
+ id
+ external_id
+ startedAtTime
+ endedAtTime
}


abstract wasAssociatedWith{
+ role
}

Agent -> wasAssociatedWith
wasAssociatedWith -> Activity
@enduml

PlantUML version 1.2022.8beta2(Unknown compile time)
(GPL source distribution)
Java Runtime: Java(TM) SE Runtime Environment
JVM: Java HotSpot(TM) 64-Bit Server VM
Default Encoding: UTF-8
Language: en
Country: US
--></g></svg>
