<?xml version="1.0" encoding="UTF-8" standalone="no"?><svg xmlns="http://www.w3.org/2000/svg" xmlns:xlink="http://www.w3.org/1999/xlink" contentStyleType="text/css" height="386.4583px" preserveAspectRatio="none" style="width:296px;height:386px;background:#00000000;" version="1.1" viewBox="0 0 296 386" width="296.875px" zoomAndPan="magnify"><defs><linearGradient id="g1p7fn5cz4li0f0" x1="50%" x2="50%" y1="0%" y2="100%"><stop offset="0%" stop-color="#33B2E2"/><stop offset="100%" stop-color="#009FDB"/></linearGradient></defs><g><!--MD5=[9d44916250b776386006c440668bcfbb]
class Agent--><g id="elem_Agent"><rect codeLine="3" fill="url(#g1p7fn5cz4li0f0)" height="117.098" id="Agent" rx="10.4167" ry="10.4167" style="stroke:#33B2E2;stroke-width:1.0416666666666667;" width="82.2917" x="17.7083" y="17.7083"/><rect fill="url(#g1p7fn5cz4li0f0)" height="40.4215" rx="10.4167" ry="10.4167" style="stroke:url(#g1p7fn5cz4li0f0);stroke-width:1.0416666666666667;" width="82.2917" x="17.7083" y="17.7083"/><rect fill="url(#g1p7fn5cz4li0f0)" height="10.4167" style="stroke:url(#g1p7fn5cz4li0f0);stroke-width:1.0416666666666667;" width="82.2917" x="17.7083" y="47.7132"/><rect codeLine="3" fill="none" height="117.098" id="Agent" rx="10.4167" ry="10.4167" style="stroke:#33B2E2;stroke-width:1.0416666666666667;" width="82.2917" x="17.7083" y="17.7083"/><ellipse cx="32.2917" cy="37.9191" fill="none" rx="10.4167" ry="10.4167" style="stroke:#007FAF;stroke-width:1.0416666666666667;"/><path d="M33.8379,39.0747 L34.1309,39.7909 L33.8379,39.7909 C33.5286,39.7909 33.431,39.8071 33.3171,39.8885 C33.138,39.9862 33.0241,40.214 33.0241,40.4256 C33.0241,40.6209 33.1217,40.8 33.2845,40.9139 C33.3984,41.0116 33.5449,41.0441 33.8379,41.0441 L35.5794,41.0441 C35.8398,41.0441 36.0026,41.0116 36.1003,40.9627 C36.2956,40.8488 36.4095,40.6372 36.4095,40.4256 C36.4095,40.214 36.3118,40.035 36.1491,39.9211 C36.0189,39.8234 35.9049,39.7909 35.5632,39.7909 L33.0729,33.7524 L30.3711,33.7524 C30.0293,33.7524 29.9479,33.7687 29.834,33.8501 C29.6387,33.964 29.541,34.1756 29.541,34.3872 C29.541,34.5825 29.6387,34.7616 29.8014,34.8918 C29.9154,34.9894 30.0456,35.0057 30.3711,35.0057 L31.1523,35.0057 L29.2155,39.7909 C28.9063,39.7909 28.7923,39.8071 28.6784,39.8885 C28.4993,39.9862 28.3854,40.214 28.3854,40.4256 C28.3854,40.8325 28.6621,41.0441 29.2155,41.0441 L30.8757,41.0441 C31.1361,41.0441 31.2988,41.0116 31.3965,40.9627 C31.5755,40.8488 31.6895,40.6372 31.6895,40.4256 C31.6895,40.214 31.5918,40.035 31.429,39.9048 C31.3151,39.8234 31.2012,39.7909 30.8757,39.7909 L30.5827,39.7909 L30.8757,39.0747 L33.8379,39.0747 Z M33.3333,37.8215 L31.3639,37.8215 L32.3568,35.4126 L33.3333,37.8215 Z " fill="#FFFFFF"/><text fill="#D2D2D2" font-family="&quot;Verdana&quot;" font-size="11.4583" font-style="italic" lengthAdjust="spacing" textLength="34.375" x="54.1667" y="41.8859">Agent</text><line style="stroke:#33B2E2;stroke-width:1.0416666666666667;" x1="18.75" x2="98.9583" y1="58.1299" y2="58.1299"/><ellipse cx="29.1667" cy="78.8615" fill="none" rx="3.125" ry="3.125" style="stroke:#007FAF;stroke-width:1.0416666666666667;"/><text fill="#D2D2D2" font-family="&quot;Verdana&quot;" font-size="11.4583" lengthAdjust="spacing" textLength="10.4167" x="45.8333" y="81.2658">id</text><ellipse cx="29.1667" cy="108.8664" fill="none" rx="3.125" ry="3.125" style="stroke:#007FAF;stroke-width:1.0416666666666667;"/><text fill="#D2D2D2" font-family="&quot;Verdana&quot;" font-size="11.4583" lengthAdjust="spacing" textLength="34.375" x="45.8333" y="111.2707">external_id</text><line style="stroke:#33B2E2;stroke-width:1.0416666666666667;" x1="18.75" x2="98.9583" y1="126.473" y2="126.473"/></g><!--MD5=[c881b25adf3665c6568c9693d41a70f3]
class Activity--><g id="elem_Activity"><rect codeLine="8" fill="url(#g1p7fn5cz4li0f0)" height="177.1077" id="Activity" rx="10.4167" ry="10.4167" style="stroke:#33B2E2;stroke-width:1.0416666666666667;" width="127.0833" x="147.3958" y="196.875"/><rect fill="url(#g1p7fn5cz4li0f0)" height="40.4215" rx="10.4167" ry="10.4167" style="stroke:url(#g1p7fn5cz4li0f0);stroke-width:1.0416666666666667;" width="127.0833" x="147.3958" y="196.875"/><rect fill="url(#g1p7fn5cz4li0f0)" height="10.4167" style="stroke:url(#g1p7fn5cz4li0f0);stroke-width:1.0416666666666667;" width="127.0833" x="147.3958" y="226.8799"/><rect codeLine="8" fill="none" height="177.1077" id="Activity" rx="10.4167" ry="10.4167" style="stroke:#33B2E2;stroke-width:1.0416666666666667;" width="127.0833" x="147.3958" y="196.875"/><ellipse cx="177.9167" cy="217.0858" fill="none" rx="10.4167" ry="10.4167" style="stroke:#007FAF;stroke-width:1.0416666666666667;"/><path d="M179.4629,218.2414 L179.7559,218.9575 L179.4629,218.9575 C179.1536,218.9575 179.056,218.9738 178.9421,219.0552 C178.763,219.1528 178.6491,219.3807 178.6491,219.5923 C178.6491,219.7876 178.7467,219.9666 178.9095,220.0806 C179.0234,220.1782 179.1699,220.2108 179.4629,220.2108 L181.2044,220.2108 C181.4648,220.2108 181.6276,220.1782 181.7253,220.1294 C181.9206,220.0155 182.0345,219.8039 182.0345,219.5923 C182.0345,219.3807 181.9368,219.2017 181.7741,219.0877 C181.6439,218.9901 181.5299,218.9575 181.1882,218.9575 L178.6979,212.9191 L175.9961,212.9191 C175.6543,212.9191 175.5729,212.9354 175.459,213.0168 C175.2637,213.1307 175.166,213.3423 175.166,213.5539 C175.166,213.7492 175.2637,213.9282 175.4264,214.0584 C175.5404,214.1561 175.6706,214.1724 175.9961,214.1724 L176.7773,214.1724 L174.8405,218.9575 C174.5313,218.9575 174.4173,218.9738 174.3034,219.0552 C174.1243,219.1528 174.0104,219.3807 174.0104,219.5923 C174.0104,219.9992 174.2871,220.2108 174.8405,220.2108 L176.5007,220.2108 C176.7611,220.2108 176.9238,220.1782 177.0215,220.1294 C177.2005,220.0155 177.3145,219.8039 177.3145,219.5923 C177.3145,219.3807 177.2168,219.2017 177.054,219.0715 C176.9401,218.9901 176.8262,218.9575 176.5007,218.9575 L176.2077,218.9575 L176.5007,218.2414 L179.4629,218.2414 Z M178.9583,216.9881 L176.9889,216.9881 L177.9818,214.5793 L178.9583,216.9881 Z " fill="#FFFFFF"/><text fill="#D2D2D2" font-family="&quot;Verdana&quot;" font-size="11.4583" font-style="italic" lengthAdjust="spacing" textLength="43.75" x="203.3333" y="221.0526">Activity</text><line style="stroke:#33B2E2;stroke-width:1.0416666666666667;" x1="148.4375" x2="273.4375" y1="237.2965" y2="237.2965"/><ellipse cx="158.8542" cy="258.0282" fill="none" rx="3.125" ry="3.125" style="stroke:#007FAF;stroke-width:1.0416666666666667;"/><text fill="#D2D2D2" font-family="&quot;Verdana&quot;" font-size="11.4583" lengthAdjust="spacing" textLength="10.4167" x="175.5208" y="260.4324">id</text><ellipse cx="158.8542" cy="288.033" fill="none" rx="3.125" ry="3.125" style="stroke:#007FAF;stroke-width:1.0416666666666667;"/><text fill="#D2D2D2" font-family="&quot;Verdana&quot;" font-size="11.4583" lengthAdjust="spacing" textLength="34.375" x="175.5208" y="290.4373">external_id</text><ellipse cx="158.8542" cy="318.0379" fill="none" rx="3.125" ry="3.125" style="stroke:#007FAF;stroke-width:1.0416666666666667;"/><text fill="#D2D2D2" font-family="&quot;Verdana&quot;" font-size="11.4583" lengthAdjust="spacing" textLength="84.375" x="175.5208" y="320.4422">startedAtTime</text><ellipse cx="158.8542" cy="348.0428" fill="none" rx="3.125" ry="3.125" style="stroke:#007FAF;stroke-width:1.0416666666666667;"/><text fill="#D2D2D2" font-family="&quot;Verdana&quot;" font-size="11.4583" lengthAdjust="spacing" textLength="81.25" x="175.5208" y="350.4471">endedAtTime</text><line style="stroke:#33B2E2;stroke-width:1.0416666666666667;" x1="148.4375" x2="273.4375" y1="365.6494" y2="365.6494"/></g><!--MD5=[a5fdf4ea0872bb7aae15b733aaa9c569]
class actedOnBehalfOf--><g id="elem_actedOnBehalfOf"><rect codeLine="16" fill="url(#g1p7fn5cz4li0f0)" height="87.0931" id="actedOnBehalfOf" rx="10.4167" ry="10.4167" style="stroke:#33B2E2;stroke-width:1.0416666666666667;" width="147.9167" x="136.9792" y="32.2917"/><rect fill="url(#g1p7fn5cz4li0f0)" height="40.4215" rx="10.4167" ry="10.4167" style="stroke:url(#g1p7fn5cz4li0f0);stroke-width:1.0416666666666667;" width="147.9167" x="136.9792" y="32.2917"/><rect fill="url(#g1p7fn5cz4li0f0)" height="10.4167" style="stroke:url(#g1p7fn5cz4li0f0);stroke-width:1.0416666666666667;" width="147.9167" x="136.9792" y="62.2965"/><rect codeLine="16" fill="none" height="87.0931" id="actedOnBehalfOf" rx="10.4167" ry="10.4167" style="stroke:#33B2E2;stroke-width:1.0416666666666667;" width="147.9167" x="136.9792" y="32.2917"/><ellipse cx="151.5625" cy="52.5024" fill="none" rx="10.4167" ry="10.4167" style="stroke:#007FAF;stroke-width:1.0416666666666667;"/><path d="M153.1087,53.658 L153.4017,54.3742 L153.1087,54.3742 C152.7995,54.3742 152.7018,54.3905 152.5879,54.4718 C152.4089,54.5695 152.2949,54.7974 152.2949,55.009 C152.2949,55.2043 152.3926,55.3833 152.5553,55.4972 C152.6693,55.5949 152.8158,55.6274 153.1087,55.6274 L154.8503,55.6274 C155.1107,55.6274 155.2734,55.5949 155.3711,55.5461 C155.5664,55.4321 155.6803,55.2205 155.6803,55.009 C155.6803,54.7974 155.5827,54.6183 155.4199,54.5044 C155.2897,54.4067 155.1758,54.3742 154.834,54.3742 L152.3438,48.3358 L149.6419,48.3358 C149.3001,48.3358 149.2188,48.3521 149.1048,48.4334 C148.9095,48.5474 148.8118,48.759 148.8118,48.9705 C148.8118,49.1659 148.9095,49.3449 149.0723,49.4751 C149.1862,49.5728 149.3164,49.589 149.6419,49.589 L150.4232,49.589 L148.4863,54.3742 C148.1771,54.3742 148.0632,54.3905 147.9492,54.4718 C147.7702,54.5695 147.6563,54.7974 147.6563,55.009 C147.6563,55.4159 147.9329,55.6274 148.4863,55.6274 L150.1465,55.6274 C150.4069,55.6274 150.5697,55.5949 150.6673,55.5461 C150.8464,55.4321 150.9603,55.2205 150.9603,55.009 C150.9603,54.7974 150.8626,54.6183 150.6999,54.4881 C150.5859,54.4067 150.472,54.3742 150.1465,54.3742 L149.8535,54.3742 L150.1465,53.658 L153.1087,53.658 Z M152.6042,52.4048 L150.6348,52.4048 L151.6276,49.9959 L152.6042,52.4048 Z " fill="#FFFFFF"/><text fill="#D2D2D2" font-family="&quot;Verdana&quot;" font-size="11.4583" font-style="italic" lengthAdjust="spacing" textLength="100" x="173.4375" y="56.4692">actedOnBehalfOf</text><line style="stroke:#33B2E2;stroke-width:1.0416666666666667;" x1="138.0208" x2="283.8542" y1="72.7132" y2="72.7132"/><ellipse cx="148.4375" cy="93.4448" fill="none" rx="3.125" ry="3.125" style="stroke:#007FAF;stroke-width:1.0416666666666667;"/><text fill="#D2D2D2" font-family="&quot;Verdana&quot;" font-size="11.4583" lengthAdjust="spacing" textLength="22.9167" x="165.1042" y="95.8491">role</text><line style="stroke:#33B2E2;stroke-width:1.0416666666666667;" x1="138.0208" x2="283.8542" y1="111.0514" y2="111.0514"/></g><!--MD5=[0483ba39198cee4b8f740215b9132ece]
link Agent to actedOnBehalfOf--><g id="link_Agent_actedOnBehalfOf"><path codeLine="20" d="M100.1424,110.6531 C110.5847,116.1448 121.027,119.1615 131.4688,119.7031 " fill="none" id="Agent-to-actedOnBehalfOf" style="stroke:#009FDB;stroke-width:3.125;"/><polygon fill="#009FDB" points="136.9302,119.7604,127.5998,115.4949,131.7222,119.7054,127.5117,123.8277,136.9302,119.7604" style="stroke:#009FDB;stroke-width:3.125;"/></g><!--MD5=[5ce141417b5e9cdb1ba2c1dcaf0f5315]
link actedOnBehalfOf to Agent--><g id="link_actedOnBehalfOf_Agent"><path codeLine="21" d="M136.9302,32.3229 C126.2958,31.9958 115.6621,34.2354 105.0282,39.0417 " fill="none" id="actedOnBehalfOf-to-Agent" style="stroke:#009FDB;stroke-width:3.125;"/><polygon fill="#009FDB" points="100.1424,41.4302,110.3948,41.0563,104.8216,39.1428,106.735,33.5696,100.1424,41.4302" style="stroke:#009FDB;stroke-width:3.125;"/></g><!--MD5=[1a5b88cada947775482757fa22440fb1]
link actedOnBehalfOf to Activity--><g id="link_actedOnBehalfOf_Activity"><path codeLine="22" d="M210.9375,120.0344 C210.9375,140.7375 210.9375,166.4292 210.9375,191.301 " fill="none" id="actedOnBehalfOf-to-Activity" style="stroke:#009FDB;stroke-width:3.125;stroke-dasharray:7.0,7.0;"/><polygon fill="#009FDB" points="210.9375,196.5938,215.1042,187.2188,210.9375,191.3854,206.7708,187.2188,210.9375,196.5938" style="stroke:#009FDB;stroke-width:3.125;"/></g><!--MD5=[77615c91c4c072a2f8b78fda30236e20]
@startuml
!theme bluegray

abstract Agent {
+ id
+ external_id
}

abstract Activity {
+ id
+ external_id
+ startedAtTime
+ endedAtTime
}


abstract actedOnBehalfOf {
+ role
}

Agent -> actedOnBehalfOf
actedOnBehalfOf -> Agent
actedOnBehalfOf ..> Activity
@enduml

@startuml



skinparam backgroundColor transparent
skinparam useBetaStyle false








<style>
  root {
    BackgroundColor transparent
    FontColor #fff
    HyperLinkColor $ORANGE
    LineColor #007faf
    LineThickness 1
    Margin 10
    Padding 6
    Shadowing 0.0
  }
  node {
   Padding 15
   roundcorner 20
   BackgroundColor #009fdb-#007faf
  }
  caption {
    LineThickness 0
  }
  footer {
    LineThickness 0
  }
  groupHeader {
    BackgroundColor #f2f2f2
    FontColor #0568ae
    FontStyle bold
  }
  header {
    LineThickness 0
  }
  referenceHeader {
    BackgroundColor transparent
    FontColor #5a5a5a
    FontStyle bold
  }
  separator {
    BackgroundColor #5a5a5a
    FontColor transparent
    FontStyle bold
  }
  title {
	FontSize 20
	BorderRoundCorner            8
	BorderThickness 	         1
	BackgroundColor  #f5f5f5-#f2f2f2
	FontColor #009fdb
	BorderColor #f2f2f2
  }
  nwdiagDiagram {
	network {

	FontColor #fff
	BorderColor #33b2e2
	BackgroundColor #33b2e2-#009fdb

		LineColor #009fdb
		LineThickness 1.0
		FontColor #007faf
	}
	server {

	FontColor #fff
	BorderColor #33b2e2
	BackgroundColor #33b2e2-#009fdb

	}
	arrow {
		FontColor #007faf
		LineColor #007faf
	}
	group {
		BackGroundColor #d2d2d2
		LineColor $LIGHT_DARK
		LineThickness 2.0
		Margin 5
		Padding 5
	}
  }
  ganttDiagram {
	task {

	FontColor #fff
	BorderColor #33b2e2
	BackgroundColor #33b2e2-#009fdb

		LineColor #009fdb
		Margin 10
		Padding 6
	}
	note {
		FontColor #fff
		LineColor #04538b
		BackGroundColor #0568ae
	}
	separator {
		LineColor #f2f2f2
		BackGroundColor #f2f2f2-#c2c2c2
		FontColor #5a5a5a
	}
	milestone {
		FontColor #0568ae
		FontSize 16
		FontStyle italic
		BackGroundColor #f2f2f2
		LineColor #c2c2c2
	}
	timeline {
		BackgroundColor #f2f2f2
		FontColor #5a5a5a
	}
	closed {
		BackgroundColor #bb5d00
		FontColor #fff
	}
  }
</style>
skinparam defaultFontName        "Verdana"
skinparam defaultFontSize        12
skinparam dpi                    100
skinparam shadowing              false
skinparam roundcorner            20
skinparam ParticipantPadding     30
skinparam BoxPadding             40
skinparam Padding                8
skinparam ArrowColor             #959595
skinparam stereotype {
    CBackgroundColor #f5f5f5
    CBorderColor #c2c2c2
    ABackgroundColor #c4ca33
    ABorderColor #919700
    IBackgroundColor #d95555
    IBorderColor #a62222
    EBackgroundColor #ee9033
    EBorderColor #bb5d00
    NBackgroundColor #3786be
    NBorderColor #04538b
}
skinparam title {
	FontColor	                 #009fdb
	BorderColor	                 #c2c2c2
	FontSize	    	         20
	BorderRoundCorner            8
	BorderThickness 	         1
	BackgroundColor              #f5f5f5-#f2f2f2
}


skinparam legend {
	BackgroundColor #f2f2f2
	BorderColor #c2c2c2
	FontColor #5a5a5a
}

skinparam swimlane {
	BorderColor #0568ae
	BorderThickness 2
	TitleBackgroundColor  #f5f5f5-#f2f2f2
	TitleFontColor #009fdb
}


skinparam activity {
	FontColor #fff
	BorderColor #009fdb
	BackgroundColor #33b2e2-#009fdb
	BarColor #b5bd00
	StartColor #0568ae
	EndColor #0568ae
	DiamondBackgroundColor #f5f5f5-#c2c2c2
  	DiamondBorderColor #c2c2c2
	DiamondFontColor #5a5a5a
}


skinparam participant {

	FontColor #fff
	BorderColor #33b2e2
	BackgroundColor #33b2e2-#009fdb

	ParticipantBorderThickness 2
}


skinparam actor {

	FontColor #fff
	BorderColor #33b2e2
	BackgroundColor #33b2e2-#009fdb

	FontColor #009fdb
}


skinparam arrow {
	Thickness 3
	Color #009fdb
	FontColor #5a5a5a
}


skinparam sequence {
	BorderColor #009fdb
	TitleFontColor #009fdb
	BackgroundColor transparent
	StartColor #009fdb
	EndColor #009fdb
	BoxBackgroundColor #d2d2d2
	BoxBorderColor #959595
	BoxFontColor #5a5a5a
	DelayFontColor #5a5a5a
	LifeLineBorderColor #c2c2c2
	LifeLineBorderThickness 2
	LifeLineBackgroundColor #f5f5f5
	GroupBorderColor #959595
	GroupFontColor #5a5a5a
	GroupHeaderFontColor #0568ae
	DividerBackgroundColor #fff-#d2d2d2
    DividerBorderColor #959595
    DividerBorderThickness 2
    DividerFontColor #5a5a5a
	ReferenceBackgroundColor transparent
	ReferenceBorderColor #959595
	ReferenceFontColor #5a5a5a
	ReferenceHeaderFontColor #0568ae
	StereotypeFontColor #fff
}


skinparam partition {
	BorderColor #009fdb
	FontColor #009fdb
	BackgroundColor transparent
}


skinparam collections {

	FontColor #fff
	BorderColor #33b2e2
	BackgroundColor #33b2e2-#009fdb

}


skinparam control {

	FontColor #fff
	BorderColor #33b2e2
	BackgroundColor #33b2e2-#009fdb

	FontColor #009fdb
}


skinparam entity {

	FontColor #fff
	BorderColor #33b2e2
	BackgroundColor #33b2e2-#009fdb

	FontColor #009fdb
}


skinparam boundary {

	FontColor #fff
	BorderColor #33b2e2
	BackgroundColor #33b2e2-#009fdb

	FontColor #009fdb
}


skinparam agent {
	BackgroundColor #orange
	BorderColor #999999
	FontColor #333333
}


skinparam note {
	BorderThickness 1
	BackgroundColor #3786be-#0568ae
	BorderColor #0568ae
	FontColor #fff
}


skinparam artifact {
	BackgroundColor #fff-#d2d2d2
	BorderColor #c2c2c2
	FontColor #5a5a5a
}


skinparam component {

	FontColor #fff
	BorderColor #33b2e2
	BackgroundColor #33b2e2-#009fdb

}


skinparam interface {
	BackgroundColor  #d95555
	BorderColor  #cf2a2a
	FontColor #5a5a5a
}


skinparam storage {
	BackgroundColor #ee9033-#ea7400
  	BorderColor #ea7400
	FontColor #fff
}


skinparam node {
	BackgroundColor #f5f5f5-#f2f2f2
	BorderColor #c2c2c2
	FontColor #009fdb
}


skinparam cloud {
	BackgroundColor #F2FCFE-#eeeeee
	BorderColor #F2FCFE
	FontColor #009fdb
}


skinparam database {

	FontColor #fff
	BorderColor #33b2e2
	BackgroundColor #33b2e2-#009fdb

	BorderColor #007faf
}


skinparam class {

	FontColor #fff
	BorderColor #33b2e2
	BackgroundColor #33b2e2-#009fdb

	HeaderBackgroundColor #33b2e2-#009fdb
	StereotypeFontColor #5a5a5a
	BorderThickness 1
	AttributeFontColor #d2d2d2
	AttributeFontSize 11
}


skinparam object {

	FontColor #fff
	BorderColor #33b2e2
	BackgroundColor #33b2e2-#009fdb

	StereotypeFontColor #5a5a5a
	BorderThickness 1
	AttributeFontColor #d2d2d2
	AttributeFontSize 11
}


skinparam usecase {

	FontColor #fff
	BorderColor #33b2e2
	BackgroundColor #33b2e2-#009fdb

	BorderThickness 2
	StereotypeFontColor #009fdb
}


skinparam rectangle {
		FontColor #5a5a5a
	BorderColor #c2c2c2
	BackgroundColor #fff-#fefefe
	BorderThickness 2
	StereotypeFontColor #009fdb
}


skinparam package {
	FontColor #009fdb
	BorderColor #33b2e2
	BackgroundColor transparent
	BorderThickness 2
}


skinparam folder {
	BackgroundColor #fff-#f5f5f5
  	BorderColor #ea7400
	FontColor #ea7400
	BorderThickness 2
}


skinparam frame {
	BackgroundColor #fff-#f5f5f5
  	BorderColor #0568ae
	FontColor #0568ae
	BorderThickness 2
}


skinparam state {

	FontColor #fff
	BorderColor #33b2e2
	BackgroundColor #33b2e2-#009fdb

	BorderColor #007faf
	StartColor #0568ae
	EndColor #0568ae
	AttributeFontColor #d2d2d2
	AttributeFontSize 11
}


skinparam queue {

	FontColor #fff
	BorderColor #33b2e2
	BackgroundColor #33b2e2-#009fdb

}


skinparam card {
	BackgroundColor #3786be-#0568ae
	BorderColor #0568ae
	FontColor #fff
}


skinparam file {
	BackgroundColor #f5f5f5-#f2f2f2
	BorderColor #0568ae
	FontColor #5a5a5a

}


skinparam stack {

	FontColor #fff
	BorderColor #33b2e2
	BackgroundColor #33b2e2-#009fdb

}

abstract Agent {
+ id
+ external_id
}

abstract Activity {
+ id
+ external_id
+ startedAtTime
+ endedAtTime
}


abstract actedOnBehalfOf {
+ role
}

Agent -> actedOnBehalfOf
actedOnBehalfOf -> Agent
actedOnBehalfOf ..> Activity
@enduml

PlantUML version 1.2022.8beta2(Unknown compile time)
(GPL source distribution)
Java Runtime: Java(TM) SE Runtime Environment
JVM: Java HotSpot(TM) 64-Bit Server VM
Default Encoding: UTF-8
Language: en
Country: US
--></g></svg>
