<?xml version="1.0" encoding="utf-8"?>
<!-- Generator: Adobe Illustrator 24.1.3, SVG Export Plug-In . SVG Version: 6.00 Build 0)  -->
<svg version="1.1" id="Layer_1" xmlns="http://www.w3.org/2000/svg" xmlns:xlink="http://www.w3.org/1999/xlink" x="0px" y="0px"
	 viewBox="0 0 500 500" style="enable-background:new 0 0 500 500;" xml:space="preserve">
<style type="text/css">
	.st0{fill:#0E1C30;}
</style>
<path class="st0" d="M347.74,438.21c-17.66,0-34.89-1.9-51.51-5.49V75.25c30.79,9.6,62.78,20.42,93.34,30.69
	c5.09,1.77,7.64,1,11.08-2.51c20.85-21.71,42.83-42.21,63.31-64.24c-244.92-21.29-63.7-107.93-307.79,74.69
	c-3.56,2.75-9.65,5.52-9.63,9.72v209.94c-30.88-42.99-49.16-96.22-49.16-153.86c0-61.49,20.81-117.96,55.53-162.34
	C77.89,62.01,27.39,145.65,27.39,241.48C27.39,384.26,139.49,500,277.76,500c78.72,0,148.95-37.53,194.84-96.19
	C435.85,425.69,393.22,438.21,347.74,438.21z M191.84,319.81c51.87-47.18,35.98-155.98,39.95-210.61l33.77-25.93v341.19
	c-11.83-2.64-79.61-37.18-106.49-74.85C170.12,339.79,180.9,329.75,191.84,319.81z"/>
</svg>
