<?xml version="1.0" encoding="utf-8"?>
<!-- Generator: Adobe Illustrator 24.1.3, SVG Export Plug-In . SVG Version: 6.00 Build 0)  -->
<svg version="1.1" id="Layer_1" xmlns="http://www.w3.org/2000/svg" xmlns:xlink="http://www.w3.org/1999/xlink" x="0px" y="0px"
	 viewBox="0 0 1572.08 254.08" style="enable-background:new 0 0 1572.08 254.08;" xml:space="preserve">
<style type="text/css">
	.st0{fill:#0E1C30;}
</style>
<g>
	<path class="st0" d="M162.79,222.68c-8.97,0-17.73-0.96-26.18-2.79V38.24c15.65,4.88,31.9,10.38,47.43,15.6
		c2.59,0.9,3.88,0.51,5.63-1.27c10.6-11.03,21.76-21.45,32.17-32.65C97.39,9.09,189.48-34.93,65.44,57.87
		c-1.81,1.4-4.9,2.81-4.89,4.94V169.5c-15.69-21.85-24.98-48.89-24.98-78.18c0-31.25,10.57-59.94,28.22-82.49
		C25.66,31.51,0,74.02,0,122.71c0,72.55,56.96,131.37,127.23,131.37c40,0,75.69-19.07,99.01-48.88
		C207.57,216.32,185.9,222.68,162.79,222.68z M83.57,162.52c26.36-23.98,18.28-79.26,20.3-107.02l17.16-13.18V215.7
		c-6.01-1.34-40.46-18.89-54.12-38.04C72.53,172.67,78.01,167.57,83.57,162.52z"/>
	<path class="st0" d="M243.2,247.18c19.33-0.35,23.13-3.8,23.13-12.08V29c0-10.36-3.45-16.57-24.51-16.92V7.94L319.5,3.8v119.45
		c14.5-20.37,37.63-33.83,59.72-33.83c30.72,0,44.19,18.3,44.19,51.44v94.25c0,8.29,3.45,11.74,23.48,12.08v4.14h-93.9v-4.14
		c12.08-0.35,17.26-3.8,17.26-12.08v-93.9c0-17.95-7.6-28.65-23.13-28.65c-10.7,0-18.99,6.9-27.62,17.61V235.1
		c0,8.29,5.18,11.74,17.26,12.08v4.14H243.2V247.18z"/>
	<path class="st0" d="M454.82,247.18c19.68-0.35,23.48-3.8,23.48-12.08V115.65c0-10.36-3.8-16.57-23.48-16.92v-4.14l75.95-4.14
		v32.45c10.7-21.06,29.34-33.49,48.33-33.49c21.4,0,33.14,13.12,33.14,31.07s-11.39,30.38-27.27,30.38
		c-18.64,0-29.34-13.12-29.34-26.93c0-5.18,1.38-11.05,2.76-15.53c-8.29,0.69-20.02,9.67-26.93,21.4V235.1
		c0,8.29,5.18,11.05,31.76,12.08v4.14h-108.4V247.18z"/>
	<path class="st0" d="M622.94,171.57c0-51.44,33.14-83.2,85.96-83.2c54.2,0,85.62,30.38,85.62,81.82
		c0,51.78-33.14,83.89-85.62,83.89C654.01,254.08,622.94,223.36,622.94,171.57z M738.24,170.88c0-46.61-7.59-75.6-31.07-75.6
		c-23.13,0-27.96,29-27.96,75.6c0,46.6,7.59,76.29,31.07,76.29C733.06,247.18,738.24,217.49,738.24,170.88z"/>
	<path class="st0" d="M810.39,247.18c19.68-0.35,23.48-3.8,23.48-12.08V115.65c0-10.36-3.8-16.57-23.48-16.92v-4.14l75.95-4.14v32.8
		c14.5-20.37,37.63-33.83,59.72-33.83c30.72,0,43.84,18.3,43.84,51.44v94.25c0,8.29,3.45,11.74,23.13,12.08v4.14h-93.9v-4.14
		c12.08-0.35,17.61-3.8,17.61-12.08v-93.9c0-17.95-6.56-28.65-22.09-28.65c-10.7,0-18.99,6.9-27.62,17.61V235.1
		c0,8.29,5.18,11.74,16.92,12.08v4.14h-93.56V247.18z"/>
	<path class="st0" d="M1021.31,247.18c19.68-0.35,24.86-3.8,24.86-12.08V115.65c0-10.36-5.18-16.57-24.86-16.92v-4.14l78.02-4.14
		V235.1c0,8.29,3.11,11.74,23.13,12.08v4.14h-101.15V247.18z M1041.34,37.28c0-18.99,12.43-31.41,30.72-31.41
		c18.64,0,30.72,11.74,30.72,30.03c0,18.99-12.08,31.07-30.72,31.07C1053.77,66.97,1041.34,56.27,1041.34,37.28z"/>
	<path class="st0" d="M1135.24,173.65c0-54.2,37.28-85.27,88.03-85.27c49.37,0,67.32,21.4,67.32,39.36
		c0,16.57-9.67,27.96-26.93,27.96c-19.33,0-28.65-12.43-28.65-26.24c0-11.39,6.9-20.02,13.46-23.13
		c-3.11-5.87-11.05-11.74-23.48-11.74c-21.4,0-33.49,30.38-33.49,75.6c0,35.21,13.46,69.39,46.95,69.39
		c17.61,0,37.63-10.36,50.4-27.96l3.8,2.42c-16.23,25.2-38.66,40.05-72.5,40.05C1167.34,254.08,1135.24,224.74,1135.24,173.65z"/>
	<path class="st0" d="M1301.97,247.18c19.33-0.35,23.13-3.8,23.13-12.08V29c0-10.36-3.45-16.57-24.51-16.92V7.94l77.67-4.14v231.3
		c0,8.29,3.45,11.74,23.13,12.08v4.14h-99.42V247.18z"/>
	<path class="st0" d="M1413.82,173.65c0-54.2,37.63-85.27,84.58-85.27c49.37,0,75.95,32.11,73.53,79.75h-102.19v4.83v0.69
		c0,43.5,17.61,65.59,50.75,65.59c20.37,0,34.18-10.01,46.95-27.62l3.8,2.42c-16.23,25.2-38.67,40.05-72.5,40.05
		C1448.34,254.08,1413.82,226.12,1413.82,173.65z M1469.75,161.22h49.02c4.49-40.05-3.45-65.94-22.44-65.94
		C1478.38,95.28,1471.13,120.48,1469.75,161.22z"/>
</g>
</svg>
