<?xml version="1.0" encoding="UTF-8" standalone="no"?><svg xmlns="http://www.w3.org/2000/svg" xmlns:xlink="http://www.w3.org/1999/xlink" contentStyleType="text/css" height="134px" preserveAspectRatio="none" style="width:153px;height:134px;background:#FFFFFF;" version="1.1" viewBox="0 0 153 134" width="153px" zoomAndPan="magnify"><defs/><g><!--MD5=[c881b25adf3665c6568c9693d41a70f3]
class Activity--><g id="elem_Activity"><rect codeLine="1" fill="#F1F1F1" height="113.1875" id="Activity" rx="2.5" ry="2.5" style="stroke:#181818;stroke-width:0.5;" width="132" x="7" y="7"/><ellipse cx="43.6" cy="23" fill="#A9DCDF" rx="11" ry="11" style="stroke:#181818;stroke-width:1.0;"/><path d="M45.6781,24.8125 L46.0688,25.7969 L45.6781,25.7969 C45.225,25.7969 45.1156,25.8125 44.9594,25.9219 C44.7094,26.0781 44.5531,26.3594 44.5531,26.6563 C44.5531,26.9219 44.6938,27.1719 44.9125,27.3281 C45.0531,27.4531 45.2563,27.5 45.6781,27.5 L48.0375,27.5 C48.3969,27.5 48.6156,27.4688 48.7563,27.375 C49.0063,27.2344 49.1625,26.9375 49.1625,26.6563 C49.1625,26.375 49.0219,26.125 48.8031,25.9688 C48.6313,25.8281 48.475,25.7969 48.0063,25.7969 L44.6156,17.5938 L40.9438,17.5938 C40.4906,17.5938 40.3656,17.6094 40.2094,17.7031 C39.9594,17.875 39.8031,18.1563 39.8031,18.4375 C39.8031,18.7188 39.9438,18.9688 40.1625,19.1406 C40.3344,19.25 40.5063,19.2813 40.9438,19.2813 L42.0219,19.2813 L39.3813,25.7969 C38.9594,25.7969 38.8031,25.8125 38.6469,25.9219 C38.3969,26.0781 38.2406,26.3594 38.2406,26.6563 C38.2406,27.2188 38.6156,27.5 39.3656,27.5 L41.6313,27.5 C41.9906,27.5 42.2094,27.4688 42.3344,27.375 C42.6,27.2344 42.7406,26.9375 42.7406,26.6563 C42.7406,26.375 42.6156,26.125 42.3969,25.9531 C42.225,25.8281 42.0844,25.7969 41.6313,25.7969 L41.2406,25.7969 L41.6313,24.8125 L45.6781,24.8125 Z M44.975,23.1094 L42.3031,23.1094 L43.6469,19.8438 L44.975,23.1094 Z " fill="#000000"/><text fill="#000000" font-family="sans-serif" font-size="14" font-style="italic" lengthAdjust="spacing" textLength="52" x="62.4" y="27.8467">Activity</text><line style="stroke:#181818;stroke-width:0.5;" x1="8" x2="138" y1="39" y2="39"/><ellipse cx="18" cy="50" fill="none" rx="3" ry="3" style="stroke:#038048;stroke-width:1.0;"/><text fill="#000000" font-family="sans-serif" font-size="14" lengthAdjust="spacing" textLength="13" x="27" y="55.9951">id</text><ellipse cx="18" cy="66.2969" fill="none" rx="3" ry="3" style="stroke:#038048;stroke-width:1.0;"/><text fill="#000000" font-family="sans-serif" font-size="14" lengthAdjust="spacing" textLength="40" x="27" y="72.292">name</text><ellipse cx="18" cy="82.5938" fill="none" rx="3" ry="3" style="stroke:#038048;stroke-width:1.0;"/><text fill="#000000" font-family="sans-serif" font-size="14" lengthAdjust="spacing" textLength="106" x="27" y="88.5889">startedAtTime</text><ellipse cx="18" cy="98.8906" fill="none" rx="3" ry="3" style="stroke:#038048;stroke-width:1.0;"/><text fill="#000000" font-family="sans-serif" font-size="14" lengthAdjust="spacing" textLength="98" x="27" y="104.8857">endedAtTime</text><line style="stroke:#181818;stroke-width:0.5;" x1="8" x2="138" y1="112.1875" y2="112.1875"/></g><!--MD5=[861e78ee2f297a678051c26d6e0996cf]
@startuml
abstract Activity {
+ id
+ name
+ startedAtTime
+ endedAtTime
}
@enduml

PlantUML version 1.2022.7beta2(Unknown compile time)
(GPL source distribution)
Java Runtime: Java(TM) SE Runtime Environment
JVM: Java HotSpot(TM) 64-Bit Server VM
Default Encoding: UTF-8
Language: en
Country: US
--></g></svg>