<?xml version="1.0" encoding="UTF-8" standalone="no"?><svg xmlns="http://www.w3.org/2000/svg" xmlns:xlink="http://www.w3.org/1999/xlink" contentStyleType="text/css" height="127px" preserveAspectRatio="none" style="width:458px;height:127px;background:#FFFFFF;" version="1.1" viewBox="0 0 458 127" width="458px" zoomAndPan="magnify"><defs/><g><!--MD5=[9d44916250b776386006c440668bcfbb]
class Agent--><g id="elem_Agent"><rect codeLine="1" fill="#F1F1F1" height="80.5938" id="Agent" rx="2.5" ry="2.5" style="stroke:#181818;stroke-width:0.5;" width="74" x="7" y="23"/><ellipse cx="22" cy="39" fill="#A9DCDF" rx="11" ry="11" style="stroke:#181818;stroke-width:1.0;"/><path d="M24.0781,40.8125 L24.4688,41.7969 L24.0781,41.7969 C23.625,41.7969 23.5156,41.8125 23.3594,41.9219 C23.1094,42.0781 22.9531,42.3594 22.9531,42.6563 C22.9531,42.9219 23.0938,43.1719 23.3125,43.3281 C23.4531,43.4531 23.6563,43.5 24.0781,43.5 L26.4375,43.5 C26.7969,43.5 27.0156,43.4688 27.1563,43.375 C27.4063,43.2344 27.5625,42.9375 27.5625,42.6563 C27.5625,42.375 27.4219,42.125 27.2031,41.9688 C27.0313,41.8281 26.875,41.7969 26.4063,41.7969 L23.0156,33.5938 L19.3438,33.5938 C18.8906,33.5938 18.7656,33.6094 18.6094,33.7031 C18.3594,33.875 18.2031,34.1563 18.2031,34.4375 C18.2031,34.7188 18.3438,34.9688 18.5625,35.1406 C18.7344,35.25 18.9063,35.2813 19.3438,35.2813 L20.4219,35.2813 L17.7813,41.7969 C17.3594,41.7969 17.2031,41.8125 17.0469,41.9219 C16.7969,42.0781 16.6406,42.3594 16.6406,42.6563 C16.6406,43.2188 17.0156,43.5 17.7656,43.5 L20.0313,43.5 C20.3906,43.5 20.6094,43.4688 20.7344,43.375 C21,43.2344 21.1406,42.9375 21.1406,42.6563 C21.1406,42.375 21.0156,42.125 20.7969,41.9531 C20.625,41.8281 20.4844,41.7969 20.0313,41.7969 L19.6406,41.7969 L20.0313,40.8125 L24.0781,40.8125 Z M23.375,39.1094 L20.7031,39.1094 L22.0469,35.8438 L23.375,39.1094 Z " fill="#000000"/><text fill="#000000" font-family="sans-serif" font-size="14" font-style="italic" lengthAdjust="spacing" textLength="42" x="36" y="43.8467">Agent</text><line style="stroke:#181818;stroke-width:0.5;" x1="8" x2="80" y1="55" y2="55"/><ellipse cx="18" cy="66" fill="none" rx="3" ry="3" style="stroke:#038048;stroke-width:1.0;"/><text fill="#000000" font-family="sans-serif" font-size="14" lengthAdjust="spacing" textLength="13" x="27" y="71.9951">id</text><ellipse cx="18" cy="82.2969" fill="none" rx="3" ry="3" style="stroke:#038048;stroke-width:1.0;"/><text fill="#000000" font-family="sans-serif" font-size="14" lengthAdjust="spacing" textLength="40" x="27" y="88.292">name</text><line style="stroke:#181818;stroke-width:0.5;" x1="8" x2="80" y1="95.5938" y2="95.5938"/></g><!--MD5=[c881b25adf3665c6568c9693d41a70f3]
class Activity--><g id="elem_Activity"><rect codeLine="6" fill="#F1F1F1" height="113.1875" id="Activity" rx="2.5" ry="2.5" style="stroke:#181818;stroke-width:0.5;" width="132" x="319" y="7"/><ellipse cx="355.6" cy="23" fill="#A9DCDF" rx="11" ry="11" style="stroke:#181818;stroke-width:1.0;"/><path d="M357.6781,24.8125 L358.0688,25.7969 L357.6781,25.7969 C357.225,25.7969 357.1156,25.8125 356.9594,25.9219 C356.7094,26.0781 356.5531,26.3594 356.5531,26.6563 C356.5531,26.9219 356.6938,27.1719 356.9125,27.3281 C357.0531,27.4531 357.2563,27.5 357.6781,27.5 L360.0375,27.5 C360.3969,27.5 360.6156,27.4688 360.7563,27.375 C361.0063,27.2344 361.1625,26.9375 361.1625,26.6563 C361.1625,26.375 361.0219,26.125 360.8031,25.9688 C360.6313,25.8281 360.475,25.7969 360.0063,25.7969 L356.6156,17.5938 L352.9438,17.5938 C352.4906,17.5938 352.3656,17.6094 352.2094,17.7031 C351.9594,17.875 351.8031,18.1563 351.8031,18.4375 C351.8031,18.7188 351.9438,18.9688 352.1625,19.1406 C352.3344,19.25 352.5063,19.2813 352.9438,19.2813 L354.0219,19.2813 L351.3813,25.7969 C350.9594,25.7969 350.8031,25.8125 350.6469,25.9219 C350.3969,26.0781 350.2406,26.3594 350.2406,26.6563 C350.2406,27.2188 350.6156,27.5 351.3656,27.5 L353.6313,27.5 C353.9906,27.5 354.2094,27.4688 354.3344,27.375 C354.6,27.2344 354.7406,26.9375 354.7406,26.6563 C354.7406,26.375 354.6156,26.125 354.3969,25.9531 C354.225,25.8281 354.0844,25.7969 353.6313,25.7969 L353.2406,25.7969 L353.6313,24.8125 L357.6781,24.8125 Z M356.975,23.1094 L354.3031,23.1094 L355.6469,19.8438 L356.975,23.1094 Z " fill="#000000"/><text fill="#000000" font-family="sans-serif" font-size="14" font-style="italic" lengthAdjust="spacing" textLength="52" x="374.4" y="27.8467">Activity</text><line style="stroke:#181818;stroke-width:0.5;" x1="320" x2="450" y1="39" y2="39"/><ellipse cx="330" cy="50" fill="none" rx="3" ry="3" style="stroke:#038048;stroke-width:1.0;"/><text fill="#000000" font-family="sans-serif" font-size="14" lengthAdjust="spacing" textLength="13" x="339" y="55.9951">id</text><ellipse cx="330" cy="66.2969" fill="none" rx="3" ry="3" style="stroke:#038048;stroke-width:1.0;"/><text fill="#000000" font-family="sans-serif" font-size="14" lengthAdjust="spacing" textLength="40" x="339" y="72.292">name</text><ellipse cx="330" cy="82.5938" fill="none" rx="3" ry="3" style="stroke:#038048;stroke-width:1.0;"/><text fill="#000000" font-family="sans-serif" font-size="14" lengthAdjust="spacing" textLength="106" x="339" y="88.5889">startedAtTime</text><ellipse cx="330" cy="98.8906" fill="none" rx="3" ry="3" style="stroke:#038048;stroke-width:1.0;"/><text fill="#000000" font-family="sans-serif" font-size="14" lengthAdjust="spacing" textLength="98" x="339" y="104.8857">endedAtTime</text><line style="stroke:#181818;stroke-width:0.5;" x1="320" x2="450" y1="112.1875" y2="112.1875"/></g><!--MD5=[259910b4a48a7fc2d2e54f6bf9fb7911]
class wasAssociatedWith--><g id="elem_wasAssociatedWith"><rect codeLine="14" fill="#F1F1F1" height="64.2969" id="wasAssociatedWith" rx="2.5" ry="2.5" style="stroke:#181818;stroke-width:0.5;" width="168" x="116" y="31.5"/><ellipse cx="131" cy="47.5" fill="#A9DCDF" rx="11" ry="11" style="stroke:#181818;stroke-width:1.0;"/><path d="M133.0781,49.3125 L133.4688,50.2969 L133.0781,50.2969 C132.625,50.2969 132.5156,50.3125 132.3594,50.4219 C132.1094,50.5781 131.9531,50.8594 131.9531,51.1563 C131.9531,51.4219 132.0938,51.6719 132.3125,51.8281 C132.4531,51.9531 132.6563,52 133.0781,52 L135.4375,52 C135.7969,52 136.0156,51.9688 136.1563,51.875 C136.4063,51.7344 136.5625,51.4375 136.5625,51.1563 C136.5625,50.875 136.4219,50.625 136.2031,50.4688 C136.0313,50.3281 135.875,50.2969 135.4063,50.2969 L132.0156,42.0938 L128.3438,42.0938 C127.8906,42.0938 127.7656,42.1094 127.6094,42.2031 C127.3594,42.375 127.2031,42.6563 127.2031,42.9375 C127.2031,43.2188 127.3438,43.4688 127.5625,43.6406 C127.7344,43.75 127.9063,43.7813 128.3438,43.7813 L129.4219,43.7813 L126.7813,50.2969 C126.3594,50.2969 126.2031,50.3125 126.0469,50.4219 C125.7969,50.5781 125.6406,50.8594 125.6406,51.1563 C125.6406,51.7188 126.0156,52 126.7656,52 L129.0313,52 C129.3906,52 129.6094,51.9688 129.7344,51.875 C130,51.7344 130.1406,51.4375 130.1406,51.1563 C130.1406,50.875 130.0156,50.625 129.7969,50.4531 C129.625,50.3281 129.4844,50.2969 129.0313,50.2969 L128.6406,50.2969 L129.0313,49.3125 L133.0781,49.3125 Z M132.375,47.6094 L129.7031,47.6094 L131.0469,44.3438 L132.375,47.6094 Z " fill="#000000"/><text fill="#000000" font-family="sans-serif" font-size="14" font-style="italic" lengthAdjust="spacing" textLength="136" x="145" y="52.3467">wasAssociatedWith</text><line style="stroke:#181818;stroke-width:0.5;" x1="117" x2="283" y1="63.5" y2="63.5"/><ellipse cx="127" cy="74.5" fill="none" rx="3" ry="3" style="stroke:#038048;stroke-width:1.0;"/><text fill="#000000" font-family="sans-serif" font-size="14" lengthAdjust="spacing" textLength="28" x="136" y="80.4951">role</text><line style="stroke:#181818;stroke-width:0.5;" x1="117" x2="283" y1="87.7969" y2="87.7969"/></g><!--MD5=[2d79b49591ed9f3a373df373eef93dde]
link Agent to wasAssociatedWith--><g id="link_Agent_wasAssociatedWith"><path codeLine="18" d="M81.1719,63.5 C91.0537,63.5 100.9355,63.5 110.817,63.5 " fill="none" id="Agent-to-wasAssociatedWith" style="stroke:#181818;stroke-width:1.0;"/><polygon fill="#181818" points="115.985,63.5,106.985,59.5,110.985,63.5,106.985,67.5,115.985,63.5" style="stroke:#181818;stroke-width:1.0;"/></g><!--MD5=[e690ba3db0f73f24541c0732078fa613]
link wasAssociatedWith to Activity--><g id="link_wasAssociatedWith_Activity"><path codeLine="19" d="M284.189,63.5 C294.026,63.5 303.863,63.5 313.699,63.5 " fill="none" id="wasAssociatedWith-to-Activity" style="stroke:#181818;stroke-width:1.0;"/><polygon fill="#181818" points="318.843,63.5,309.843,59.5,313.843,63.5,309.843,67.5,318.843,63.5" style="stroke:#181818;stroke-width:1.0;"/></g><!--MD5=[fae1148ff33509f66f14dbd3e35ff8ab]
@startuml
abstract Agent {
+ id
+ name
}

abstract Activity {
+ id
+ name
+ startedAtTime
+ endedAtTime
}


abstract wasAssociatedWith{
+ role
}

Agent -> wasAssociatedWith
wasAssociatedWith -> Activity
@enduml

PlantUML version 1.2022.7beta2(Unknown compile time)
(GPL source distribution)
Java Runtime: Java(TM) SE Runtime Environment
JVM: Java HotSpot(TM) 64-Bit Server VM
Default Encoding: UTF-8
Language: en
Country: US
--></g></svg>