<?xml version="1.0" encoding="UTF-8" standalone="no"?><svg xmlns="http://www.w3.org/2000/svg" xmlns:xlink="http://www.w3.org/1999/xlink" contentStyleType="text/css" height="186px" preserveAspectRatio="none" style="width:278px;height:186px;background:#FFFFFF;" version="1.1" viewBox="0 0 278 186" width="278px" zoomAndPan="magnify"><defs/><g><!--MD5=[c881b25adf3665c6568c9693d41a70f3]
class Activity--><g id="elem_Activity"><rect codeLine="1" fill="#F1F1F1" height="48" id="Activity" rx="2.5" ry="2.5" style="stroke:#181818;stroke-width:0.5;" width="84" x="152" y="131"/><ellipse cx="167" cy="147" fill="#A9DCDF" rx="11" ry="11" style="stroke:#181818;stroke-width:1.0;"/><path d="M169.0781,148.8125 L169.4688,149.7969 L169.0781,149.7969 C168.625,149.7969 168.5156,149.8125 168.3594,149.9219 C168.1094,150.0781 167.9531,150.3594 167.9531,150.6563 C167.9531,150.9219 168.0938,151.1719 168.3125,151.3281 C168.4531,151.4531 168.6563,151.5 169.0781,151.5 L171.4375,151.5 C171.7969,151.5 172.0156,151.4688 172.1563,151.375 C172.4063,151.2344 172.5625,150.9375 172.5625,150.6563 C172.5625,150.375 172.4219,150.125 172.2031,149.9688 C172.0313,149.8281 171.875,149.7969 171.4063,149.7969 L168.0156,141.5938 L164.3438,141.5938 C163.8906,141.5938 163.7656,141.6094 163.6094,141.7031 C163.3594,141.875 163.2031,142.1563 163.2031,142.4375 C163.2031,142.7188 163.3438,142.9688 163.5625,143.1406 C163.7344,143.25 163.9063,143.2813 164.3438,143.2813 L165.4219,143.2813 L162.7813,149.7969 C162.3594,149.7969 162.2031,149.8125 162.0469,149.9219 C161.7969,150.0781 161.6406,150.3594 161.6406,150.6563 C161.6406,151.2188 162.0156,151.5 162.7656,151.5 L165.0313,151.5 C165.3906,151.5 165.6094,151.4688 165.7344,151.375 C166,151.2344 166.1406,150.9375 166.1406,150.6563 C166.1406,150.375 166.0156,150.125 165.7969,149.9531 C165.625,149.8281 165.4844,149.7969 165.0313,149.7969 L164.6406,149.7969 L165.0313,148.8125 L169.0781,148.8125 Z M168.375,147.1094 L165.7031,147.1094 L167.0469,143.8438 L168.375,147.1094 Z " fill="#000000"/><text fill="#000000" font-family="sans-serif" font-size="14" font-style="italic" lengthAdjust="spacing" textLength="52" x="181" y="151.8467">Activity</text><line style="stroke:#181818;stroke-width:0.5;" x1="153" x2="235" y1="163" y2="163"/><line style="stroke:#181818;stroke-width:0.5;" x1="153" x2="235" y1="171" y2="171"/></g><!--MD5=[9d44916250b776386006c440668bcfbb]
class Agent--><g id="elem_Agent"><rect codeLine="2" fill="#F1F1F1" height="48" id="Agent" rx="2.5" ry="2.5" style="stroke:#181818;stroke-width:0.5;" width="74" x="7" y="15"/><ellipse cx="22" cy="31" fill="#A9DCDF" rx="11" ry="11" style="stroke:#181818;stroke-width:1.0;"/><path d="M24.0781,32.8125 L24.4688,33.7969 L24.0781,33.7969 C23.625,33.7969 23.5156,33.8125 23.3594,33.9219 C23.1094,34.0781 22.9531,34.3594 22.9531,34.6563 C22.9531,34.9219 23.0938,35.1719 23.3125,35.3281 C23.4531,35.4531 23.6563,35.5 24.0781,35.5 L26.4375,35.5 C26.7969,35.5 27.0156,35.4688 27.1563,35.375 C27.4063,35.2344 27.5625,34.9375 27.5625,34.6563 C27.5625,34.375 27.4219,34.125 27.2031,33.9688 C27.0313,33.8281 26.875,33.7969 26.4063,33.7969 L23.0156,25.5938 L19.3438,25.5938 C18.8906,25.5938 18.7656,25.6094 18.6094,25.7031 C18.3594,25.875 18.2031,26.1563 18.2031,26.4375 C18.2031,26.7188 18.3438,26.9688 18.5625,27.1406 C18.7344,27.25 18.9063,27.2813 19.3438,27.2813 L20.4219,27.2813 L17.7813,33.7969 C17.3594,33.7969 17.2031,33.8125 17.0469,33.9219 C16.7969,34.0781 16.6406,34.3594 16.6406,34.6563 C16.6406,35.2188 17.0156,35.5 17.7656,35.5 L20.0313,35.5 C20.3906,35.5 20.6094,35.4688 20.7344,35.375 C21,35.2344 21.1406,34.9375 21.1406,34.6563 C21.1406,34.375 21.0156,34.125 20.7969,33.9531 C20.625,33.8281 20.4844,33.7969 20.0313,33.7969 L19.6406,33.7969 L20.0313,32.8125 L24.0781,32.8125 Z M23.375,31.1094 L20.7031,31.1094 L22.0469,27.8438 L23.375,31.1094 Z " fill="#000000"/><text fill="#000000" font-family="sans-serif" font-size="14" font-style="italic" lengthAdjust="spacing" textLength="42" x="36" y="35.8467">Agent</text><line style="stroke:#181818;stroke-width:0.5;" x1="8" x2="80" y1="47" y2="47"/><line style="stroke:#181818;stroke-width:0.5;" x1="8" x2="80" y1="55" y2="55"/></g><!--MD5=[9ed88d66710c1500a9399f9ba83ca1da]
class ActedOnBehalfOf--><g id="elem_ActedOnBehalfOf"><rect codeLine="3" fill="#F1F1F1" height="64.2969" id="ActedOnBehalfOf" rx="2.5" ry="2.5" style="stroke:#181818;stroke-width:0.5;" width="155" x="116.5" y="7"/><ellipse cx="131.5" cy="23" fill="#A9DCDF" rx="11" ry="11" style="stroke:#181818;stroke-width:1.0;"/><path d="M133.5781,24.8125 L133.9688,25.7969 L133.5781,25.7969 C133.125,25.7969 133.0156,25.8125 132.8594,25.9219 C132.6094,26.0781 132.4531,26.3594 132.4531,26.6563 C132.4531,26.9219 132.5938,27.1719 132.8125,27.3281 C132.9531,27.4531 133.1563,27.5 133.5781,27.5 L135.9375,27.5 C136.2969,27.5 136.5156,27.4688 136.6563,27.375 C136.9063,27.2344 137.0625,26.9375 137.0625,26.6563 C137.0625,26.375 136.9219,26.125 136.7031,25.9688 C136.5313,25.8281 136.375,25.7969 135.9063,25.7969 L132.5156,17.5938 L128.8438,17.5938 C128.3906,17.5938 128.2656,17.6094 128.1094,17.7031 C127.8594,17.875 127.7031,18.1563 127.7031,18.4375 C127.7031,18.7188 127.8438,18.9688 128.0625,19.1406 C128.2344,19.25 128.4063,19.2813 128.8438,19.2813 L129.9219,19.2813 L127.2813,25.7969 C126.8594,25.7969 126.7031,25.8125 126.5469,25.9219 C126.2969,26.0781 126.1406,26.3594 126.1406,26.6563 C126.1406,27.2188 126.5156,27.5 127.2656,27.5 L129.5313,27.5 C129.8906,27.5 130.1094,27.4688 130.2344,27.375 C130.5,27.2344 130.6406,26.9375 130.6406,26.6563 C130.6406,26.375 130.5156,26.125 130.2969,25.9531 C130.125,25.8281 129.9844,25.7969 129.5313,25.7969 L129.1406,25.7969 L129.5313,24.8125 L133.5781,24.8125 Z M132.875,23.1094 L130.2031,23.1094 L131.5469,19.8438 L132.875,23.1094 Z " fill="#000000"/><text fill="#000000" font-family="sans-serif" font-size="14" font-style="italic" lengthAdjust="spacing" textLength="123" x="145.5" y="27.8467">ActedOnBehalfOf</text><line style="stroke:#181818;stroke-width:0.5;" x1="117.5" x2="270.5" y1="39" y2="39"/><ellipse cx="127.5" cy="50" fill="none" rx="3" ry="3" style="stroke:#038048;stroke-width:1.0;"/><text fill="#000000" font-family="sans-serif" font-size="14" lengthAdjust="spacing" textLength="32" x="136.5" y="55.9951">Role</text><line style="stroke:#181818;stroke-width:0.5;" x1="117.5" x2="270.5" y1="63.2969" y2="63.2969"/></g><!--MD5=[a9c3b20c66fb56e2872482fb0142f69c]
link Agent to ActedOnBehalfOf--><g id="link_Agent_ActedOnBehalfOf"><path codeLine="7" d="M81.207,52.429 C91.2123,54.849 101.2175,56.308 111.223,56.806 " fill="none" id="Agent-to-ActedOnBehalfOf" style="stroke:#181818;stroke-width:1.0;"/><polygon fill="#181818" points="116.455,56.979,107.5913,52.6854,111.4577,56.8147,107.3284,60.6811,116.455,56.979" style="stroke:#181818;stroke-width:1.0;"/></g><!--MD5=[5e77998e2111387f94453b95ea3fad4e]
link ActedOnBehalfOf to Agent--><g id="link_ActedOnBehalfOf_Agent"><path codeLine="8" d="M116.455,21.021 C106.3578,21.185 96.2608,22.328 86.1638,24.45 " fill="none" id="ActedOnBehalfOf-to-Agent" style="stroke:#181818;stroke-width:1.0;"/><polygon fill="#181818" points="81.207,25.571,90.8674,27.4885,86.084,24.4687,89.1038,19.6854,81.207,25.571" style="stroke:#181818;stroke-width:1.0;"/></g><!--MD5=[d1d6c7b7c78e8b1d8331d23348ef2d90]
link ActedOnBehalfOf to Activity--><g id="link_ActedOnBehalfOf_Activity"><path codeLine="9" d="M194,71.151 C194,88.0905 194,108.8942 194,125.417 " fill="none" id="ActedOnBehalfOf-to-Activity" style="stroke:#181818;stroke-width:1.0;stroke-dasharray:7.0,7.0;"/><polygon fill="#181818" points="194,130.8446,198,121.8446,194,125.8446,190,121.8446,194,130.8446" style="stroke:#181818;stroke-width:1.0;"/></g><!--MD5=[29f3ef8ca3e1ef39953bd735aa66c5b9]
@startuml
abstract Activity
abstract Agent
abstract ActedOnBehalfOf {
+ Role
}

Agent -> ActedOnBehalfOf
ActedOnBehalfOf -> Agent
ActedOnBehalfOf ..> Activity
@enduml

PlantUML version 1.2022.7beta2(Unknown compile time)
(GPL source distribution)
Java Runtime: Java(TM) SE Runtime Environment
JVM: Java HotSpot(TM) 64-Bit Server VM
Default Encoding: UTF-8
Language: en
Country: US
--></g></svg>