<?xml version="1.0" encoding="UTF-8" standalone="no"?><svg xmlns="http://www.w3.org/2000/svg" xmlns:xlink="http://www.w3.org/1999/xlink" contentStyleType="text/css" height="268px" preserveAspectRatio="none" style="width:277px;height:268px;background:#FFFFFF;" version="1.1" viewBox="0 0 277 268" width="277px" zoomAndPan="magnify"><defs/><g><!--MD5=[9d44916250b776386006c440668bcfbb]
class Agent--><g id="elem_Agent"><rect codeLine="1" fill="#F1F1F1" height="80.5938" id="Agent" rx="2.5" ry="2.5" style="stroke:#181818;stroke-width:0.5;" width="74" x="7" y="7"/><ellipse cx="22" cy="23" fill="#A9DCDF" rx="11" ry="11" style="stroke:#181818;stroke-width:1.0;"/><path d="M24.0781,24.8125 L24.4688,25.7969 L24.0781,25.7969 C23.625,25.7969 23.5156,25.8125 23.3594,25.9219 C23.1094,26.0781 22.9531,26.3594 22.9531,26.6563 C22.9531,26.9219 23.0938,27.1719 23.3125,27.3281 C23.4531,27.4531 23.6563,27.5 24.0781,27.5 L26.4375,27.5 C26.7969,27.5 27.0156,27.4688 27.1563,27.375 C27.4063,27.2344 27.5625,26.9375 27.5625,26.6563 C27.5625,26.375 27.4219,26.125 27.2031,25.9688 C27.0313,25.8281 26.875,25.7969 26.4063,25.7969 L23.0156,17.5938 L19.3438,17.5938 C18.8906,17.5938 18.7656,17.6094 18.6094,17.7031 C18.3594,17.875 18.2031,18.1563 18.2031,18.4375 C18.2031,18.7188 18.3438,18.9688 18.5625,19.1406 C18.7344,19.25 18.9063,19.2813 19.3438,19.2813 L20.4219,19.2813 L17.7813,25.7969 C17.3594,25.7969 17.2031,25.8125 17.0469,25.9219 C16.7969,26.0781 16.6406,26.3594 16.6406,26.6563 C16.6406,27.2188 17.0156,27.5 17.7656,27.5 L20.0313,27.5 C20.3906,27.5 20.6094,27.4688 20.7344,27.375 C21,27.2344 21.1406,26.9375 21.1406,26.6563 C21.1406,26.375 21.0156,26.125 20.7969,25.9531 C20.625,25.8281 20.4844,25.7969 20.0313,25.7969 L19.6406,25.7969 L20.0313,24.8125 L24.0781,24.8125 Z M23.375,23.1094 L20.7031,23.1094 L22.0469,19.8438 L23.375,23.1094 Z " fill="#000000"/><text fill="#000000" font-family="sans-serif" font-size="14" font-style="italic" lengthAdjust="spacing" textLength="42" x="36" y="27.8467">Agent</text><line style="stroke:#181818;stroke-width:0.5;" x1="8" x2="80" y1="39" y2="39"/><ellipse cx="18" cy="50" fill="none" rx="3" ry="3" style="stroke:#038048;stroke-width:1.0;"/><text fill="#000000" font-family="sans-serif" font-size="14" lengthAdjust="spacing" textLength="13" x="27" y="55.9951">id</text><ellipse cx="18" cy="66.2969" fill="none" rx="3" ry="3" style="stroke:#038048;stroke-width:1.0;"/><text fill="#000000" font-family="sans-serif" font-size="14" lengthAdjust="spacing" textLength="40" x="27" y="72.292">name</text><line style="stroke:#181818;stroke-width:0.5;" x1="8" x2="80" y1="79.5938" y2="79.5938"/></g><!--MD5=[c881b25adf3665c6568c9693d41a70f3]
class Activity--><g id="elem_Activity"><rect codeLine="6" fill="#F1F1F1" height="113.1875" id="Activity" rx="2.5" ry="2.5" style="stroke:#181818;stroke-width:0.5;" width="132" x="127" y="148"/><ellipse cx="163.6" cy="164" fill="#A9DCDF" rx="11" ry="11" style="stroke:#181818;stroke-width:1.0;"/><path d="M165.6781,165.8125 L166.0688,166.7969 L165.6781,166.7969 C165.225,166.7969 165.1156,166.8125 164.9594,166.9219 C164.7094,167.0781 164.5531,167.3594 164.5531,167.6563 C164.5531,167.9219 164.6938,168.1719 164.9125,168.3281 C165.0531,168.4531 165.2563,168.5 165.6781,168.5 L168.0375,168.5 C168.3969,168.5 168.6156,168.4688 168.7563,168.375 C169.0063,168.2344 169.1625,167.9375 169.1625,167.6563 C169.1625,167.375 169.0219,167.125 168.8031,166.9688 C168.6313,166.8281 168.475,166.7969 168.0063,166.7969 L164.6156,158.5938 L160.9438,158.5938 C160.4906,158.5938 160.3656,158.6094 160.2094,158.7031 C159.9594,158.875 159.8031,159.1563 159.8031,159.4375 C159.8031,159.7188 159.9438,159.9688 160.1625,160.1406 C160.3344,160.25 160.5063,160.2813 160.9438,160.2813 L162.0219,160.2813 L159.3813,166.7969 C158.9594,166.7969 158.8031,166.8125 158.6469,166.9219 C158.3969,167.0781 158.2406,167.3594 158.2406,167.6563 C158.2406,168.2188 158.6156,168.5 159.3656,168.5 L161.6313,168.5 C161.9906,168.5 162.2094,168.4688 162.3344,168.375 C162.6,168.2344 162.7406,167.9375 162.7406,167.6563 C162.7406,167.375 162.6156,167.125 162.3969,166.9531 C162.225,166.8281 162.0844,166.7969 161.6313,166.7969 L161.2406,166.7969 L161.6313,165.8125 L165.6781,165.8125 Z M164.975,164.1094 L162.3031,164.1094 L163.6469,160.8438 L164.975,164.1094 Z " fill="#000000"/><text fill="#000000" font-family="sans-serif" font-size="14" font-style="italic" lengthAdjust="spacing" textLength="52" x="182.4" y="168.8467">Activity</text><line style="stroke:#181818;stroke-width:0.5;" x1="128" x2="258" y1="180" y2="180"/><ellipse cx="138" cy="191" fill="none" rx="3" ry="3" style="stroke:#038048;stroke-width:1.0;"/><text fill="#000000" font-family="sans-serif" font-size="14" lengthAdjust="spacing" textLength="13" x="147" y="196.9951">id</text><ellipse cx="138" cy="207.2969" fill="none" rx="3" ry="3" style="stroke:#038048;stroke-width:1.0;"/><text fill="#000000" font-family="sans-serif" font-size="14" lengthAdjust="spacing" textLength="40" x="147" y="213.292">name</text><ellipse cx="138" cy="223.5938" fill="none" rx="3" ry="3" style="stroke:#038048;stroke-width:1.0;"/><text fill="#000000" font-family="sans-serif" font-size="14" lengthAdjust="spacing" textLength="106" x="147" y="229.5889">startedAtTime</text><ellipse cx="138" cy="239.8906" fill="none" rx="3" ry="3" style="stroke:#038048;stroke-width:1.0;"/><text fill="#000000" font-family="sans-serif" font-size="14" lengthAdjust="spacing" textLength="98" x="147" y="245.8857">endedAtTime</text><line style="stroke:#181818;stroke-width:0.5;" x1="128" x2="258" y1="253.1875" y2="253.1875"/></g><!--MD5=[a5fdf4ea0872bb7aae15b733aaa9c569]
class actedOnBehalfOf--><g id="elem_actedOnBehalfOf"><rect codeLine="14" fill="#F1F1F1" height="64.2969" id="actedOnBehalfOf" rx="2.5" ry="2.5" style="stroke:#181818;stroke-width:0.5;" width="154" x="116" y="15.5"/><ellipse cx="131" cy="31.5" fill="#A9DCDF" rx="11" ry="11" style="stroke:#181818;stroke-width:1.0;"/><path d="M133.0781,33.3125 L133.4688,34.2969 L133.0781,34.2969 C132.625,34.2969 132.5156,34.3125 132.3594,34.4219 C132.1094,34.5781 131.9531,34.8594 131.9531,35.1563 C131.9531,35.4219 132.0938,35.6719 132.3125,35.8281 C132.4531,35.9531 132.6563,36 133.0781,36 L135.4375,36 C135.7969,36 136.0156,35.9688 136.1563,35.875 C136.4063,35.7344 136.5625,35.4375 136.5625,35.1563 C136.5625,34.875 136.4219,34.625 136.2031,34.4688 C136.0313,34.3281 135.875,34.2969 135.4063,34.2969 L132.0156,26.0938 L128.3438,26.0938 C127.8906,26.0938 127.7656,26.1094 127.6094,26.2031 C127.3594,26.375 127.2031,26.6563 127.2031,26.9375 C127.2031,27.2188 127.3438,27.4688 127.5625,27.6406 C127.7344,27.75 127.9063,27.7813 128.3438,27.7813 L129.4219,27.7813 L126.7813,34.2969 C126.3594,34.2969 126.2031,34.3125 126.0469,34.4219 C125.7969,34.5781 125.6406,34.8594 125.6406,35.1563 C125.6406,35.7188 126.0156,36 126.7656,36 L129.0313,36 C129.3906,36 129.6094,35.9688 129.7344,35.875 C130,35.7344 130.1406,35.4375 130.1406,35.1563 C130.1406,34.875 130.0156,34.625 129.7969,34.4531 C129.625,34.3281 129.4844,34.2969 129.0313,34.2969 L128.6406,34.2969 L129.0313,33.3125 L133.0781,33.3125 Z M132.375,31.6094 L129.7031,31.6094 L131.0469,28.3438 L132.375,31.6094 Z " fill="#000000"/><text fill="#000000" font-family="sans-serif" font-size="14" font-style="italic" lengthAdjust="spacing" textLength="122" x="145" y="36.3467">actedOnBehalfOf</text><line style="stroke:#181818;stroke-width:0.5;" x1="117" x2="269" y1="47.5" y2="47.5"/><ellipse cx="127" cy="58.5" fill="none" rx="3" ry="3" style="stroke:#038048;stroke-width:1.0;"/><text fill="#000000" font-family="sans-serif" font-size="14" lengthAdjust="spacing" textLength="28" x="136" y="64.4951">role</text><line style="stroke:#181818;stroke-width:0.5;" x1="117" x2="269" y1="71.7969" y2="71.7969"/></g><!--MD5=[0483ba39198cee4b8f740215b9132ece]
link Agent to actedOnBehalfOf--><g id="link_Agent_actedOnBehalfOf"><path codeLine="18" d="M81.25,70.281 C91.0388,74.272 100.8276,76.69 110.616,77.535 " fill="none" id="Agent-to-actedOnBehalfOf" style="stroke:#181818;stroke-width:1.0;"/><polygon fill="#181818" points="115.735,77.833,106.9834,73.3152,110.7435,77.5416,106.5172,81.3016,115.735,77.833" style="stroke:#181818;stroke-width:1.0;"/></g><!--MD5=[5ce141417b5e9cdb1ba2c1dcaf0f5315]
link actedOnBehalfOf to Agent--><g id="link_actedOnBehalfOf_Agent"><path codeLine="19" d="M115.735,17.167 C105.8567,17.466 95.9781,19.367 86.0995,22.87 " fill="none" id="actedOnBehalfOf-to-Agent" style="stroke:#181818;stroke-width:1.0;"/><polygon fill="#181818" points="81.25,24.719,91.0845,25.2507,85.922,22.9379,88.2348,17.7754,81.25,24.719" style="stroke:#181818;stroke-width:1.0;"/></g><!--MD5=[1a5b88cada947775482757fa22440fb1]
link actedOnBehalfOf to Activity--><g id="link_actedOnBehalfOf_Activity"><path codeLine="20" d="M193,79.867 C193,97.883 193,121.13 193,142.595 " fill="none" id="actedOnBehalfOf-to-Activity" style="stroke:#181818;stroke-width:1.0;stroke-dasharray:7.0,7.0;"/><polygon fill="#181818" points="193,147.719,197,138.719,193,142.719,189,138.719,193,147.719" style="stroke:#181818;stroke-width:1.0;"/></g><!--MD5=[b259b2a03ec23f7e23e9374abafd6828]
@startuml
abstract Agent {
+ id
+ name
}

abstract Activity {
+ id
+ name
+ startedAtTime
+ endedAtTime
}


abstract actedOnBehalfOf {
+ role
}

Agent -> actedOnBehalfOf
actedOnBehalfOf -> Agent
actedOnBehalfOf ..> Activity
@enduml

PlantUML version 1.2022.7beta2(Unknown compile time)
(GPL source distribution)
Java Runtime: Java(TM) SE Runtime Environment
JVM: Java HotSpot(TM) 64-Bit Server VM
Default Encoding: UTF-8
Language: en
Country: US
--></g></svg>