<?xml version="1.0" encoding="UTF-8" standalone="no"?><svg xmlns="http://www.w3.org/2000/svg" xmlns:xlink="http://www.w3.org/1999/xlink" contentStyleType="text/css" height="337px" preserveAspectRatio="none" style="width:1136px;height:337px;background:#FFFFFF;" version="1.1" viewBox="0 0 1136 337" width="1136px" zoomAndPan="magnify"><defs/><g><!--MD5=[9d44916250b776386006c440668bcfbb]
class Agent--><g id="elem_Agent"><rect codeLine="1" fill="#F1F1F1" height="80.5938" id="Agent" rx="2.5" ry="2.5" style="stroke:#181818;stroke-width:0.5;" width="74" x="10.5" y="233.245"/><ellipse cx="25.5" cy="249.245" fill="#A9DCDF" rx="11" ry="11" style="stroke:#181818;stroke-width:1.0;"/><path d="M27.5781,251.0575 L27.9688,252.0419 L27.5781,252.0419 C27.125,252.0419 27.0156,252.0575 26.8594,252.1669 C26.6094,252.3231 26.4531,252.6044 26.4531,252.9013 C26.4531,253.1669 26.5938,253.4169 26.8125,253.5731 C26.9531,253.6981 27.1563,253.745 27.5781,253.745 L29.9375,253.745 C30.2969,253.745 30.5156,253.7138 30.6563,253.62 C30.9063,253.4794 31.0625,253.1825 31.0625,252.9013 C31.0625,252.62 30.9219,252.37 30.7031,252.2138 C30.5313,252.0731 30.375,252.0419 29.9063,252.0419 L26.5156,243.8388 L22.8438,243.8388 C22.3906,243.8388 22.2656,243.8544 22.1094,243.9481 C21.8594,244.12 21.7031,244.4013 21.7031,244.6825 C21.7031,244.9638 21.8438,245.2138 22.0625,245.3856 C22.2344,245.495 22.4063,245.5263 22.8438,245.5263 L23.9219,245.5263 L21.2813,252.0419 C20.8594,252.0419 20.7031,252.0575 20.5469,252.1669 C20.2969,252.3231 20.1406,252.6044 20.1406,252.9013 C20.1406,253.4638 20.5156,253.745 21.2656,253.745 L23.5313,253.745 C23.8906,253.745 24.1094,253.7138 24.2344,253.62 C24.5,253.4794 24.6406,253.1825 24.6406,252.9013 C24.6406,252.62 24.5156,252.37 24.2969,252.1981 C24.125,252.0731 23.9844,252.0419 23.5313,252.0419 L23.1406,252.0419 L23.5313,251.0575 L27.5781,251.0575 Z M26.875,249.3544 L24.2031,249.3544 L25.5469,246.0888 L26.875,249.3544 Z " fill="#000000"/><text fill="#000000" font-family="sans-serif" font-size="14" font-style="italic" lengthAdjust="spacing" textLength="42" x="39.5" y="254.0917">Agent</text><line style="stroke:#181818;stroke-width:0.5;" x1="11.5" x2="83.5" y1="265.245" y2="265.245"/><ellipse cx="21.5" cy="276.245" fill="none" rx="3" ry="3" style="stroke:#038048;stroke-width:1.0;"/><text fill="#000000" font-family="sans-serif" font-size="14" lengthAdjust="spacing" textLength="13" x="30.5" y="282.2401">id</text><ellipse cx="21.5" cy="292.5419" fill="none" rx="3" ry="3" style="stroke:#038048;stroke-width:1.0;"/><text fill="#000000" font-family="sans-serif" font-size="14" lengthAdjust="spacing" textLength="40" x="30.5" y="298.537">name</text><line style="stroke:#181818;stroke-width:0.5;" x1="11.5" x2="83.5" y1="305.8388" y2="305.8388"/></g><!--MD5=[c881b25adf3665c6568c9693d41a70f3]
class Activity--><g id="elem_Activity"><rect codeLine="6" fill="#F1F1F1" height="113.1875" id="Activity" rx="2.5" ry="2.5" style="stroke:#181818;stroke-width:0.5;" width="132" x="841.5" y="217.245"/><ellipse cx="878.1" cy="233.245" fill="#A9DCDF" rx="11" ry="11" style="stroke:#181818;stroke-width:1.0;"/><path d="M880.1781,235.0575 L880.5688,236.0419 L880.1781,236.0419 C879.725,236.0419 879.6156,236.0575 879.4594,236.1669 C879.2094,236.3231 879.0531,236.6044 879.0531,236.9013 C879.0531,237.1669 879.1938,237.4169 879.4125,237.5731 C879.5531,237.6981 879.7563,237.745 880.1781,237.745 L882.5375,237.745 C882.8969,237.745 883.1156,237.7138 883.2563,237.62 C883.5063,237.4794 883.6625,237.1825 883.6625,236.9013 C883.6625,236.62 883.5219,236.37 883.3031,236.2138 C883.1313,236.0731 882.975,236.0419 882.5063,236.0419 L879.1156,227.8388 L875.4438,227.8388 C874.9906,227.8388 874.8656,227.8544 874.7094,227.9481 C874.4594,228.12 874.3031,228.4013 874.3031,228.6825 C874.3031,228.9638 874.4438,229.2138 874.6625,229.3856 C874.8344,229.495 875.0063,229.5263 875.4438,229.5263 L876.5219,229.5263 L873.8813,236.0419 C873.4594,236.0419 873.3031,236.0575 873.1469,236.1669 C872.8969,236.3231 872.7406,236.6044 872.7406,236.9013 C872.7406,237.4638 873.1156,237.745 873.8656,237.745 L876.1313,237.745 C876.4906,237.745 876.7094,237.7138 876.8344,237.62 C877.1,237.4794 877.2406,237.1825 877.2406,236.9013 C877.2406,236.62 877.1156,236.37 876.8969,236.1981 C876.725,236.0731 876.5844,236.0419 876.1313,236.0419 L875.7406,236.0419 L876.1313,235.0575 L880.1781,235.0575 Z M879.475,233.3544 L876.8031,233.3544 L878.1469,230.0888 L879.475,233.3544 Z " fill="#000000"/><text fill="#000000" font-family="sans-serif" font-size="14" font-style="italic" lengthAdjust="spacing" textLength="52" x="896.9" y="238.0917">Activity</text><line style="stroke:#181818;stroke-width:0.5;" x1="842.5" x2="972.5" y1="249.245" y2="249.245"/><ellipse cx="852.5" cy="260.245" fill="none" rx="3" ry="3" style="stroke:#038048;stroke-width:1.0;"/><text fill="#000000" font-family="sans-serif" font-size="14" lengthAdjust="spacing" textLength="13" x="861.5" y="266.2401">id</text><ellipse cx="852.5" cy="276.5419" fill="none" rx="3" ry="3" style="stroke:#038048;stroke-width:1.0;"/><text fill="#000000" font-family="sans-serif" font-size="14" lengthAdjust="spacing" textLength="40" x="861.5" y="282.537">name</text><ellipse cx="852.5" cy="292.8388" fill="none" rx="3" ry="3" style="stroke:#038048;stroke-width:1.0;"/><text fill="#000000" font-family="sans-serif" font-size="14" lengthAdjust="spacing" textLength="106" x="861.5" y="298.8339">startedAtTime</text><ellipse cx="852.5" cy="309.1356" fill="none" rx="3" ry="3" style="stroke:#038048;stroke-width:1.0;"/><text fill="#000000" font-family="sans-serif" font-size="14" lengthAdjust="spacing" textLength="98" x="861.5" y="315.1307">endedAtTime</text><line style="stroke:#181818;stroke-width:0.5;" x1="842.5" x2="972.5" y1="322.4325" y2="322.4325"/></g><!--MD5=[be996cdb8e6bf2fc7cb89c555f2cd144]
class Entity--><g id="elem_Entity"><rect codeLine="13" fill="#F1F1F1" height="80.5938" id="Entity" rx="2.5" ry="2.5" style="stroke:#181818;stroke-width:0.5;" width="72" x="1017.5" y="233.245"/><ellipse cx="1032.5" cy="249.245" fill="#A9DCDF" rx="11" ry="11" style="stroke:#181818;stroke-width:1.0;"/><path d="M1034.5781,251.0575 L1034.9688,252.0419 L1034.5781,252.0419 C1034.125,252.0419 1034.0156,252.0575 1033.8594,252.1669 C1033.6094,252.3231 1033.4531,252.6044 1033.4531,252.9013 C1033.4531,253.1669 1033.5938,253.4169 1033.8125,253.5731 C1033.9531,253.6981 1034.1563,253.745 1034.5781,253.745 L1036.9375,253.745 C1037.2969,253.745 1037.5156,253.7138 1037.6563,253.62 C1037.9063,253.4794 1038.0625,253.1825 1038.0625,252.9013 C1038.0625,252.62 1037.9219,252.37 1037.7031,252.2138 C1037.5313,252.0731 1037.375,252.0419 1036.9063,252.0419 L1033.5156,243.8388 L1029.8438,243.8388 C1029.3906,243.8388 1029.2656,243.8544 1029.1094,243.9481 C1028.8594,244.12 1028.7031,244.4013 1028.7031,244.6825 C1028.7031,244.9638 1028.8438,245.2138 1029.0625,245.3856 C1029.2344,245.495 1029.4063,245.5263 1029.8438,245.5263 L1030.9219,245.5263 L1028.2813,252.0419 C1027.8594,252.0419 1027.7031,252.0575 1027.5469,252.1669 C1027.2969,252.3231 1027.1406,252.6044 1027.1406,252.9013 C1027.1406,253.4638 1027.5156,253.745 1028.2656,253.745 L1030.5313,253.745 C1030.8906,253.745 1031.1094,253.7138 1031.2344,253.62 C1031.5,253.4794 1031.6406,253.1825 1031.6406,252.9013 C1031.6406,252.62 1031.5156,252.37 1031.2969,252.1981 C1031.125,252.0731 1030.9844,252.0419 1030.5313,252.0419 L1030.1406,252.0419 L1030.5313,251.0575 L1034.5781,251.0575 Z M1033.875,249.3544 L1031.2031,249.3544 L1032.5469,246.0888 L1033.875,249.3544 Z " fill="#000000"/><text fill="#000000" font-family="sans-serif" font-size="14" font-style="italic" lengthAdjust="spacing" textLength="40" x="1046.5" y="254.0917">Entity</text><line style="stroke:#181818;stroke-width:0.5;" x1="1018.5" x2="1088.5" y1="265.245" y2="265.245"/><ellipse cx="1028.5" cy="276.245" fill="none" rx="3" ry="3" style="stroke:#038048;stroke-width:1.0;"/><text fill="#000000" font-family="sans-serif" font-size="14" lengthAdjust="spacing" textLength="13" x="1037.5" y="282.2401">id</text><ellipse cx="1028.5" cy="292.5419" fill="none" rx="3" ry="3" style="stroke:#038048;stroke-width:1.0;"/><text fill="#000000" font-family="sans-serif" font-size="14" lengthAdjust="spacing" textLength="40" x="1037.5" y="298.537">name</text><line style="stroke:#181818;stroke-width:0.5;" x1="1018.5" x2="1088.5" y1="305.8388" y2="305.8388"/></g><!--MD5=[07aa7faaca1d5aeceacb3d120b4f8a30]
class Guidance--><g id="elem_Guidance"><rect fill="#F1F1F1" height="48" id="Guidance" rx="2.5" ry="2.5" style="stroke:#181818;stroke-width:0.5;" width="98" x="1031.5" y="101.245"/><ellipse cx="1046.5" cy="117.245" fill="#ADD1B2" rx="11" ry="11" style="stroke:#181818;stroke-width:1.0;"/><path d="M1048.8438,112.9169 C1047.9063,112.4794 1047.3125,112.3388 1046.4375,112.3388 C1043.8125,112.3388 1041.8125,114.4169 1041.8125,117.1356 L1041.8125,118.2606 C1041.8125,120.8388 1043.9219,122.7294 1046.8125,122.7294 C1048.0313,122.7294 1049.1875,122.4325 1049.9375,121.8856 C1050.5156,121.4794 1050.8438,121.0263 1050.8438,120.6356 C1050.8438,120.1825 1050.4531,119.7919 1049.9844,119.7919 C1049.7656,119.7919 1049.5625,119.87 1049.375,120.0575 C1048.9219,120.5419 1048.9219,120.5419 1048.7344,120.6356 C1048.3125,120.9013 1047.625,121.0263 1046.8594,121.0263 C1044.8125,121.0263 1043.5156,119.9325 1043.5156,118.2294 L1043.5156,117.1356 C1043.5156,115.3544 1044.7656,114.0419 1046.5,114.0419 C1047.0781,114.0419 1047.6875,114.1981 1048.1563,114.4481 C1048.6406,114.7294 1048.8125,114.9481 1048.9063,115.3544 C1048.9688,115.7606 1049,115.8856 1049.1406,116.0106 C1049.2813,116.1513 1049.5156,116.2606 1049.7344,116.2606 C1050,116.2606 1050.2656,116.12 1050.4375,115.9013 C1050.5469,115.745 1050.5781,115.5575 1050.5781,115.1356 L1050.5781,113.7138 C1050.5781,113.2763 1050.5625,113.1513 1050.4688,112.995 C1050.3125,112.7294 1050.0313,112.5888 1049.7344,112.5888 C1049.4375,112.5888 1049.2344,112.6825 1049.0156,112.995 L1048.8438,112.9169 Z " fill="#000000"/><text fill="#000000" font-family="sans-serif" font-size="14" lengthAdjust="spacing" textLength="66" x="1060.5" y="122.0917">Guidance</text><line style="stroke:#181818;stroke-width:0.5;" x1="1032.5" x2="1128.5" y1="133.245" y2="133.245"/><line style="stroke:#181818;stroke-width:0.5;" x1="1032.5" x2="1128.5" y1="141.245" y2="141.245"/></g><!--MD5=[81c4f8b5233297f66a4e402edbd6aa31]
class PublishedGuidance--><g id="elem_PublishedGuidance"><rect fill="#F1F1F1" height="48" id="PublishedGuidance" rx="2.5" ry="2.5" style="stroke:#181818;stroke-width:0.5;" width="167" x="292" y="101.245"/><ellipse cx="307" cy="117.245" fill="#ADD1B2" rx="11" ry="11" style="stroke:#181818;stroke-width:1.0;"/><path d="M309.3438,112.9169 C308.4063,112.4794 307.8125,112.3388 306.9375,112.3388 C304.3125,112.3388 302.3125,114.4169 302.3125,117.1356 L302.3125,118.2606 C302.3125,120.8388 304.4219,122.7294 307.3125,122.7294 C308.5313,122.7294 309.6875,122.4325 310.4375,121.8856 C311.0156,121.4794 311.3438,121.0263 311.3438,120.6356 C311.3438,120.1825 310.9531,119.7919 310.4844,119.7919 C310.2656,119.7919 310.0625,119.87 309.875,120.0575 C309.4219,120.5419 309.4219,120.5419 309.2344,120.6356 C308.8125,120.9013 308.125,121.0263 307.3594,121.0263 C305.3125,121.0263 304.0156,119.9325 304.0156,118.2294 L304.0156,117.1356 C304.0156,115.3544 305.2656,114.0419 307,114.0419 C307.5781,114.0419 308.1875,114.1981 308.6563,114.4481 C309.1406,114.7294 309.3125,114.9481 309.4063,115.3544 C309.4688,115.7606 309.5,115.8856 309.6406,116.0106 C309.7813,116.1513 310.0156,116.2606 310.2344,116.2606 C310.5,116.2606 310.7656,116.12 310.9375,115.9013 C311.0469,115.745 311.0781,115.5575 311.0781,115.1356 L311.0781,113.7138 C311.0781,113.2763 311.0625,113.1513 310.9688,112.995 C310.8125,112.7294 310.5313,112.5888 310.2344,112.5888 C309.9375,112.5888 309.7344,112.6825 309.5156,112.995 L309.3438,112.9169 Z " fill="#000000"/><text fill="#000000" font-family="sans-serif" font-size="14" lengthAdjust="spacing" textLength="135" x="321" y="122.0917">PublishedGuidance</text><line style="stroke:#181818;stroke-width:0.5;" x1="293" x2="458" y1="133.245" y2="133.245"/><line style="stroke:#181818;stroke-width:0.5;" x1="293" x2="458" y1="141.245" y2="141.245"/></g><!--MD5=[09ce52be0ee7de43c61b6e2d59bf108b]
class Person--><g id="elem_Person"><rect fill="#F1F1F1" height="48" id="Person" rx="2.5" ry="2.5" style="stroke:#181818;stroke-width:0.5;" width="81" x="7" y="101.245"/><ellipse cx="22" cy="117.245" fill="#ADD1B2" rx="11" ry="11" style="stroke:#181818;stroke-width:1.0;"/><path d="M24.3438,112.9169 C23.4063,112.4794 22.8125,112.3388 21.9375,112.3388 C19.3125,112.3388 17.3125,114.4169 17.3125,117.1356 L17.3125,118.2606 C17.3125,120.8388 19.4219,122.7294 22.3125,122.7294 C23.5313,122.7294 24.6875,122.4325 25.4375,121.8856 C26.0156,121.4794 26.3438,121.0263 26.3438,120.6356 C26.3438,120.1825 25.9531,119.7919 25.4844,119.7919 C25.2656,119.7919 25.0625,119.87 24.875,120.0575 C24.4219,120.5419 24.4219,120.5419 24.2344,120.6356 C23.8125,120.9013 23.125,121.0263 22.3594,121.0263 C20.3125,121.0263 19.0156,119.9325 19.0156,118.2294 L19.0156,117.1356 C19.0156,115.3544 20.2656,114.0419 22,114.0419 C22.5781,114.0419 23.1875,114.1981 23.6563,114.4481 C24.1406,114.7294 24.3125,114.9481 24.4063,115.3544 C24.4688,115.7606 24.5,115.8856 24.6406,116.0106 C24.7813,116.1513 25.0156,116.2606 25.2344,116.2606 C25.5,116.2606 25.7656,116.12 25.9375,115.9013 C26.0469,115.745 26.0781,115.5575 26.0781,115.1356 L26.0781,113.7138 C26.0781,113.2763 26.0625,113.1513 25.9688,112.995 C25.8125,112.7294 25.5313,112.5888 25.2344,112.5888 C24.9375,112.5888 24.7344,112.6825 24.5156,112.995 L24.3438,112.9169 Z " fill="#000000"/><text fill="#000000" font-family="sans-serif" font-size="14" lengthAdjust="spacing" textLength="49" x="36" y="122.0917">Person</text><line style="stroke:#181818;stroke-width:0.5;" x1="8" x2="87" y1="133.245" y2="133.245"/><line style="stroke:#181818;stroke-width:0.5;" x1="8" x2="87" y1="141.245" y2="141.245"/></g><!--MD5=[bfaa0cf1c94f172be725c75ad56c3fba]
class Publication--><g id="elem_Publication"><rect fill="#F1F1F1" height="48" id="Publication" rx="2.5" ry="2.5" style="stroke:#181818;stroke-width:0.5;" width="112" x="851.5" y="101.245"/><ellipse cx="866.5" cy="117.245" fill="#ADD1B2" rx="11" ry="11" style="stroke:#181818;stroke-width:1.0;"/><path d="M868.8438,112.9169 C867.9063,112.4794 867.3125,112.3388 866.4375,112.3388 C863.8125,112.3388 861.8125,114.4169 861.8125,117.1356 L861.8125,118.2606 C861.8125,120.8388 863.9219,122.7294 866.8125,122.7294 C868.0313,122.7294 869.1875,122.4325 869.9375,121.8856 C870.5156,121.4794 870.8438,121.0263 870.8438,120.6356 C870.8438,120.1825 870.4531,119.7919 869.9844,119.7919 C869.7656,119.7919 869.5625,119.87 869.375,120.0575 C868.9219,120.5419 868.9219,120.5419 868.7344,120.6356 C868.3125,120.9013 867.625,121.0263 866.8594,121.0263 C864.8125,121.0263 863.5156,119.9325 863.5156,118.2294 L863.5156,117.1356 C863.5156,115.3544 864.7656,114.0419 866.5,114.0419 C867.0781,114.0419 867.6875,114.1981 868.1563,114.4481 C868.6406,114.7294 868.8125,114.9481 868.9063,115.3544 C868.9688,115.7606 869,115.8856 869.1406,116.0106 C869.2813,116.1513 869.5156,116.2606 869.7344,116.2606 C870,116.2606 870.2656,116.12 870.4375,115.9013 C870.5469,115.745 870.5781,115.5575 870.5781,115.1356 L870.5781,113.7138 C870.5781,113.2763 870.5625,113.1513 870.4688,112.995 C870.3125,112.7294 870.0313,112.5888 869.7344,112.5888 C869.4375,112.5888 869.2344,112.6825 869.0156,112.995 L868.8438,112.9169 Z " fill="#000000"/><text fill="#000000" font-family="sans-serif" font-size="14" lengthAdjust="spacing" textLength="80" x="880.5" y="122.0917">Publication</text><line style="stroke:#181818;stroke-width:0.5;" x1="852.5" x2="962.5" y1="133.245" y2="133.245"/><line style="stroke:#181818;stroke-width:0.5;" x1="852.5" x2="962.5" y1="141.245" y2="141.245"/></g><!--MD5=[d35b0e7bbfe5e793efa0f7f8ce0c9266]
class Revision--><g id="elem_Revision"><rect fill="#F1F1F1" height="48" id="Revision" rx="2.5" ry="2.5" style="stroke:#181818;stroke-width:0.5;" width="92" x="720.5" y="101.245"/><ellipse cx="735.5" cy="117.245" fill="#ADD1B2" rx="11" ry="11" style="stroke:#181818;stroke-width:1.0;"/><path d="M737.8438,112.9169 C736.9063,112.4794 736.3125,112.3388 735.4375,112.3388 C732.8125,112.3388 730.8125,114.4169 730.8125,117.1356 L730.8125,118.2606 C730.8125,120.8388 732.9219,122.7294 735.8125,122.7294 C737.0313,122.7294 738.1875,122.4325 738.9375,121.8856 C739.5156,121.4794 739.8438,121.0263 739.8438,120.6356 C739.8438,120.1825 739.4531,119.7919 738.9844,119.7919 C738.7656,119.7919 738.5625,119.87 738.375,120.0575 C737.9219,120.5419 737.9219,120.5419 737.7344,120.6356 C737.3125,120.9013 736.625,121.0263 735.8594,121.0263 C733.8125,121.0263 732.5156,119.9325 732.5156,118.2294 L732.5156,117.1356 C732.5156,115.3544 733.7656,114.0419 735.5,114.0419 C736.0781,114.0419 736.6875,114.1981 737.1563,114.4481 C737.6406,114.7294 737.8125,114.9481 737.9063,115.3544 C737.9688,115.7606 738,115.8856 738.1406,116.0106 C738.2813,116.1513 738.5156,116.2606 738.7344,116.2606 C739,116.2606 739.2656,116.12 739.4375,115.9013 C739.5469,115.745 739.5781,115.5575 739.5781,115.1356 L739.5781,113.7138 C739.5781,113.2763 739.5625,113.1513 739.4688,112.995 C739.3125,112.7294 739.0313,112.5888 738.7344,112.5888 C738.4375,112.5888 738.2344,112.6825 738.0156,112.995 L737.8438,112.9169 Z " fill="#000000"/><text fill="#000000" font-family="sans-serif" font-size="14" lengthAdjust="spacing" textLength="60" x="749.5" y="122.0917">Revision</text><line style="stroke:#181818;stroke-width:0.5;" x1="721.5" x2="811.5" y1="133.245" y2="133.245"/><line style="stroke:#181818;stroke-width:0.5;" x1="721.5" x2="811.5" y1="141.245" y2="141.245"/></g><!--MD5=[59b530d44ae785dc18db921986a9c15c]
class Document--><g id="elem_Document"><rect fill="#F1F1F1" height="48" id="Document" rx="2.5" ry="2.5" style="stroke:#181818;stroke-width:0.5;" width="107" x="578" y="101.245"/><ellipse cx="593" cy="117.245" fill="#ADD1B2" rx="11" ry="11" style="stroke:#181818;stroke-width:1.0;"/><path d="M595.3438,112.9169 C594.4063,112.4794 593.8125,112.3388 592.9375,112.3388 C590.3125,112.3388 588.3125,114.4169 588.3125,117.1356 L588.3125,118.2606 C588.3125,120.8388 590.4219,122.7294 593.3125,122.7294 C594.5313,122.7294 595.6875,122.4325 596.4375,121.8856 C597.0156,121.4794 597.3438,121.0263 597.3438,120.6356 C597.3438,120.1825 596.9531,119.7919 596.4844,119.7919 C596.2656,119.7919 596.0625,119.87 595.875,120.0575 C595.4219,120.5419 595.4219,120.5419 595.2344,120.6356 C594.8125,120.9013 594.125,121.0263 593.3594,121.0263 C591.3125,121.0263 590.0156,119.9325 590.0156,118.2294 L590.0156,117.1356 C590.0156,115.3544 591.2656,114.0419 593,114.0419 C593.5781,114.0419 594.1875,114.1981 594.6563,114.4481 C595.1406,114.7294 595.3125,114.9481 595.4063,115.3544 C595.4688,115.7606 595.5,115.8856 595.6406,116.0106 C595.7813,116.1513 596.0156,116.2606 596.2344,116.2606 C596.5,116.2606 596.7656,116.12 596.9375,115.9013 C597.0469,115.745 597.0781,115.5575 597.0781,115.1356 L597.0781,113.7138 C597.0781,113.2763 597.0625,113.1513 596.9688,112.995 C596.8125,112.7294 596.5313,112.5888 596.2344,112.5888 C595.9375,112.5888 595.7344,112.6825 595.5156,112.995 L595.3438,112.9169 Z " fill="#000000"/><text fill="#000000" font-family="sans-serif" font-size="14" lengthAdjust="spacing" textLength="75" x="607" y="122.0917">Document</text><line style="stroke:#181818;stroke-width:0.5;" x1="579" x2="684" y1="133.245" y2="133.245"/><line style="stroke:#181818;stroke-width:0.5;" x1="579" x2="684" y1="141.245" y2="141.245"/></g><!--MD5=[05fc675d95a7b8ae4d4529efb189a013]
reverse link Guidance to Entity--><g id="link_Guidance_Entity"><path codeLine="19" d="M1072.59,169.181 C1068.86,189.381 1064.45,213.315 1060.81,233.0834 " fill="none" id="Guidance-backto-Entity" style="stroke:#181818;stroke-width:1.0;"/><polygon fill="none" points="1065.71,167.858,1076.22,149.458,1079.48,170.396,1065.71,167.858" style="stroke:#181818;stroke-width:1.0;"/></g><!--MD5=[821cfbef9fe918befde7e608331d4fe1]
reverse link PublishedGuidance to Entity--><g id="link_PublishedGuidance_Entity"><path codeLine="20" d="M479.083,143.414 C505.607,147.708 534.097,152.232 560.5,156.245 C751.333,185.251 815.173,136.506 990.5,217.245 C1000.033,221.635 1009.19,227.946 1017.42,234.7494 " fill="none" id="PublishedGuidance-backto-Entity" style="stroke:#181818;stroke-width:1.0;"/><polygon fill="none" points="477.866,150.308,459.25,140.187,480.115,136.49,477.866,150.308" style="stroke:#181818;stroke-width:1.0;"/></g><!--MD5=[a2a9146c54d208d05afda3efae3ad87d]
reverse link Person to Agent--><g id="link_Person_Agent"><path codeLine="21" d="M47.5,169.502 C47.5,189.634 47.5,213.42 47.5,233.0834 " fill="none" id="Person-backto-Agent" style="stroke:#181818;stroke-width:1.0;"/><polygon fill="none" points="40.5001,169.458,47.5,149.458,54.5001,169.458,40.5001,169.458" style="stroke:#181818;stroke-width:1.0;"/></g><!--MD5=[3af288516f42dba9189537d3b5d8311a]
reverse link Publication to Activity--><g id="link_Publication_Activity"><path codeLine="22" d="M907.5,169.497 C907.5,184.404 907.5,201.314 907.5,217.072 " fill="none" id="Publication-backto-Activity" style="stroke:#181818;stroke-width:1.0;"/><polygon fill="none" points="900.5,169.458,907.5,149.458,914.5,169.458,900.5,169.458" style="stroke:#181818;stroke-width:1.0;"/></g><!--MD5=[7af627a0a6bbca76d88c616b1c92b90a]
link Person to Publication--><g id="link_Person_Publication"><path codeLine="25" d="M88.1658,116.902 C190.514,96.382 467.286,43.847 701,26.245 C734.461,23.725 823.047,9.284 852,26.245 C877.555,41.215 892.234,72.735 899.999,96.21 " fill="none" id="Person-to-Publication" style="stroke:#181818;stroke-width:1.0;"/><polygon fill="#181818" points="901.552,101.088,902.6326,91.2986,900.0349,96.3237,895.0097,93.726,901.552,101.088" style="stroke:#181818;stroke-width:1.0;"/><text fill="#000000" font-family="sans-serif" font-size="13" lengthAdjust="spacing" textLength="125" x="714" y="25.3119">wasAssociatedWith</text><path d="M706,34.3778 L706,59.3778 L847,59.3778 L847,44.3778 L837,34.3778 L706,34.3778 " fill="#FEFFDD" style="stroke:#181818;stroke-width:0.5;"/><path d="M837,34.3778 L837,44.3778 L847,44.3778 L837,34.3778 " fill="#FEFFDD" style="stroke:#181818;stroke-width:0.5;"/><text fill="#000000" font-family="sans-serif" font-size="13" lengthAdjust="spacing" textLength="120" x="712" y="51.4447">(role=Stakeholder)</text></g><!--MD5=[7af627a0a6bbca76d88c616b1c92b90a]
link Person to Publication--><g id="link_Person_Publication"><path codeLine="29" d="M88.1658,116.902 C190.514,96.382 467.286,43.847 701,26.245 C734.461,23.725 823.047,9.284 852,26.245 C877.555,41.215 892.234,72.735 899.999,96.21 " fill="none" id="Person-to-Publication-1" style="stroke:#181818;stroke-width:1.0;"/><polygon fill="#181818" points="901.552,101.088,902.6326,91.2986,900.0349,96.3237,895.0097,93.726,901.552,101.088" style="stroke:#181818;stroke-width:1.0;"/><text fill="#000000" font-family="sans-serif" font-size="13" lengthAdjust="spacing" textLength="125" x="714" y="25.3119">wasAssociatedWith</text><path d="M725.5,34.3778 L725.5,59.3778 L827.5,59.3778 L827.5,44.3778 L817.5,34.3778 L725.5,34.3778 " fill="#FEFFDD" style="stroke:#181818;stroke-width:0.5;"/><path d="M817.5,34.3778 L817.5,44.3778 L827.5,44.3778 L817.5,34.3778 " fill="#FEFFDD" style="stroke:#181818;stroke-width:0.5;"/><text fill="#000000" font-family="sans-serif" font-size="13" lengthAdjust="spacing" textLength="81" x="731.5" y="51.4447">(role=Editor)</text></g><!--MD5=[0931c9952d205bd1deb8f05c118202b2]
link Person to Person--><g id="link_Person_Person"><path codeLine="27" d="M88.276,114.193 C106.8523,113.065 123,116.749 123,125.245 C123,132.945 109.738,136.692 93.4253,136.487 " fill="none" id="Person-to-Person" style="stroke:#181818;stroke-width:1.0;"/><polygon fill="#181818" points="88.276,136.297,97.1218,140.6273,93.2726,136.482,97.4179,132.6328,88.276,136.297" style="stroke:#181818;stroke-width:1.0;"/><text fill="#000000" font-family="sans-serif" font-size="13" lengthAdjust="spacing" textLength="109" x="144" y="112.3119">actedOnBehalfOf</text><path d="M128,126.3778 L128,151.3778 L269,151.3778 L269,136.3778 L259,126.3778 L128,126.3778 " fill="#FEFFDD" style="stroke:#181818;stroke-width:0.5;"/><path d="M259,126.3778 L259,136.3778 L269,136.3778 L259,126.3778 " fill="#FEFFDD" style="stroke:#181818;stroke-width:0.5;"/><text fill="#000000" font-family="sans-serif" font-size="13" lengthAdjust="spacing" textLength="120" x="134" y="143.4447">(role=Stakeholder)</text></g><!--MD5=[0d196ff2e303655185dd720827c358f4]
link PublishedGuidance to Revision--><g id="link_PublishedGuidance_Revision"><path codeLine="31" d="M391.689,101.185 C406.469,81.568 430.274,55.286 458.5,43.745 C550.812,6 665.875,61.851 725.85,98.181 " fill="none" id="PublishedGuidance-to-Revision" style="stroke:#181818;stroke-width:1.0;"/><polygon fill="#181818" points="730.424,100.979,724.8327,92.8712,726.1584,98.3705,720.659,99.6962,730.424,100.979" style="stroke:#181818;stroke-width:1.0;"/><text fill="#000000" font-family="sans-serif" font-size="13" lengthAdjust="spacing" textLength="118" x="459.5" y="42.8119">hadPrimarySource</text></g><!--MD5=[b88acac280cf9933169186a61bb1ac47]
link Publication to Guidance--><g id="link_Publication_Guidance"><path codeLine="32" d="M963.668,125.245 C983.769,125.245 1006.372,125.245 1026.3,125.245 " fill="none" id="Publication-to-Guidance" style="stroke:#181818;stroke-width:1.0;"/><polygon fill="#181818" points="1031.31,125.245,1022.31,121.245,1026.31,125.245,1022.31,129.245,1031.31,125.245" style="stroke:#181818;stroke-width:1.0;"/><text fill="#000000" font-family="sans-serif" font-size="13" lengthAdjust="spacing" textLength="31" x="982" y="118.3119">used</text></g><!--MD5=[f7a55d1c18581ddcd3001da6e2fcb81e]
link PublishedGuidance to Publication--><g id="link_PublishedGuidance_Publication"><path codeLine="33" d="M421.912,101.24 C463.106,81.369 525.573,54.689 583.5,43.745 C693.173,23.025 725.414,53.952 829.5,94.245 C835.021,96.382 840.753,98.622 846.492,100.877 " fill="none" id="PublishedGuidance-to-Publication" style="stroke:#181818;stroke-width:1.0;"/><polygon fill="#181818" points="851.309,102.774,844.4002,95.7549,846.6566,100.9422,841.4693,103.1987,851.309,102.774" style="stroke:#181818;stroke-width:1.0;"/><text fill="#000000" font-family="sans-serif" font-size="13" lengthAdjust="spacing" textLength="110" x="584.5" y="42.8119">wasGeneratedBy</text></g><!--MD5=[cdc806fa83a76d81cfe87a2554076b8a]
link PublishedGuidance to Document--><g id="link_PublishedGuidance_Document"><path codeLine="34" d="M459.324,125.245 C496.281,125.245 538.838,125.245 572.396,125.245 " fill="none" id="PublishedGuidance-to-Document" style="stroke:#181818;stroke-width:1.0;"/><polygon fill="#181818" points="577.702,125.245,568.702,121.245,572.702,125.245,568.702,129.245,577.702,125.245" style="stroke:#181818;stroke-width:1.0;"/><text fill="#000000" font-family="sans-serif" font-size="13" lengthAdjust="spacing" textLength="82" x="477.5" y="118.3119">hadEvidence</text></g><!--MD5=[e20907116ead5423b58b847cda0b4a92]
@startuml
abstract Agent {
+ id
+ name
}

abstract Activity {
+ id
+ name
+ startedAtTime
+ endedAtTime
}

abstract Entity {
+ id
+ name
}


Guidance <|- - Entity
PublishedGuidance <|- - Entity
Person <|- - Agent
Publication <|- - Activity


Person -> Publication: wasAssociatedWith
note on link: (role=Stakeholder)
Person -> Person: actedOnBehalfOf
note on link: (role=Stakeholder)
Person -> Publication: wasAssociatedWith
note on link: (role=Editor)
PublishedGuidance -> Revision: hadPrimarySource
Publication -> Guidance : used
PublishedGuidance -> Publication: wasGeneratedBy
PublishedGuidance -> Document: hadEvidence
@enduml

PlantUML version 1.2022.7beta2(Unknown compile time)
(GPL source distribution)
Java Runtime: Java(TM) SE Runtime Environment
JVM: Java HotSpot(TM) 64-Bit Server VM
Default Encoding: UTF-8
Language: en
Country: US
--></g></svg>