<?xml version="1.0" encoding="UTF-8" standalone="no"?><svg xmlns="http://www.w3.org/2000/svg" xmlns:xlink="http://www.w3.org/1999/xlink" contentStyleType="text/css" height="272px" preserveAspectRatio="none" style="width:1136px;height:272px;background:#FFFFFF;" version="1.1" viewBox="0 0 1136 272" width="1136px" zoomAndPan="magnify"><defs/><g><!--MD5=[be996cdb8e6bf2fc7cb89c555f2cd144]
class Entity--><g id="elem_Entity"><rect codeLine="1" fill="#F1F1F1" height="48" id="Entity" rx="2.5" ry="2.5" style="stroke:#181818;stroke-width:0.5;" width="72" x="999.5" y="217.245"/><ellipse cx="1014.5" cy="233.245" fill="#A9DCDF" rx="11" ry="11" style="stroke:#181818;stroke-width:1.0;"/><path d="M1016.5781,235.0575 L1016.9688,236.0419 L1016.5781,236.0419 C1016.125,236.0419 1016.0156,236.0575 1015.8594,236.1669 C1015.6094,236.3231 1015.4531,236.6044 1015.4531,236.9013 C1015.4531,237.1669 1015.5938,237.4169 1015.8125,237.5731 C1015.9531,237.6981 1016.1563,237.745 1016.5781,237.745 L1018.9375,237.745 C1019.2969,237.745 1019.5156,237.7138 1019.6563,237.62 C1019.9063,237.4794 1020.0625,237.1825 1020.0625,236.9013 C1020.0625,236.62 1019.9219,236.37 1019.7031,236.2138 C1019.5313,236.0731 1019.375,236.0419 1018.9063,236.0419 L1015.5156,227.8388 L1011.8438,227.8388 C1011.3906,227.8388 1011.2656,227.8544 1011.1094,227.9481 C1010.8594,228.12 1010.7031,228.4013 1010.7031,228.6825 C1010.7031,228.9638 1010.8438,229.2138 1011.0625,229.3856 C1011.2344,229.495 1011.4063,229.5263 1011.8438,229.5263 L1012.9219,229.5263 L1010.2813,236.0419 C1009.8594,236.0419 1009.7031,236.0575 1009.5469,236.1669 C1009.2969,236.3231 1009.1406,236.6044 1009.1406,236.9013 C1009.1406,237.4638 1009.5156,237.745 1010.2656,237.745 L1012.5313,237.745 C1012.8906,237.745 1013.1094,237.7138 1013.2344,237.62 C1013.5,237.4794 1013.6406,237.1825 1013.6406,236.9013 C1013.6406,236.62 1013.5156,236.37 1013.2969,236.1981 C1013.125,236.0731 1012.9844,236.0419 1012.5313,236.0419 L1012.1406,236.0419 L1012.5313,235.0575 L1016.5781,235.0575 Z M1015.875,233.3544 L1013.2031,233.3544 L1014.5469,230.0888 L1015.875,233.3544 Z " fill="#000000"/><text fill="#000000" font-family="sans-serif" font-size="14" font-style="italic" lengthAdjust="spacing" textLength="40" x="1028.5" y="238.0917">Entity</text><line style="stroke:#181818;stroke-width:0.5;" x1="1000.5" x2="1070.5" y1="249.245" y2="249.245"/><line style="stroke:#181818;stroke-width:0.5;" x1="1000.5" x2="1070.5" y1="257.245" y2="257.245"/></g><!--MD5=[9d44916250b776386006c440668bcfbb]
class Agent--><g id="elem_Agent"><rect codeLine="2" fill="#F1F1F1" height="48" id="Agent" rx="2.5" ry="2.5" style="stroke:#181818;stroke-width:0.5;" width="74" x="10.5" y="217.245"/><ellipse cx="25.5" cy="233.245" fill="#A9DCDF" rx="11" ry="11" style="stroke:#181818;stroke-width:1.0;"/><path d="M27.5781,235.0575 L27.9688,236.0419 L27.5781,236.0419 C27.125,236.0419 27.0156,236.0575 26.8594,236.1669 C26.6094,236.3231 26.4531,236.6044 26.4531,236.9013 C26.4531,237.1669 26.5938,237.4169 26.8125,237.5731 C26.9531,237.6981 27.1563,237.745 27.5781,237.745 L29.9375,237.745 C30.2969,237.745 30.5156,237.7138 30.6563,237.62 C30.9063,237.4794 31.0625,237.1825 31.0625,236.9013 C31.0625,236.62 30.9219,236.37 30.7031,236.2138 C30.5313,236.0731 30.375,236.0419 29.9063,236.0419 L26.5156,227.8388 L22.8438,227.8388 C22.3906,227.8388 22.2656,227.8544 22.1094,227.9481 C21.8594,228.12 21.7031,228.4013 21.7031,228.6825 C21.7031,228.9638 21.8438,229.2138 22.0625,229.3856 C22.2344,229.495 22.4063,229.5263 22.8438,229.5263 L23.9219,229.5263 L21.2813,236.0419 C20.8594,236.0419 20.7031,236.0575 20.5469,236.1669 C20.2969,236.3231 20.1406,236.6044 20.1406,236.9013 C20.1406,237.4638 20.5156,237.745 21.2656,237.745 L23.5313,237.745 C23.8906,237.745 24.1094,237.7138 24.2344,237.62 C24.5,237.4794 24.6406,237.1825 24.6406,236.9013 C24.6406,236.62 24.5156,236.37 24.2969,236.1981 C24.125,236.0731 23.9844,236.0419 23.5313,236.0419 L23.1406,236.0419 L23.5313,235.0575 L27.5781,235.0575 Z M26.875,233.3544 L24.2031,233.3544 L25.5469,230.0888 L26.875,233.3544 Z " fill="#000000"/><text fill="#000000" font-family="sans-serif" font-size="14" font-style="italic" lengthAdjust="spacing" textLength="42" x="39.5" y="238.0917">Agent</text><line style="stroke:#181818;stroke-width:0.5;" x1="11.5" x2="83.5" y1="249.245" y2="249.245"/><line style="stroke:#181818;stroke-width:0.5;" x1="11.5" x2="83.5" y1="257.245" y2="257.245"/></g><!--MD5=[c881b25adf3665c6568c9693d41a70f3]
class Activity--><g id="elem_Activity"><rect codeLine="3" fill="#F1F1F1" height="48" id="Activity" rx="2.5" ry="2.5" style="stroke:#181818;stroke-width:0.5;" width="84" x="865.5" y="217.245"/><ellipse cx="880.5" cy="233.245" fill="#A9DCDF" rx="11" ry="11" style="stroke:#181818;stroke-width:1.0;"/><path d="M882.5781,235.0575 L882.9688,236.0419 L882.5781,236.0419 C882.125,236.0419 882.0156,236.0575 881.8594,236.1669 C881.6094,236.3231 881.4531,236.6044 881.4531,236.9013 C881.4531,237.1669 881.5938,237.4169 881.8125,237.5731 C881.9531,237.6981 882.1563,237.745 882.5781,237.745 L884.9375,237.745 C885.2969,237.745 885.5156,237.7138 885.6563,237.62 C885.9063,237.4794 886.0625,237.1825 886.0625,236.9013 C886.0625,236.62 885.9219,236.37 885.7031,236.2138 C885.5313,236.0731 885.375,236.0419 884.9063,236.0419 L881.5156,227.8388 L877.8438,227.8388 C877.3906,227.8388 877.2656,227.8544 877.1094,227.9481 C876.8594,228.12 876.7031,228.4013 876.7031,228.6825 C876.7031,228.9638 876.8438,229.2138 877.0625,229.3856 C877.2344,229.495 877.4063,229.5263 877.8438,229.5263 L878.9219,229.5263 L876.2813,236.0419 C875.8594,236.0419 875.7031,236.0575 875.5469,236.1669 C875.2969,236.3231 875.1406,236.6044 875.1406,236.9013 C875.1406,237.4638 875.5156,237.745 876.2656,237.745 L878.5313,237.745 C878.8906,237.745 879.1094,237.7138 879.2344,237.62 C879.5,237.4794 879.6406,237.1825 879.6406,236.9013 C879.6406,236.62 879.5156,236.37 879.2969,236.1981 C879.125,236.0731 878.9844,236.0419 878.5313,236.0419 L878.1406,236.0419 L878.5313,235.0575 L882.5781,235.0575 Z M881.875,233.3544 L879.2031,233.3544 L880.5469,230.0888 L881.875,233.3544 Z " fill="#000000"/><text fill="#000000" font-family="sans-serif" font-size="14" font-style="italic" lengthAdjust="spacing" textLength="52" x="894.5" y="238.0917">Activity</text><line style="stroke:#181818;stroke-width:0.5;" x1="866.5" x2="948.5" y1="249.245" y2="249.245"/><line style="stroke:#181818;stroke-width:0.5;" x1="866.5" x2="948.5" y1="257.245" y2="257.245"/></g><!--MD5=[07aa7faaca1d5aeceacb3d120b4f8a30]
class Guidance--><g id="elem_Guidance"><rect fill="#F1F1F1" height="48" id="Guidance" rx="2.5" ry="2.5" style="stroke:#181818;stroke-width:0.5;" width="98" x="1031.5" y="101.245"/><ellipse cx="1046.5" cy="117.245" fill="#ADD1B2" rx="11" ry="11" style="stroke:#181818;stroke-width:1.0;"/><path d="M1048.8438,112.9169 C1047.9063,112.4794 1047.3125,112.3388 1046.4375,112.3388 C1043.8125,112.3388 1041.8125,114.4169 1041.8125,117.1356 L1041.8125,118.2606 C1041.8125,120.8388 1043.9219,122.7294 1046.8125,122.7294 C1048.0313,122.7294 1049.1875,122.4325 1049.9375,121.8856 C1050.5156,121.4794 1050.8438,121.0263 1050.8438,120.6356 C1050.8438,120.1825 1050.4531,119.7919 1049.9844,119.7919 C1049.7656,119.7919 1049.5625,119.87 1049.375,120.0575 C1048.9219,120.5419 1048.9219,120.5419 1048.7344,120.6356 C1048.3125,120.9013 1047.625,121.0263 1046.8594,121.0263 C1044.8125,121.0263 1043.5156,119.9325 1043.5156,118.2294 L1043.5156,117.1356 C1043.5156,115.3544 1044.7656,114.0419 1046.5,114.0419 C1047.0781,114.0419 1047.6875,114.1981 1048.1563,114.4481 C1048.6406,114.7294 1048.8125,114.9481 1048.9063,115.3544 C1048.9688,115.7606 1049,115.8856 1049.1406,116.0106 C1049.2813,116.1513 1049.5156,116.2606 1049.7344,116.2606 C1050,116.2606 1050.2656,116.12 1050.4375,115.9013 C1050.5469,115.745 1050.5781,115.5575 1050.5781,115.1356 L1050.5781,113.7138 C1050.5781,113.2763 1050.5625,113.1513 1050.4688,112.995 C1050.3125,112.7294 1050.0313,112.5888 1049.7344,112.5888 C1049.4375,112.5888 1049.2344,112.6825 1049.0156,112.995 L1048.8438,112.9169 Z " fill="#000000"/><text fill="#000000" font-family="sans-serif" font-size="14" lengthAdjust="spacing" textLength="66" x="1060.5" y="122.0917">Guidance</text><line style="stroke:#181818;stroke-width:0.5;" x1="1032.5" x2="1128.5" y1="133.245" y2="133.245"/><line style="stroke:#181818;stroke-width:0.5;" x1="1032.5" x2="1128.5" y1="141.245" y2="141.245"/></g><!--MD5=[81c4f8b5233297f66a4e402edbd6aa31]
class PublishedGuidance--><g id="elem_PublishedGuidance"><rect fill="#F1F1F1" height="48" id="PublishedGuidance" rx="2.5" ry="2.5" style="stroke:#181818;stroke-width:0.5;" width="167" x="292" y="101.245"/><ellipse cx="307" cy="117.245" fill="#ADD1B2" rx="11" ry="11" style="stroke:#181818;stroke-width:1.0;"/><path d="M309.3438,112.9169 C308.4063,112.4794 307.8125,112.3388 306.9375,112.3388 C304.3125,112.3388 302.3125,114.4169 302.3125,117.1356 L302.3125,118.2606 C302.3125,120.8388 304.4219,122.7294 307.3125,122.7294 C308.5313,122.7294 309.6875,122.4325 310.4375,121.8856 C311.0156,121.4794 311.3438,121.0263 311.3438,120.6356 C311.3438,120.1825 310.9531,119.7919 310.4844,119.7919 C310.2656,119.7919 310.0625,119.87 309.875,120.0575 C309.4219,120.5419 309.4219,120.5419 309.2344,120.6356 C308.8125,120.9013 308.125,121.0263 307.3594,121.0263 C305.3125,121.0263 304.0156,119.9325 304.0156,118.2294 L304.0156,117.1356 C304.0156,115.3544 305.2656,114.0419 307,114.0419 C307.5781,114.0419 308.1875,114.1981 308.6563,114.4481 C309.1406,114.7294 309.3125,114.9481 309.4063,115.3544 C309.4688,115.7606 309.5,115.8856 309.6406,116.0106 C309.7813,116.1513 310.0156,116.2606 310.2344,116.2606 C310.5,116.2606 310.7656,116.12 310.9375,115.9013 C311.0469,115.745 311.0781,115.5575 311.0781,115.1356 L311.0781,113.7138 C311.0781,113.2763 311.0625,113.1513 310.9688,112.995 C310.8125,112.7294 310.5313,112.5888 310.2344,112.5888 C309.9375,112.5888 309.7344,112.6825 309.5156,112.995 L309.3438,112.9169 Z " fill="#000000"/><text fill="#000000" font-family="sans-serif" font-size="14" lengthAdjust="spacing" textLength="135" x="321" y="122.0917">PublishedGuidance</text><line style="stroke:#181818;stroke-width:0.5;" x1="293" x2="458" y1="133.245" y2="133.245"/><line style="stroke:#181818;stroke-width:0.5;" x1="293" x2="458" y1="141.245" y2="141.245"/></g><!--MD5=[09ce52be0ee7de43c61b6e2d59bf108b]
class Person--><g id="elem_Person"><rect fill="#F1F1F1" height="48" id="Person" rx="2.5" ry="2.5" style="stroke:#181818;stroke-width:0.5;" width="81" x="7" y="101.245"/><ellipse cx="22" cy="117.245" fill="#ADD1B2" rx="11" ry="11" style="stroke:#181818;stroke-width:1.0;"/><path d="M24.3438,112.9169 C23.4063,112.4794 22.8125,112.3388 21.9375,112.3388 C19.3125,112.3388 17.3125,114.4169 17.3125,117.1356 L17.3125,118.2606 C17.3125,120.8388 19.4219,122.7294 22.3125,122.7294 C23.5313,122.7294 24.6875,122.4325 25.4375,121.8856 C26.0156,121.4794 26.3438,121.0263 26.3438,120.6356 C26.3438,120.1825 25.9531,119.7919 25.4844,119.7919 C25.2656,119.7919 25.0625,119.87 24.875,120.0575 C24.4219,120.5419 24.4219,120.5419 24.2344,120.6356 C23.8125,120.9013 23.125,121.0263 22.3594,121.0263 C20.3125,121.0263 19.0156,119.9325 19.0156,118.2294 L19.0156,117.1356 C19.0156,115.3544 20.2656,114.0419 22,114.0419 C22.5781,114.0419 23.1875,114.1981 23.6563,114.4481 C24.1406,114.7294 24.3125,114.9481 24.4063,115.3544 C24.4688,115.7606 24.5,115.8856 24.6406,116.0106 C24.7813,116.1513 25.0156,116.2606 25.2344,116.2606 C25.5,116.2606 25.7656,116.12 25.9375,115.9013 C26.0469,115.745 26.0781,115.5575 26.0781,115.1356 L26.0781,113.7138 C26.0781,113.2763 26.0625,113.1513 25.9688,112.995 C25.8125,112.7294 25.5313,112.5888 25.2344,112.5888 C24.9375,112.5888 24.7344,112.6825 24.5156,112.995 L24.3438,112.9169 Z " fill="#000000"/><text fill="#000000" font-family="sans-serif" font-size="14" lengthAdjust="spacing" textLength="49" x="36" y="122.0917">Person</text><line style="stroke:#181818;stroke-width:0.5;" x1="8" x2="87" y1="133.245" y2="133.245"/><line style="stroke:#181818;stroke-width:0.5;" x1="8" x2="87" y1="141.245" y2="141.245"/></g><!--MD5=[bfaa0cf1c94f172be725c75ad56c3fba]
class Publication--><g id="elem_Publication"><rect fill="#F1F1F1" height="48" id="Publication" rx="2.5" ry="2.5" style="stroke:#181818;stroke-width:0.5;" width="112" x="851.5" y="101.245"/><ellipse cx="866.5" cy="117.245" fill="#ADD1B2" rx="11" ry="11" style="stroke:#181818;stroke-width:1.0;"/><path d="M868.8438,112.9169 C867.9063,112.4794 867.3125,112.3388 866.4375,112.3388 C863.8125,112.3388 861.8125,114.4169 861.8125,117.1356 L861.8125,118.2606 C861.8125,120.8388 863.9219,122.7294 866.8125,122.7294 C868.0313,122.7294 869.1875,122.4325 869.9375,121.8856 C870.5156,121.4794 870.8438,121.0263 870.8438,120.6356 C870.8438,120.1825 870.4531,119.7919 869.9844,119.7919 C869.7656,119.7919 869.5625,119.87 869.375,120.0575 C868.9219,120.5419 868.9219,120.5419 868.7344,120.6356 C868.3125,120.9013 867.625,121.0263 866.8594,121.0263 C864.8125,121.0263 863.5156,119.9325 863.5156,118.2294 L863.5156,117.1356 C863.5156,115.3544 864.7656,114.0419 866.5,114.0419 C867.0781,114.0419 867.6875,114.1981 868.1563,114.4481 C868.6406,114.7294 868.8125,114.9481 868.9063,115.3544 C868.9688,115.7606 869,115.8856 869.1406,116.0106 C869.2813,116.1513 869.5156,116.2606 869.7344,116.2606 C870,116.2606 870.2656,116.12 870.4375,115.9013 C870.5469,115.745 870.5781,115.5575 870.5781,115.1356 L870.5781,113.7138 C870.5781,113.2763 870.5625,113.1513 870.4688,112.995 C870.3125,112.7294 870.0313,112.5888 869.7344,112.5888 C869.4375,112.5888 869.2344,112.6825 869.0156,112.995 L868.8438,112.9169 Z " fill="#000000"/><text fill="#000000" font-family="sans-serif" font-size="14" lengthAdjust="spacing" textLength="80" x="880.5" y="122.0917">Publication</text><line style="stroke:#181818;stroke-width:0.5;" x1="852.5" x2="962.5" y1="133.245" y2="133.245"/><line style="stroke:#181818;stroke-width:0.5;" x1="852.5" x2="962.5" y1="141.245" y2="141.245"/></g><!--MD5=[d35b0e7bbfe5e793efa0f7f8ce0c9266]
class Revision--><g id="elem_Revision"><rect fill="#F1F1F1" height="48" id="Revision" rx="2.5" ry="2.5" style="stroke:#181818;stroke-width:0.5;" width="92" x="720.5" y="101.245"/><ellipse cx="735.5" cy="117.245" fill="#ADD1B2" rx="11" ry="11" style="stroke:#181818;stroke-width:1.0;"/><path d="M737.8438,112.9169 C736.9063,112.4794 736.3125,112.3388 735.4375,112.3388 C732.8125,112.3388 730.8125,114.4169 730.8125,117.1356 L730.8125,118.2606 C730.8125,120.8388 732.9219,122.7294 735.8125,122.7294 C737.0313,122.7294 738.1875,122.4325 738.9375,121.8856 C739.5156,121.4794 739.8438,121.0263 739.8438,120.6356 C739.8438,120.1825 739.4531,119.7919 738.9844,119.7919 C738.7656,119.7919 738.5625,119.87 738.375,120.0575 C737.9219,120.5419 737.9219,120.5419 737.7344,120.6356 C737.3125,120.9013 736.625,121.0263 735.8594,121.0263 C733.8125,121.0263 732.5156,119.9325 732.5156,118.2294 L732.5156,117.1356 C732.5156,115.3544 733.7656,114.0419 735.5,114.0419 C736.0781,114.0419 736.6875,114.1981 737.1563,114.4481 C737.6406,114.7294 737.8125,114.9481 737.9063,115.3544 C737.9688,115.7606 738,115.8856 738.1406,116.0106 C738.2813,116.1513 738.5156,116.2606 738.7344,116.2606 C739,116.2606 739.2656,116.12 739.4375,115.9013 C739.5469,115.745 739.5781,115.5575 739.5781,115.1356 L739.5781,113.7138 C739.5781,113.2763 739.5625,113.1513 739.4688,112.995 C739.3125,112.7294 739.0313,112.5888 738.7344,112.5888 C738.4375,112.5888 738.2344,112.6825 738.0156,112.995 L737.8438,112.9169 Z " fill="#000000"/><text fill="#000000" font-family="sans-serif" font-size="14" lengthAdjust="spacing" textLength="60" x="749.5" y="122.0917">Revision</text><line style="stroke:#181818;stroke-width:0.5;" x1="721.5" x2="811.5" y1="133.245" y2="133.245"/><line style="stroke:#181818;stroke-width:0.5;" x1="721.5" x2="811.5" y1="141.245" y2="141.245"/></g><!--MD5=[59b530d44ae785dc18db921986a9c15c]
class Document--><g id="elem_Document"><rect fill="#F1F1F1" height="48" id="Document" rx="2.5" ry="2.5" style="stroke:#181818;stroke-width:0.5;" width="107" x="578" y="101.245"/><ellipse cx="593" cy="117.245" fill="#ADD1B2" rx="11" ry="11" style="stroke:#181818;stroke-width:1.0;"/><path d="M595.3438,112.9169 C594.4063,112.4794 593.8125,112.3388 592.9375,112.3388 C590.3125,112.3388 588.3125,114.4169 588.3125,117.1356 L588.3125,118.2606 C588.3125,120.8388 590.4219,122.7294 593.3125,122.7294 C594.5313,122.7294 595.6875,122.4325 596.4375,121.8856 C597.0156,121.4794 597.3438,121.0263 597.3438,120.6356 C597.3438,120.1825 596.9531,119.7919 596.4844,119.7919 C596.2656,119.7919 596.0625,119.87 595.875,120.0575 C595.4219,120.5419 595.4219,120.5419 595.2344,120.6356 C594.8125,120.9013 594.125,121.0263 593.3594,121.0263 C591.3125,121.0263 590.0156,119.9325 590.0156,118.2294 L590.0156,117.1356 C590.0156,115.3544 591.2656,114.0419 593,114.0419 C593.5781,114.0419 594.1875,114.1981 594.6563,114.4481 C595.1406,114.7294 595.3125,114.9481 595.4063,115.3544 C595.4688,115.7606 595.5,115.8856 595.6406,116.0106 C595.7813,116.1513 596.0156,116.2606 596.2344,116.2606 C596.5,116.2606 596.7656,116.12 596.9375,115.9013 C597.0469,115.745 597.0781,115.5575 597.0781,115.1356 L597.0781,113.7138 C597.0781,113.2763 597.0625,113.1513 596.9688,112.995 C596.8125,112.7294 596.5313,112.5888 596.2344,112.5888 C595.9375,112.5888 595.7344,112.6825 595.5156,112.995 L595.3438,112.9169 Z " fill="#000000"/><text fill="#000000" font-family="sans-serif" font-size="14" lengthAdjust="spacing" textLength="75" x="607" y="122.0917">Document</text><line style="stroke:#181818;stroke-width:0.5;" x1="579" x2="684" y1="133.245" y2="133.245"/><line style="stroke:#181818;stroke-width:0.5;" x1="579" x2="684" y1="141.245" y2="141.245"/></g><!--MD5=[05fc675d95a7b8ae4d4529efb189a013]
reverse link Guidance to Entity--><g id="link_Guidance_Entity"><path codeLine="5" d="M1064.05,167.9273 C1057.48,184.5627 1050.17,203.0783 1044.59,217.2097 " fill="none" id="Guidance-backto-Entity" style="stroke:#181818;stroke-width:1.0;"/><polygon fill="none" points="1057.54,165.3475,1071.39,149.315,1070.56,170.4879,1057.54,165.3475" style="stroke:#181818;stroke-width:1.0;"/></g><!--MD5=[821cfbef9fe918befde7e608331d4fe1]
reverse link PublishedGuidance to Entity--><g id="link_PublishedGuidance_Entity"><path codeLine="6" d="M479.106,143.264 C505.63,147.561 534.114,152.123 560.5,156.245 C740.784,184.4051 789.064,174.68 966.5,217.245 C977.305,219.8371 988.835,223.3649 999.315,226.8788 " fill="none" id="PublishedGuidance-backto-Entity" style="stroke:#181818;stroke-width:1.0;"/><polygon fill="none" points="477.891,150.158,459.273,140.041,480.136,136.34,477.891,150.158" style="stroke:#181818;stroke-width:1.0;"/></g><!--MD5=[a2a9146c54d208d05afda3efae3ad87d]
reverse link Person to Agent--><g id="link_Person_Agent"><path codeLine="7" d="M47.5,169.5694 C47.5,185.7721 47.5,203.5416 47.5,217.2097 " fill="none" id="Person-backto-Agent" style="stroke:#181818;stroke-width:1.0;"/><polygon fill="none" points="40.5001,169.3146,47.5,149.315,54.5001,169.3146,40.5001,169.3146" style="stroke:#181818;stroke-width:1.0;"/></g><!--MD5=[3af288516f42dba9189537d3b5d8311a]
reverse link Publication to Activity--><g id="link_Publication_Activity"><path codeLine="8" d="M907.5,169.5694 C907.5,185.7721 907.5,203.5416 907.5,217.2097 " fill="none" id="Publication-backto-Activity" style="stroke:#181818;stroke-width:1.0;"/><polygon fill="none" points="900.5,169.3146,907.5,149.315,914.5,169.3146,900.5,169.3146" style="stroke:#181818;stroke-width:1.0;"/></g><!--MD5=[7af627a0a6bbca76d88c616b1c92b90a]
link Person to Publication--><g id="link_Person_Publication"><path codeLine="11" d="M88.1658,116.902 C190.514,96.382 467.286,43.847 701,26.245 C734.461,23.725 823.047,9.284 852,26.245 C877.555,41.215 892.234,72.735 899.999,96.21 " fill="none" id="Person-to-Publication" style="stroke:#181818;stroke-width:1.0;"/><polygon fill="#181818" points="901.552,101.088,902.6326,91.2986,900.0349,96.3237,895.0097,93.726,901.552,101.088" style="stroke:#181818;stroke-width:1.0;"/><text fill="#000000" font-family="sans-serif" font-size="13" lengthAdjust="spacing" textLength="125" x="714" y="25.3119">wasAssociatedWith</text><path d="M706,34.3778 L706,59.3778 L847,59.3778 L847,44.3778 L837,34.3778 L706,34.3778 " fill="#FEFFDD" style="stroke:#181818;stroke-width:0.5;"/><path d="M837,34.3778 L837,44.3778 L847,44.3778 L837,34.3778 " fill="#FEFFDD" style="stroke:#181818;stroke-width:0.5;"/><text fill="#000000" font-family="sans-serif" font-size="13" lengthAdjust="spacing" textLength="120" x="712" y="51.4447">(role=Stakeholder)</text></g><!--MD5=[7af627a0a6bbca76d88c616b1c92b90a]
link Person to Publication--><g id="link_Person_Publication"><path codeLine="15" d="M88.1658,116.902 C190.514,96.382 467.286,43.847 701,26.245 C734.461,23.725 823.047,9.284 852,26.245 C877.555,41.215 892.234,72.735 899.999,96.21 " fill="none" id="Person-to-Publication-1" style="stroke:#181818;stroke-width:1.0;"/><polygon fill="#181818" points="901.552,101.088,902.6326,91.2986,900.0349,96.3237,895.0097,93.726,901.552,101.088" style="stroke:#181818;stroke-width:1.0;"/><text fill="#000000" font-family="sans-serif" font-size="13" lengthAdjust="spacing" textLength="125" x="714" y="25.3119">wasAssociatedWith</text><path d="M725.5,34.3778 L725.5,59.3778 L827.5,59.3778 L827.5,44.3778 L817.5,34.3778 L725.5,34.3778 " fill="#FEFFDD" style="stroke:#181818;stroke-width:0.5;"/><path d="M817.5,34.3778 L817.5,44.3778 L827.5,44.3778 L817.5,34.3778 " fill="#FEFFDD" style="stroke:#181818;stroke-width:0.5;"/><text fill="#000000" font-family="sans-serif" font-size="13" lengthAdjust="spacing" textLength="81" x="731.5" y="51.4447">(role=Editor)</text></g><!--MD5=[0931c9952d205bd1deb8f05c118202b2]
link Person to Person--><g id="link_Person_Person"><path codeLine="13" d="M88.276,114.193 C106.8523,113.065 123,116.749 123,125.245 C123,132.945 109.738,136.692 93.4253,136.487 " fill="none" id="Person-to-Person" style="stroke:#181818;stroke-width:1.0;"/><polygon fill="#181818" points="88.276,136.297,97.1218,140.6273,93.2726,136.482,97.4179,132.6328,88.276,136.297" style="stroke:#181818;stroke-width:1.0;"/><text fill="#000000" font-family="sans-serif" font-size="13" lengthAdjust="spacing" textLength="109" x="144" y="112.3119">actedOnBehalfOf</text><path d="M128,126.3778 L128,151.3778 L269,151.3778 L269,136.3778 L259,126.3778 L128,126.3778 " fill="#FEFFDD" style="stroke:#181818;stroke-width:0.5;"/><path d="M259,126.3778 L259,136.3778 L269,136.3778 L259,126.3778 " fill="#FEFFDD" style="stroke:#181818;stroke-width:0.5;"/><text fill="#000000" font-family="sans-serif" font-size="13" lengthAdjust="spacing" textLength="120" x="134" y="143.4447">(role=Stakeholder)</text></g><!--MD5=[0d196ff2e303655185dd720827c358f4]
link PublishedGuidance to Revision--><g id="link_PublishedGuidance_Revision"><path codeLine="17" d="M391.689,101.185 C406.469,81.568 430.274,55.286 458.5,43.745 C550.812,6 665.875,61.851 725.85,98.181 " fill="none" id="PublishedGuidance-to-Revision" style="stroke:#181818;stroke-width:1.0;"/><polygon fill="#181818" points="730.424,100.979,724.8327,92.8712,726.1584,98.3705,720.659,99.6962,730.424,100.979" style="stroke:#181818;stroke-width:1.0;"/><text fill="#000000" font-family="sans-serif" font-size="13" lengthAdjust="spacing" textLength="118" x="459.5" y="42.8119">hadPrimarySource</text></g><!--MD5=[b88acac280cf9933169186a61bb1ac47]
link Publication to Guidance--><g id="link_Publication_Guidance"><path codeLine="18" d="M963.668,125.245 C983.769,125.245 1006.372,125.245 1026.3,125.245 " fill="none" id="Publication-to-Guidance" style="stroke:#181818;stroke-width:1.0;"/><polygon fill="#181818" points="1031.31,125.245,1022.31,121.245,1026.31,125.245,1022.31,129.245,1031.31,125.245" style="stroke:#181818;stroke-width:1.0;"/><text fill="#000000" font-family="sans-serif" font-size="13" lengthAdjust="spacing" textLength="31" x="982" y="118.3119">used</text></g><!--MD5=[f7a55d1c18581ddcd3001da6e2fcb81e]
link PublishedGuidance to Publication--><g id="link_PublishedGuidance_Publication"><path codeLine="19" d="M421.912,101.24 C463.106,81.369 525.573,54.689 583.5,43.745 C693.173,23.025 725.414,53.952 829.5,94.245 C835.021,96.382 840.753,98.622 846.492,100.877 " fill="none" id="PublishedGuidance-to-Publication" style="stroke:#181818;stroke-width:1.0;"/><polygon fill="#181818" points="851.309,102.774,844.4002,95.7549,846.6566,100.9422,841.4693,103.1987,851.309,102.774" style="stroke:#181818;stroke-width:1.0;"/><text fill="#000000" font-family="sans-serif" font-size="13" lengthAdjust="spacing" textLength="110" x="584.5" y="42.8119">wasGeneratedBy</text></g><!--MD5=[cdc806fa83a76d81cfe87a2554076b8a]
link PublishedGuidance to Document--><g id="link_PublishedGuidance_Document"><path codeLine="20" d="M459.324,125.245 C496.281,125.245 538.838,125.245 572.396,125.245 " fill="none" id="PublishedGuidance-to-Document" style="stroke:#181818;stroke-width:1.0;"/><polygon fill="#181818" points="577.702,125.245,568.702,121.245,572.702,125.245,568.702,129.245,577.702,125.245" style="stroke:#181818;stroke-width:1.0;"/><text fill="#000000" font-family="sans-serif" font-size="13" lengthAdjust="spacing" textLength="82" x="477.5" y="118.3119">hadEvidence</text></g><!--MD5=[4eb8580329fb578de9458c5a3e4efbbd]
@startuml
abstract Entity
abstract Agent
abstract Activity

Guidance <|- - Entity
PublishedGuidance <|- - Entity
Person <|- - Agent
Publication <|- - Activity


Person -> Publication: wasAssociatedWith
note on link: (role=Stakeholder)
Person -> Person: actedOnBehalfOf
note on link: (role=Stakeholder)
Person -> Publication: wasAssociatedWith
note on link: (role=Editor)
PublishedGuidance -> Revision: hadPrimarySource
Publication -> Guidance : used
PublishedGuidance -> Publication: wasGeneratedBy
PublishedGuidance -> Document: hadEvidence
@enduml

PlantUML version 1.2022.7beta2(Unknown compile time)
(GPL source distribution)
Java Runtime: Java(TM) SE Runtime Environment
JVM: Java HotSpot(TM) 64-Bit Server VM
Default Encoding: UTF-8
Language: en
Country: US
--></g></svg>