<?xml version="1.0" encoding="UTF-8" standalone="no"?><svg xmlns="http://www.w3.org/2000/svg" xmlns:xlink="http://www.w3.org/1999/xlink" contentStyleType="text/css" height="254px" preserveAspectRatio="none" style="width:700px;height:254px;background:#FFFFFF;" version="1.1" viewBox="0 0 700 254" width="700px" zoomAndPan="magnify"><defs/><g><!--MD5=[be996cdb8e6bf2fc7cb89c555f2cd144]
class Entity--><g id="elem_Entity"><rect codeLine="1" fill="#F1F1F1" height="48" id="Entity" rx="2.5" ry="2.5" style="stroke:#181818;stroke-width:0.5;" width="72" x="322.5" y="199.889"/><ellipse cx="337.5" cy="215.889" fill="#A9DCDF" rx="11" ry="11" style="stroke:#181818;stroke-width:1.0;"/><path d="M339.5781,217.7015 L339.9688,218.6859 L339.5781,218.6859 C339.125,218.6859 339.0156,218.7015 338.8594,218.8109 C338.6094,218.9671 338.4531,219.2484 338.4531,219.5453 C338.4531,219.8109 338.5938,220.0609 338.8125,220.2171 C338.9531,220.3421 339.1563,220.389 339.5781,220.389 L341.9375,220.389 C342.2969,220.389 342.5156,220.3578 342.6563,220.264 C342.9063,220.1234 343.0625,219.8265 343.0625,219.5453 C343.0625,219.264 342.9219,219.014 342.7031,218.8578 C342.5313,218.7171 342.375,218.6859 341.9063,218.6859 L338.5156,210.4828 L334.8438,210.4828 C334.3906,210.4828 334.2656,210.4984 334.1094,210.5921 C333.8594,210.764 333.7031,211.0453 333.7031,211.3265 C333.7031,211.6078 333.8438,211.8578 334.0625,212.0296 C334.2344,212.139 334.4063,212.1703 334.8438,212.1703 L335.9219,212.1703 L333.2813,218.6859 C332.8594,218.6859 332.7031,218.7015 332.5469,218.8109 C332.2969,218.9671 332.1406,219.2484 332.1406,219.5453 C332.1406,220.1078 332.5156,220.389 333.2656,220.389 L335.5313,220.389 C335.8906,220.389 336.1094,220.3578 336.2344,220.264 C336.5,220.1234 336.6406,219.8265 336.6406,219.5453 C336.6406,219.264 336.5156,219.014 336.2969,218.8421 C336.125,218.7171 335.9844,218.6859 335.5313,218.6859 L335.1406,218.6859 L335.5313,217.7015 L339.5781,217.7015 Z M338.875,215.9984 L336.2031,215.9984 L337.5469,212.7328 L338.875,215.9984 Z " fill="#000000"/><text fill="#000000" font-family="sans-serif" font-size="14" font-style="italic" lengthAdjust="spacing" textLength="40" x="351.5" y="220.7357">Entity</text><line style="stroke:#181818;stroke-width:0.5;" x1="323.5" x2="393.5" y1="231.889" y2="231.889"/><line style="stroke:#181818;stroke-width:0.5;" x1="323.5" x2="393.5" y1="239.889" y2="239.889"/></g><!--MD5=[9d44916250b776386006c440668bcfbb]
class Agent--><g id="elem_Agent"><rect codeLine="2" fill="#F1F1F1" height="48" id="Agent" rx="2.5" ry="2.5" style="stroke:#181818;stroke-width:0.5;" width="74" x="80.5" y="199.889"/><ellipse cx="95.5" cy="215.889" fill="#A9DCDF" rx="11" ry="11" style="stroke:#181818;stroke-width:1.0;"/><path d="M97.5781,217.7015 L97.9688,218.6859 L97.5781,218.6859 C97.125,218.6859 97.0156,218.7015 96.8594,218.8109 C96.6094,218.9671 96.4531,219.2484 96.4531,219.5453 C96.4531,219.8109 96.5938,220.0609 96.8125,220.2171 C96.9531,220.3421 97.1563,220.389 97.5781,220.389 L99.9375,220.389 C100.2969,220.389 100.5156,220.3578 100.6563,220.264 C100.9063,220.1234 101.0625,219.8265 101.0625,219.5453 C101.0625,219.264 100.9219,219.014 100.7031,218.8578 C100.5313,218.7171 100.375,218.6859 99.9063,218.6859 L96.5156,210.4828 L92.8438,210.4828 C92.3906,210.4828 92.2656,210.4984 92.1094,210.5921 C91.8594,210.764 91.7031,211.0453 91.7031,211.3265 C91.7031,211.6078 91.8438,211.8578 92.0625,212.0296 C92.2344,212.139 92.4063,212.1703 92.8438,212.1703 L93.9219,212.1703 L91.2813,218.6859 C90.8594,218.6859 90.7031,218.7015 90.5469,218.8109 C90.2969,218.9671 90.1406,219.2484 90.1406,219.5453 C90.1406,220.1078 90.5156,220.389 91.2656,220.389 L93.5313,220.389 C93.8906,220.389 94.1094,220.3578 94.2344,220.264 C94.5,220.1234 94.6406,219.8265 94.6406,219.5453 C94.6406,219.264 94.5156,219.014 94.2969,218.8421 C94.125,218.7171 93.9844,218.6859 93.5313,218.6859 L93.1406,218.6859 L93.5313,217.7015 L97.5781,217.7015 Z M96.875,215.9984 L94.2031,215.9984 L95.5469,212.7328 L96.875,215.9984 Z " fill="#000000"/><text fill="#000000" font-family="sans-serif" font-size="14" font-style="italic" lengthAdjust="spacing" textLength="42" x="109.5" y="220.7357">Agent</text><line style="stroke:#181818;stroke-width:0.5;" x1="81.5" x2="153.5" y1="231.889" y2="231.889"/><line style="stroke:#181818;stroke-width:0.5;" x1="81.5" x2="153.5" y1="239.889" y2="239.889"/></g><!--MD5=[c881b25adf3665c6568c9693d41a70f3]
class Activity--><g id="elem_Activity"><rect codeLine="3" fill="#F1F1F1" height="48" id="Activity" rx="2.5" ry="2.5" style="stroke:#181818;stroke-width:0.5;" width="84" x="581.5" y="199.889"/><ellipse cx="596.5" cy="215.889" fill="#A9DCDF" rx="11" ry="11" style="stroke:#181818;stroke-width:1.0;"/><path d="M598.5781,217.7015 L598.9688,218.6859 L598.5781,218.6859 C598.125,218.6859 598.0156,218.7015 597.8594,218.8109 C597.6094,218.9671 597.4531,219.2484 597.4531,219.5453 C597.4531,219.8109 597.5938,220.0609 597.8125,220.2171 C597.9531,220.3421 598.1563,220.389 598.5781,220.389 L600.9375,220.389 C601.2969,220.389 601.5156,220.3578 601.6563,220.264 C601.9063,220.1234 602.0625,219.8265 602.0625,219.5453 C602.0625,219.264 601.9219,219.014 601.7031,218.8578 C601.5313,218.7171 601.375,218.6859 600.9063,218.6859 L597.5156,210.4828 L593.8438,210.4828 C593.3906,210.4828 593.2656,210.4984 593.1094,210.5921 C592.8594,210.764 592.7031,211.0453 592.7031,211.3265 C592.7031,211.6078 592.8438,211.8578 593.0625,212.0296 C593.2344,212.139 593.4063,212.1703 593.8438,212.1703 L594.9219,212.1703 L592.2813,218.6859 C591.8594,218.6859 591.7031,218.7015 591.5469,218.8109 C591.2969,218.9671 591.1406,219.2484 591.1406,219.5453 C591.1406,220.1078 591.5156,220.389 592.2656,220.389 L594.5313,220.389 C594.8906,220.389 595.1094,220.3578 595.2344,220.264 C595.5,220.1234 595.6406,219.8265 595.6406,219.5453 C595.6406,219.264 595.5156,219.014 595.2969,218.8421 C595.125,218.7171 594.9844,218.6859 594.5313,218.6859 L594.1406,218.6859 L594.5313,217.7015 L598.5781,217.7015 Z M597.875,215.9984 L595.2031,215.9984 L596.5469,212.7328 L597.875,215.9984 Z " fill="#000000"/><text fill="#000000" font-family="sans-serif" font-size="14" font-style="italic" lengthAdjust="spacing" textLength="52" x="610.5" y="220.7357">Activity</text><line style="stroke:#181818;stroke-width:0.5;" x1="582.5" x2="664.5" y1="231.889" y2="231.889"/><line style="stroke:#181818;stroke-width:0.5;" x1="582.5" x2="664.5" y1="239.889" y2="239.889"/></g><!--MD5=[fc7123defb831ecdd44b2d9bcef6cceb]
class Question--><g id="elem_Question"><rect fill="#F1F1F1" height="48" id="Question" rx="2.5" ry="2.5" style="stroke:#181818;stroke-width:0.5;" width="96" x="310.5" y="90.889"/><ellipse cx="325.5" cy="106.889" fill="#ADD1B2" rx="11" ry="11" style="stroke:#181818;stroke-width:1.0;"/><path d="M327.8438,102.5609 C326.9063,102.1234 326.3125,101.9828 325.4375,101.9828 C322.8125,101.9828 320.8125,104.0609 320.8125,106.7796 L320.8125,107.9046 C320.8125,110.4828 322.9219,112.3734 325.8125,112.3734 C327.0313,112.3734 328.1875,112.0765 328.9375,111.5296 C329.5156,111.1234 329.8438,110.6703 329.8438,110.2796 C329.8438,109.8265 329.4531,109.4359 328.9844,109.4359 C328.7656,109.4359 328.5625,109.514 328.375,109.7015 C327.9219,110.1859 327.9219,110.1859 327.7344,110.2796 C327.3125,110.5453 326.625,110.6703 325.8594,110.6703 C323.8125,110.6703 322.5156,109.5765 322.5156,107.8734 L322.5156,106.7796 C322.5156,104.9984 323.7656,103.6859 325.5,103.6859 C326.0781,103.6859 326.6875,103.8421 327.1563,104.0921 C327.6406,104.3734 327.8125,104.5921 327.9063,104.9984 C327.9688,105.4046 328,105.5296 328.1406,105.6546 C328.2813,105.7953 328.5156,105.9046 328.7344,105.9046 C329,105.9046 329.2656,105.764 329.4375,105.5453 C329.5469,105.389 329.5781,105.2015 329.5781,104.7796 L329.5781,103.3578 C329.5781,102.9203 329.5625,102.7953 329.4688,102.639 C329.3125,102.3734 329.0313,102.2328 328.7344,102.2328 C328.4375,102.2328 328.2344,102.3265 328.0156,102.639 L327.8438,102.5609 Z " fill="#000000"/><text fill="#000000" font-family="sans-serif" font-size="14" lengthAdjust="spacing" textLength="64" x="339.5" y="111.7357">Question</text><line style="stroke:#181818;stroke-width:0.5;" x1="311.5" x2="405.5" y1="122.889" y2="122.889"/><line style="stroke:#181818;stroke-width:0.5;" x1="311.5" x2="405.5" y1="130.889" y2="130.889"/></g><!--MD5=[09ce52be0ee7de43c61b6e2d59bf108b]
class Person--><g id="elem_Person"><rect fill="#F1F1F1" height="48" id="Person" rx="2.5" ry="2.5" style="stroke:#181818;stroke-width:0.5;" width="81" x="7" y="90.889"/><ellipse cx="22" cy="106.889" fill="#ADD1B2" rx="11" ry="11" style="stroke:#181818;stroke-width:1.0;"/><path d="M24.3438,102.5609 C23.4063,102.1234 22.8125,101.9828 21.9375,101.9828 C19.3125,101.9828 17.3125,104.0609 17.3125,106.7796 L17.3125,107.9046 C17.3125,110.4828 19.4219,112.3734 22.3125,112.3734 C23.5313,112.3734 24.6875,112.0765 25.4375,111.5296 C26.0156,111.1234 26.3438,110.6703 26.3438,110.2796 C26.3438,109.8265 25.9531,109.4359 25.4844,109.4359 C25.2656,109.4359 25.0625,109.514 24.875,109.7015 C24.4219,110.1859 24.4219,110.1859 24.2344,110.2796 C23.8125,110.5453 23.125,110.6703 22.3594,110.6703 C20.3125,110.6703 19.0156,109.5765 19.0156,107.8734 L19.0156,106.7796 C19.0156,104.9984 20.2656,103.6859 22,103.6859 C22.5781,103.6859 23.1875,103.8421 23.6563,104.0921 C24.1406,104.3734 24.3125,104.5921 24.4063,104.9984 C24.4688,105.4046 24.5,105.5296 24.6406,105.6546 C24.7813,105.7953 25.0156,105.9046 25.2344,105.9046 C25.5,105.9046 25.7656,105.764 25.9375,105.5453 C26.0469,105.389 26.0781,105.2015 26.0781,104.7796 L26.0781,103.3578 C26.0781,102.9203 26.0625,102.7953 25.9688,102.639 C25.8125,102.3734 25.5313,102.2328 25.2344,102.2328 C24.9375,102.2328 24.7344,102.3265 24.5156,102.639 L24.3438,102.5609 Z " fill="#000000"/><text fill="#000000" font-family="sans-serif" font-size="14" lengthAdjust="spacing" textLength="49" x="36" y="111.7357">Person</text><line style="stroke:#181818;stroke-width:0.5;" x1="8" x2="87" y1="122.889" y2="122.889"/><line style="stroke:#181818;stroke-width:0.5;" x1="8" x2="87" y1="130.889" y2="130.889"/></g><!--MD5=[86c7c362de55a38b660185a1328fe18d]
class Organization--><g id="elem_Organization"><rect fill="#F1F1F1" height="48" id="Organization" rx="2.5" ry="2.5" style="stroke:#181818;stroke-width:0.5;" width="124" x="123.5" y="90.889"/><ellipse cx="138.5" cy="106.889" fill="#ADD1B2" rx="11" ry="11" style="stroke:#181818;stroke-width:1.0;"/><path d="M140.8438,102.5609 C139.9063,102.1234 139.3125,101.9828 138.4375,101.9828 C135.8125,101.9828 133.8125,104.0609 133.8125,106.7796 L133.8125,107.9046 C133.8125,110.4828 135.9219,112.3734 138.8125,112.3734 C140.0313,112.3734 141.1875,112.0765 141.9375,111.5296 C142.5156,111.1234 142.8438,110.6703 142.8438,110.2796 C142.8438,109.8265 142.4531,109.4359 141.9844,109.4359 C141.7656,109.4359 141.5625,109.514 141.375,109.7015 C140.9219,110.1859 140.9219,110.1859 140.7344,110.2796 C140.3125,110.5453 139.625,110.6703 138.8594,110.6703 C136.8125,110.6703 135.5156,109.5765 135.5156,107.8734 L135.5156,106.7796 C135.5156,104.9984 136.7656,103.6859 138.5,103.6859 C139.0781,103.6859 139.6875,103.8421 140.1563,104.0921 C140.6406,104.3734 140.8125,104.5921 140.9063,104.9984 C140.9688,105.4046 141,105.5296 141.1406,105.6546 C141.2813,105.7953 141.5156,105.9046 141.7344,105.9046 C142,105.9046 142.2656,105.764 142.4375,105.5453 C142.5469,105.389 142.5781,105.2015 142.5781,104.7796 L142.5781,103.3578 C142.5781,102.9203 142.5625,102.7953 142.4688,102.639 C142.3125,102.3734 142.0313,102.2328 141.7344,102.2328 C141.4375,102.2328 141.2344,102.3265 141.0156,102.639 L140.8438,102.5609 Z " fill="#000000"/><text fill="#000000" font-family="sans-serif" font-size="14" lengthAdjust="spacing" textLength="92" x="152.5" y="111.7357">Organization</text><line style="stroke:#181818;stroke-width:0.5;" x1="124.5" x2="246.5" y1="122.889" y2="122.889"/><line style="stroke:#181818;stroke-width:0.5;" x1="124.5" x2="246.5" y1="130.889" y2="130.889"/></g><!--MD5=[298d88f07b5e63dbf4e3eb3f98d9ab40]
class QuestionAsked--><g id="elem_QuestionAsked"><rect fill="#F1F1F1" height="48" id="QuestionAsked" rx="2.5" ry="2.5" style="stroke:#181818;stroke-width:0.5;" width="140" x="553.5" y="90.889"/><ellipse cx="568.5" cy="106.889" fill="#ADD1B2" rx="11" ry="11" style="stroke:#181818;stroke-width:1.0;"/><path d="M570.8438,102.5609 C569.9063,102.1234 569.3125,101.9828 568.4375,101.9828 C565.8125,101.9828 563.8125,104.0609 563.8125,106.7796 L563.8125,107.9046 C563.8125,110.4828 565.9219,112.3734 568.8125,112.3734 C570.0313,112.3734 571.1875,112.0765 571.9375,111.5296 C572.5156,111.1234 572.8438,110.6703 572.8438,110.2796 C572.8438,109.8265 572.4531,109.4359 571.9844,109.4359 C571.7656,109.4359 571.5625,109.514 571.375,109.7015 C570.9219,110.1859 570.9219,110.1859 570.7344,110.2796 C570.3125,110.5453 569.625,110.6703 568.8594,110.6703 C566.8125,110.6703 565.5156,109.5765 565.5156,107.8734 L565.5156,106.7796 C565.5156,104.9984 566.7656,103.6859 568.5,103.6859 C569.0781,103.6859 569.6875,103.8421 570.1563,104.0921 C570.6406,104.3734 570.8125,104.5921 570.9063,104.9984 C570.9688,105.4046 571,105.5296 571.1406,105.6546 C571.2813,105.7953 571.5156,105.9046 571.7344,105.9046 C572,105.9046 572.2656,105.764 572.4375,105.5453 C572.5469,105.389 572.5781,105.2015 572.5781,104.7796 L572.5781,103.3578 C572.5781,102.9203 572.5625,102.7953 572.4688,102.639 C572.3125,102.3734 572.0313,102.2328 571.7344,102.2328 C571.4375,102.2328 571.2344,102.3265 571.0156,102.639 L570.8438,102.5609 Z " fill="#000000"/><text fill="#000000" font-family="sans-serif" font-size="14" lengthAdjust="spacing" textLength="108" x="582.5" y="111.7357">QuestionAsked</text><line style="stroke:#181818;stroke-width:0.5;" x1="554.5" x2="692.5" y1="122.889" y2="122.889"/><line style="stroke:#181818;stroke-width:0.5;" x1="554.5" x2="692.5" y1="130.889" y2="130.889"/></g><!--MD5=[690c7b66534f348dab3eeb4aca2de1e3]
reverse link Question to Entity--><g id="link_Question_Entity"><path codeLine="5" d="M358.5,159.4668 C358.5,173.2512 358.5,187.9464 358.5,199.7169 " fill="none" id="Question-backto-Entity" style="stroke:#181818;stroke-width:1.0;"/><polygon fill="none" points="351.5,159.1064,358.5,139.106,365.5,159.1064,351.5,159.1064" style="stroke:#181818;stroke-width:1.0;"/></g><!--MD5=[a2a9146c54d208d05afda3efae3ad87d]
reverse link Person to Agent--><g id="link_Person_Agent"><path codeLine="6" d="M73.7682,156.0419 C83.4111,170.7817 93.9986,186.9655 102.3407,199.7169 " fill="none" id="Person-backto-Agent" style="stroke:#181818;stroke-width:1.0;"/><polygon fill="none" points="67.7804,159.6753,62.689,139.106,79.496,152.0108,67.7804,159.6753" style="stroke:#181818;stroke-width:1.0;"/></g><!--MD5=[fec841f5cb7a28cb8be0b347f6856344]
reverse link Organization to Agent--><g id="link_Organization_Agent"><path codeLine="7" d="M159.982,156.0419 C150.615,170.7817 140.33,186.9655 132.226,199.7169 " fill="none" id="Organization-backto-Agent" style="stroke:#181818;stroke-width:1.0;"/><polygon fill="none" points="154.11,152.2316,170.745,139.106,165.926,159.7407,154.11,152.2316" style="stroke:#181818;stroke-width:1.0;"/></g><!--MD5=[6553a38b171f9ae9c4f9562e8c713402]
reverse link QuestionAsked to Activity--><g id="link_QuestionAsked_Activity"><path codeLine="8" d="M623.5,159.4668 C623.5,173.2512 623.5,187.9464 623.5,199.7169 " fill="none" id="QuestionAsked-backto-Activity" style="stroke:#181818;stroke-width:1.0;"/><polygon fill="none" points="616.5,159.1064,623.5,139.106,630.5,159.1064,616.5,159.1064" style="stroke:#181818;stroke-width:1.0;"/></g><!--MD5=[f20fccb2a3bb0dcd75aeec3ed22847ad]
link Person to QuestionAsked--><g id="link_Person_QuestionAsked"><path codeLine="10" d="M88.063,97.119 C93.86,94.869 99.7923,92.718 105.5,90.889 C234.757,49.467 268.148,37.322 403,21.889 C436.338,18.074 524,6.857 554,21.889 C580.582,35.208 599.605,64.055 610.955,86.114 " fill="none" id="Person-to-QuestionAsked" style="stroke:#181818;stroke-width:1.0;"/><polygon fill="#181818" points="613.261,90.71,612.8025,80.8718,611.0198,86.2404,605.6512,84.4578,613.261,90.71" style="stroke:#181818;stroke-width:1.0;"/><text fill="#000000" font-family="sans-serif" font-size="13" lengthAdjust="spacing" textLength="125" x="416" y="21.9559">wasAssociatedWith</text><path d="M408,31.0218 L408,56.0218 L549,56.0218 L549,41.0218 L539,31.0218 L408,31.0218 " fill="#FEFFDD" style="stroke:#181818;stroke-width:0.5;"/><path d="M539,31.0218 L539,41.0218 L549,41.0218 L539,31.0218 " fill="#FEFFDD" style="stroke:#181818;stroke-width:0.5;"/><text fill="#000000" font-family="sans-serif" font-size="13" lengthAdjust="spacing" textLength="120" x="414" y="48.0887">(role=Stakeholder)</text></g><!--MD5=[f20fccb2a3bb0dcd75aeec3ed22847ad]
link Person to QuestionAsked--><g id="link_Person_QuestionAsked"><path codeLine="14" d="M88.063,97.119 C93.86,94.869 99.7923,92.718 105.5,90.889 C234.757,49.467 268.148,37.322 403,21.889 C436.338,18.074 524,6.857 554,21.889 C580.582,35.208 599.605,64.055 610.955,86.114 " fill="none" id="Person-to-QuestionAsked-1" style="stroke:#181818;stroke-width:1.0;"/><polygon fill="#181818" points="613.261,90.71,612.8025,80.8718,611.0198,86.2404,605.6512,84.4578,613.261,90.71" style="stroke:#181818;stroke-width:1.0;"/><text fill="#000000" font-family="sans-serif" font-size="13" lengthAdjust="spacing" textLength="125" x="416" y="21.9559">wasAssociatedWith</text><path d="M424.5,31.0218 L424.5,56.0218 L532.5,56.0218 L532.5,41.0218 L522.5,31.0218 L424.5,31.0218 " fill="#FEFFDD" style="stroke:#181818;stroke-width:0.5;"/><path d="M522.5,31.0218 L522.5,41.0218 L532.5,41.0218 L522.5,31.0218 " fill="#FEFFDD" style="stroke:#181818;stroke-width:0.5;"/><text fill="#000000" font-family="sans-serif" font-size="13" lengthAdjust="spacing" textLength="87" x="430.5" y="48.0887">(role=Author)</text></g><!--MD5=[52e2a136900eb3d0baeb4a9a27e1534c]
link Organization to QuestionAsked--><g id="link_Organization_QuestionAsked"><path codeLine="12" d="M193.794,90.804 C202.949,68.402 220.062,36.371 247,21.889 C276.555,6 365.084,15.368 398,21.889 C462.057,34.58 530.763,65.726 575.275,88.489 " fill="none" id="Organization-to-QuestionAsked" style="stroke:#181818;stroke-width:1.0;"/><polygon fill="#181818" points="579.775,90.803,573.6019,83.1289,575.3289,88.5156,569.9421,90.2427,579.775,90.803" style="stroke:#181818;stroke-width:1.0;"/><text fill="#000000" font-family="sans-serif" font-size="13" lengthAdjust="spacing" textLength="125" x="260" y="21.9559">wasAssociatedWith</text><path d="M252,31.0218 L252,56.0218 L393,56.0218 L393,41.0218 L383,31.0218 L252,31.0218 " fill="#FEFFDD" style="stroke:#181818;stroke-width:0.5;"/><path d="M383,31.0218 L383,41.0218 L393,41.0218 L383,31.0218 " fill="#FEFFDD" style="stroke:#181818;stroke-width:0.5;"/><text fill="#000000" font-family="sans-serif" font-size="13" lengthAdjust="spacing" textLength="120" x="258" y="48.0887">(role=Stakeholder)</text></g><!--MD5=[77d091f14117d6a5eb7346b621670c9c]
link Question to QuestionAsked--><g id="link_Question_QuestionAsked"><path codeLine="16" d="M406.797,114.889 C446.256,114.889 502.726,114.889 548.128,114.889 " fill="none" id="Question-to-QuestionAsked" style="stroke:#181818;stroke-width:1.0;"/><polygon fill="#181818" points="553.326,114.889,544.326,110.889,548.326,114.889,544.326,118.889,553.326,114.889" style="stroke:#181818;stroke-width:1.0;"/><text fill="#000000" font-family="sans-serif" font-size="13" lengthAdjust="spacing" textLength="110" x="425" y="107.9559">wasGeneratedBy</text></g><!--MD5=[33a3cc6189488c2d11a1d306167c908a]
@startuml
abstract Entity
abstract Agent
abstract Activity

Question <|- - Entity
Person <|- - Agent
Organization <|- - Agent
QuestionAsked <|- - Activity

Person -> QuestionAsked : wasAssociatedWith
note on link: (role=Stakeholder)
Organization -> QuestionAsked : wasAssociatedWith
note on link: (role=Stakeholder)
Person -> QuestionAsked : wasAssociatedWith
note on link: (role=Author)
Question -> QuestionAsked : wasGeneratedBy
@enduml

PlantUML version 1.2022.7beta2(Unknown compile time)
(GPL source distribution)
Java Runtime: Java(TM) SE Runtime Environment
JVM: Java HotSpot(TM) 64-Bit Server VM
Default Encoding: UTF-8
Language: en
Country: US
--></g></svg>