<?xml version="1.0" encoding="UTF-8" standalone="no"?><svg xmlns="http://www.w3.org/2000/svg" xmlns:xlink="http://www.w3.org/1999/xlink" contentStyleType="text/css" height="356px" preserveAspectRatio="none" style="width:490px;height:356px;background:#FFFFFF;" version="1.1" viewBox="0 0 490 356" width="490px" zoomAndPan="magnify"><defs/><g><line style="stroke:#181818;stroke-width:0.5;stroke-dasharray:5.0,5.0;" x1="30" x2="30" y1="81.2969" y2="276.0938"/><line style="stroke:#181818;stroke-width:0.5;stroke-dasharray:5.0,5.0;" x1="129.5" x2="129.5" y1="81.2969" y2="276.0938"/><line style="stroke:#181818;stroke-width:0.5;stroke-dasharray:5.0,5.0;" x1="255" x2="255" y1="81.2969" y2="276.0938"/><line style="stroke:#181818;stroke-width:0.5;stroke-dasharray:5.0,5.0;" x1="356" x2="356" y1="81.2969" y2="276.0938"/><line style="stroke:#181818;stroke-width:0.5;stroke-dasharray:5.0,5.0;" x1="444" x2="444" y1="81.2969" y2="276.0938"/><text fill="#000000" font-family="sans-serif" font-size="14" lengthAdjust="spacing" textLength="44" x="5" y="77.9951">Editor</text><ellipse cx="30" cy="13.5" fill="#E2E2F0" rx="8" ry="8" style="stroke:#181818;stroke-width:0.5;"/><path d="M30,21.5 L30,48.5 M17,29.5 L43,29.5 M30,48.5 L17,63.5 M30,48.5 L43,63.5 " fill="none" style="stroke:#181818;stroke-width:0.5;"/><text fill="#000000" font-family="sans-serif" font-size="14" lengthAdjust="spacing" textLength="44" x="5" y="288.0889">Editor</text><ellipse cx="30" cy="299.8906" fill="#E2E2F0" rx="8" ry="8" style="stroke:#181818;stroke-width:0.5;"/><path d="M30,307.8906 L30,334.8906 M17,315.8906 L43,315.8906 M30,334.8906 L17,349.8906 M30,334.8906 L43,349.8906 " fill="none" style="stroke:#181818;stroke-width:0.5;"/><text fill="#000000" font-family="sans-serif" font-size="14" lengthAdjust="spacing" textLength="49" x="102.5" y="77.9951">Author</text><ellipse cx="130" cy="13.5" fill="#E2E2F0" rx="8" ry="8" style="stroke:#181818;stroke-width:0.5;"/><path d="M130,21.5 L130,48.5 M117,29.5 L143,29.5 M130,48.5 L117,63.5 M130,48.5 L143,63.5 " fill="none" style="stroke:#181818;stroke-width:0.5;"/><text fill="#000000" font-family="sans-serif" font-size="14" lengthAdjust="spacing" textLength="49" x="102.5" y="288.0889">Author</text><ellipse cx="130" cy="299.8906" fill="#E2E2F0" rx="8" ry="8" style="stroke:#181818;stroke-width:0.5;"/><path d="M130,307.8906 L130,334.8906 M117,315.8906 L143,315.8906 M130,334.8906 L117,349.8906 M130,334.8906 L143,349.8906 " fill="none" style="stroke:#181818;stroke-width:0.5;"/><rect fill="#E2E2F0" height="30.2969" rx="2.5" ry="2.5" style="stroke:#181818;stroke-width:0.5;" width="80" x="215" y="50"/><text fill="#000000" font-family="sans-serif" font-size="14" lengthAdjust="spacing" textLength="66" x="222" y="69.9951">Guidance</text><rect fill="#E2E2F0" height="30.2969" rx="2.5" ry="2.5" style="stroke:#181818;stroke-width:0.5;" width="80" x="215" y="275.0938"/><text fill="#000000" font-family="sans-serif" font-size="14" lengthAdjust="spacing" textLength="66" x="222" y="295.0889">Guidance</text><rect fill="#E2E2F0" height="30.2969" rx="2.5" ry="2.5" style="stroke:#181818;stroke-width:0.5;" width="78" x="317" y="50"/><text fill="#000000" font-family="sans-serif" font-size="14" lengthAdjust="spacing" textLength="64" x="324" y="69.9951">Question</text><rect fill="#E2E2F0" height="30.2969" rx="2.5" ry="2.5" style="stroke:#181818;stroke-width:0.5;" width="78" x="317" y="275.0938"/><text fill="#000000" font-family="sans-serif" font-size="14" lengthAdjust="spacing" textLength="64" x="324" y="295.0889">Question</text><rect fill="#E2E2F0" height="30.2969" rx="2.5" ry="2.5" style="stroke:#181818;stroke-width:0.5;" width="79" x="405" y="50"/><text fill="#000000" font-family="sans-serif" font-size="14" lengthAdjust="spacing" textLength="65" x="412" y="69.9951">Evidence</text><rect fill="#E2E2F0" height="30.2969" rx="2.5" ry="2.5" style="stroke:#181818;stroke-width:0.5;" width="79" x="405" y="275.0938"/><text fill="#000000" font-family="sans-serif" font-size="14" lengthAdjust="spacing" textLength="65" x="412" y="295.0889">Evidence</text><polygon fill="#181818" points="344,108.4297,354,112.4297,344,116.4297,348,112.4297" style="stroke:#181818;stroke-width:1.0;"/><line style="stroke:#181818;stroke-width:1.0;" x1="255" x2="350" y1="112.4297" y2="112.4297"/><text fill="#000000" font-family="sans-serif" font-size="13" lengthAdjust="spacing" textLength="77" x="262" y="107.3638">Has context</text><polygon fill="#181818" points="243,137.5625,253,141.5625,243,145.5625,247,141.5625" style="stroke:#181818;stroke-width:1.0;"/><line style="stroke:#181818;stroke-width:1.0;" x1="130" x2="249" y1="141.5625" y2="141.5625"/><text fill="#000000" font-family="sans-serif" font-size="13" lengthAdjust="spacing" textLength="101" x="137" y="136.4966">Creates version</text><polygon fill="#181818" points="432.5,166.6953,442.5,170.6953,432.5,174.6953,436.5,170.6953" style="stroke:#181818;stroke-width:1.0;"/><line style="stroke:#181818;stroke-width:1.0;" x1="130" x2="438.5" y1="170.6953" y2="170.6953"/><text fill="#000000" font-family="sans-serif" font-size="13" lengthAdjust="spacing" textLength="54" x="137" y="165.6294">Reviews</text><polygon fill="#181818" points="243,195.8281,253,199.8281,243,203.8281,247,199.8281" style="stroke:#181818;stroke-width:1.0;"/><line style="stroke:#181818;stroke-width:1.0;" x1="130" x2="249" y1="199.8281" y2="199.8281"/><text fill="#000000" font-family="sans-serif" font-size="13" lengthAdjust="spacing" textLength="50" x="137" y="194.7622">Authors</text><polygon fill="#181818" points="432.5,224.9609,442.5,228.9609,432.5,232.9609,436.5,228.9609" style="stroke:#181818;stroke-width:1.0;"/><line style="stroke:#181818;stroke-width:1.0;" x1="255" x2="438.5" y1="228.9609" y2="228.9609"/><text fill="#000000" font-family="sans-serif" font-size="13" lengthAdjust="spacing" textLength="73" x="262" y="223.895">References</text><polygon fill="#181818" points="118,254.0938,128,258.0938,118,262.0938,122,258.0938" style="stroke:#181818;stroke-width:1.0;"/><line style="stroke:#181818;stroke-width:1.0;" x1="30" x2="124" y1="258.0938" y2="258.0938"/><text fill="#000000" font-family="sans-serif" font-size="13" lengthAdjust="spacing" textLength="76" x="37" y="253.0278">Helps refine</text><!--MD5=[dce4daeac9973358819b20f49c0e5e40]
@startuml
actor "Editor"
actor "Author"

Guidance -> Question : Has context
Author -> Guidance : Creates version
Author -> Evidence : Reviews
Author -> Guidance : Authors
Guidance -> Evidence : References
Editor -> Author: Helps refine
@enduml

PlantUML version 1.2022.7beta2(Unknown compile time)
(GPL source distribution)
Java Runtime: Java(TM) SE Runtime Environment
JVM: Java HotSpot(TM) 64-Bit Server VM
Default Encoding: UTF-8
Language: en
Country: US
--></g></svg>